if (_typeface_js && _typeface_js.loadFace) _typeface_js.loadFace({"glyphs":{"S":{"x_min":72.234375,"x_max":848.671875,"ha":726,"o":"m 609 994 q 793 952 737 994 q 848 852 848 911 q 809 742 848 793 q 698 691 769 691 q 627 751 627 691 q 630 773 627 757 q 695 802 668 773 q 723 866 723 832 q 690 923 723 901 q 609 945 657 945 q 476 897 529 945 q 423 783 423 848 q 448 707 423 748 q 496 641 473 665 q 571 568 519 616 q 633 511 623 520 q 738 281 738 405 q 626 64 738 156 q 356 -27 513 -27 q 150 13 229 -27 q 72 144 72 55 q 104 233 72 193 q 195 273 136 273 q 275 231 254 273 q 226 138 226 193 q 263 53 226 83 q 359 23 300 23 q 506 83 443 23 q 569 234 569 143 q 450 451 569 325 q 401 503 448 454 q 322 604 354 552 q 291 726 291 655 q 386 920 291 847 q 609 994 480 994 "},"\u0000":{"x_min":0,"x_max":0,"ha":0},"¦":{"x_min":345.640625,"x_max":557.203125,"ha":635,"o":"m 556 959 l 493 519 q 460 515 493 515 q 430 526 427 515 l 494 966 q 527 970 494 970 q 556 959 559 970 m 472 359 l 408 -80 q 375 -84 408 -84 q 345 -73 343 -84 l 409 366 q 442 370 409 370 q 472 359 475 370 "},"/":{"x_min":97.234375,"x_max":941.734375,"ha":632,"o":"m 941 963 l 169 -80 q 131 -84 166 -84 q 97 -75 97 -84 l 97 -73 l 869 970 q 907 975 873 975 q 941 965 941 975 l 941 963 "},"y":{"x_min":-69.453125,"x_max":668.109375,"ha":590,"o":"m 611 541 l 668 541 q 580 411 625 515 q 519 252 544 323 q 488 165 494 180 q 463 90 483 150 q 430 0 443 31 q 350 -154 395 -97 q 236 -245 304 -211 q 98 -279 168 -279 q -20 -252 29 -279 q -69 -166 -69 -225 q -50 -111 -69 -136 q -7 -87 -31 -87 q 33 -98 16 -87 q 56 -123 50 -109 q 31 -181 31 -131 q 50 -224 31 -208 q 98 -240 69 -240 q 287 -38 211 -240 l 366 172 q 253 49 301 90 q 178 0 205 8 q 114 -8 151 -8 q 55 21 77 -8 q 34 109 33 51 q 67 273 34 166 q 139 443 100 380 q 221 523 179 505 q 337 541 263 541 q 343 536 343 541 q 334 522 343 530 q 218 343 277 472 q 159 125 159 213 q 186 77 159 77 q 313 177 236 77 q 433 377 391 277 q 449 418 438 391 q 463 454 459 444 q 477 481 468 463 q 493 504 486 498 q 511 520 500 511 q 536 533 523 530 q 611 541 576 541 "},"Ž":{"x_min":-8.328125,"x_max":920.90625,"ha":828,"o":"m 206 95 q 502 68 206 68 q 737 98 682 68 q 786 143 768 115 q 794 148 788 148 q 800 143 800 148 q 750 40 784 81 q 687 0 715 0 l 26 0 q -8 26 -8 0 q 6 81 -8 41 q 44 147 22 122 q 643 848 452 612 q 663 886 663 875 q 587 901 663 901 l 500 900 q 430 900 500 900 q 375 899 402 900 q 332 896 347 898 q 294 891 318 894 q 256 882 270 887 q 226 869 243 876 q 176 826 193 852 q 166 820 172 820 q 161 826 161 820 q 211 928 176 887 q 273 969 247 969 l 818 969 l 883 972 q 920 957 920 972 q 890 908 920 943 q 233 140 670 670 q 206 95 206 108 m 494 1229 q 513 1245 494 1234 q 545 1257 533 1257 q 650 1119 580 1257 q 827 1251 790 1251 q 852 1247 852 1251 l 852 1245 q 650 1065 719 1137 q 625 1051 637 1051 q 592 1082 613 1051 q 541 1161 570 1113 q 494 1229 511 1208 "},"ĸ":{"x_min":70.84375,"x_max":807.015625,"ha":786,"o":"m 795 600 q 469 427 666 600 q 783 2 551 158 q 622 -8 750 -8 q 479 128 562 -8 q 379 366 395 265 q 328 311 352 347 q 274 181 304 276 q 244 47 244 86 q 250 0 244 9 l 70 0 q 300 650 219 470 q 436 907 380 829 q 508 937 458 937 q 559 926 526 937 q 593 891 593 915 q 534 772 593 868 q 413 570 476 677 q 345 405 351 462 q 529 552 408 468 q 726 636 651 636 q 780 627 754 636 q 807 604 807 618 q 795 600 807 600 "},"Á":{"x_min":-66.671875,"x_max":1225.09375,"ha":1129,"o":"m 566 969 l 877 969 q 757 916 843 934 q 562 888 670 898 q 420 870 454 877 q 272 693 272 836 q 229 788 229 737 q 566 969 229 969 m 948 969 l 1048 969 q 918 635 984 908 q 852 213 852 362 q 891 68 852 108 q 933 50 908 50 q 986 68 958 50 l 994 55 q 925 7 975 27 q 826 -12 875 -12 q 727 38 754 -12 q 697 176 701 90 q 715 359 697 247 l 397 359 q 72 0 190 140 l -66 0 q 338 391 63 119 q 804 880 693 744 q 845 927 832 913 q 888 954 859 940 q 948 969 916 969 m 805 773 q 458 429 647 625 l 725 429 q 805 773 750 566 m 1222 1125 q 1075 1054 1166 1101 q 979 1008 983 1008 q 961 1015 975 1008 q 948 1025 948 1022 q 1039 1089 961 1032 q 1143 1165 1118 1147 q 1159 1168 1148 1168 q 1198 1152 1170 1168 q 1225 1129 1225 1137 q 1222 1125 1225 1126 "},"g":{"x_min":-52.78125,"x_max":711.171875,"ha":606,"o":"m 655 555 l 711 555 q 647 470 682 536 q 588 342 612 405 q 525 169 563 279 q 375 -159 438 -77 q 231 -284 311 -240 q 86 -327 151 -327 q -52 -240 -52 -327 q -31 -175 -52 -205 q 26 -144 -9 -144 q 75 -173 62 -144 q 53 -202 61 -181 q 45 -242 45 -223 q 60 -273 45 -261 q 98 -286 75 -286 q 219 -218 165 -286 q 311 -62 273 -151 q 444 304 320 -38 q 136 -4 280 -4 q 41 123 41 -4 q 84 320 41 220 q 205 491 126 420 q 379 561 284 561 q 461 541 422 561 q 512 477 501 522 q 561 538 533 522 q 655 555 590 555 m 506 465 q 441 509 493 509 q 263 381 350 509 q 176 152 176 252 q 209 111 176 111 q 294 156 245 111 q 381 262 343 201 q 506 465 506 455 "},"²":{"x_min":4.171875,"x_max":661.15625,"ha":682,"o":"m 661 827 q 610 682 661 740 q 497 591 559 625 q 370 527 436 558 q 125 351 202 451 q 462 275 343 275 q 566 359 566 275 l 593 359 q 552 221 593 275 q 425 168 512 168 q 313 200 372 168 q 206 263 254 231 q 134 295 159 295 q 97 277 109 295 q 83 234 84 258 q 38 173 79 173 q 4 229 4 173 q 188 493 4 356 q 450 702 401 640 q 502 836 502 772 q 479 900 502 876 q 403 925 456 925 q 302 873 350 925 q 254 761 254 822 q 261 722 254 743 q 213 708 238 708 q 169 732 188 708 q 150 793 150 755 q 202 902 150 858 q 434 982 294 982 q 661 827 661 982 "},"–":{"x_min":212.515625,"x_max":1069.53125,"ha":1085,"o":"m 277 400 l 1068 400 q 1069 393 1069 400 q 1043 347 1069 386 q 1004 309 1018 309 l 213 309 q 212 316 212 309 q 238 361 212 323 q 277 400 263 400 "},"ë":{"x_min":47.21875,"x_max":677.828125,"ha":497,"o":"m 605 361 q 613 334 613 361 q 591 269 613 306 q 547 198 569 231 q 490 120 526 165 q 419 50 454 76 q 243 -13 331 -13 q 101 31 155 -13 q 47 169 47 76 q 151 431 47 311 q 394 552 255 552 q 494 520 456 552 q 531 441 531 487 q 458 316 531 363 q 284 269 384 269 q 198 284 226 269 q 172 159 172 213 q 270 43 172 43 q 391 88 329 43 q 496 189 452 133 q 595 351 540 245 q 605 361 601 361 m 458 470 q 419 511 458 511 q 298 444 365 511 q 231 336 231 377 q 284 308 231 308 q 395 359 337 308 q 458 470 452 411 m 669 773 q 611 735 641 766 q 566 704 581 704 q 537 727 537 704 q 571 800 537 751 q 634 848 605 848 q 663 827 650 848 q 677 791 677 807 q 669 773 677 775 m 409 773 q 352 735 381 766 q 306 704 322 704 q 277 727 277 704 q 311 800 277 751 q 375 848 345 848 q 404 827 390 848 q 418 791 418 807 q 409 773 418 775 "},"ƒ":{"x_min":-455.59375,"x_max":687.5625,"ha":415,"o":"m 687 852 q 664 793 687 825 q 604 761 641 761 q 572 770 586 761 q 559 793 559 780 q 580 836 559 807 q 601 886 601 866 q 588 919 601 905 q 548 933 576 933 q 490 909 520 933 q 430 836 459 884 q 340 650 388 765 l 562 650 q 565 643 565 650 q 552 618 565 636 q 526 600 538 600 l 326 600 q 194 265 298 541 q 20 -129 90 -9 q -116 -301 -50 -248 q -277 -354 -183 -354 q -413 -319 -372 -354 q -455 -240 -455 -284 q -432 -169 -455 -197 q -383 -141 -409 -141 q -329 -180 -329 -141 q -347 -217 -329 -188 q -366 -265 -366 -245 q -316 -305 -366 -305 q -200 -259 -266 -305 q -86 -115 -134 -212 q 12 105 -37 -19 q 115 377 62 230 q 200 600 169 525 l 130 600 q 122 610 122 600 q 129 635 122 620 q 143 650 137 650 l 218 650 q 337 863 268 772 q 551 972 420 972 q 636 955 605 972 q 687 852 687 929 "},"Î":{"x_min":5.5625,"x_max":709.78125,"ha":567,"o":"m 301 969 l 615 969 q 351 513 519 895 q 253 259 308 416 q 198 29 198 101 q 204 0 198 9 l 25 0 q 188 466 63 168 q 404 918 355 863 q 164 870 286 915 q 23 762 43 825 q 18 758 22 758 q 5 776 5 758 q 8 790 5 779 q 84 908 34 866 q 182 959 134 950 q 301 969 230 969 m 709 1047 l 709 1045 q 689 1030 709 1041 q 658 1019 669 1019 q 604 1069 638 1019 q 554 1157 570 1119 q 452 1068 508 1112 q 373 1025 395 1025 q 351 1029 351 1025 l 351 1030 q 554 1211 484 1138 q 577 1223 565 1223 q 610 1192 588 1223 q 662 1114 632 1161 q 709 1047 693 1068 "},"e":{"x_min":47.21875,"x_max":613.9375,"ha":497,"o":"m 605 361 q 613 334 613 361 q 591 269 613 306 q 547 198 569 231 q 490 120 526 165 q 419 50 454 76 q 243 -13 331 -13 q 101 31 155 -13 q 47 169 47 76 q 151 431 47 311 q 394 552 255 552 q 494 520 456 552 q 531 441 531 487 q 458 316 531 363 q 284 269 384 269 q 198 284 226 269 q 172 159 172 213 q 270 43 172 43 q 391 88 329 43 q 496 189 452 133 q 595 351 540 245 q 605 361 601 361 m 458 470 q 419 511 458 511 q 298 444 365 511 q 231 336 231 377 q 284 308 231 308 q 395 359 337 308 q 458 470 452 411 "},"Ã":{"x_min":-66.671875,"x_max":1308.4375,"ha":1129,"o":"m 566 969 l 877 969 q 757 916 843 934 q 562 888 670 898 q 420 870 454 877 q 272 693 272 836 q 229 788 229 737 q 566 969 229 969 m 948 969 l 1048 969 q 918 635 984 908 q 852 213 852 362 q 891 68 852 108 q 933 50 908 50 q 986 68 958 50 l 994 55 q 925 7 975 27 q 826 -12 875 -12 q 727 38 754 -12 q 697 176 701 90 q 715 359 697 247 l 397 359 q 72 0 190 140 l -66 0 q 338 391 63 119 q 804 880 693 744 q 845 927 832 913 q 888 954 859 940 q 948 969 916 969 m 805 773 q 458 429 647 625 l 725 429 q 805 773 750 566 m 1305 1226 q 1194 1126 1247 1126 q 1104 1151 1162 1126 q 1011 1176 1045 1176 q 952 1155 977 1176 q 926 1134 927 1134 q 911 1148 911 1134 q 947 1201 911 1161 q 1017 1241 983 1241 q 1115 1216 1051 1241 q 1207 1190 1179 1190 q 1252 1204 1236 1190 q 1277 1233 1268 1219 q 1295 1247 1287 1247 q 1308 1236 1308 1247 q 1305 1226 1308 1232 "},"J":{"x_min":-118.0625,"x_max":816.734375,"ha":542,"o":"m -54 -4 l -55 -12 q -35 -70 -55 -51 q 13 -88 -15 -88 q 422 505 181 -88 q 441 552 426 516 q 493 663 455 588 q 585 814 530 738 q 682 905 640 890 q 538 916 641 916 q 309 872 436 916 q 161 762 181 827 q 155 758 158 758 q 143 776 143 758 q 145 790 143 779 q 222 908 172 866 q 320 959 272 950 q 438 969 368 969 l 504 969 l 816 968 q 702 872 734 905 q 636 770 670 838 q 570 616 601 701 q 519 466 540 531 q 481 350 498 401 q 434 222 463 298 q 375 87 404 145 q 306 -34 347 29 q 225 -140 266 -98 q 26 -236 131 -236 q -78 -199 -38 -236 q -118 -101 -118 -162 q -102 -40 -118 -72 q -54 -4 -87 -8 "},"»":{"x_min":172.234375,"x_max":994.53125,"ha":963,"o":"m 966 462 q 994 431 994 441 q 959 400 994 420 q 515 106 726 269 q 511 105 513 105 q 508 111 508 105 q 634 242 508 147 q 884 413 759 337 q 620 659 679 559 q 619 670 619 661 q 644 702 619 680 q 677 725 669 725 q 687 723 686 725 q 966 462 833 558 m 630 462 q 658 431 658 443 q 625 400 658 419 q 179 106 393 270 q 175 105 177 105 q 172 111 172 105 q 300 244 172 147 q 548 413 429 341 q 284 659 343 559 q 283 670 283 661 q 308 702 283 680 q 341 725 333 725 q 351 723 350 725 q 630 462 497 558 "},"©":{"x_min":56.953125,"x_max":1101.484375,"ha":936,"o":"m 1097 476 q 900 140 1070 279 q 525 1 730 1 q 188 121 319 1 q 56 418 56 241 q 138 683 56 559 q 355 879 220 807 q 641 951 490 951 q 970 831 840 951 q 1101 533 1101 711 q 1097 476 1101 505 m 836 177 q 994 527 994 323 q 890 795 994 687 q 629 902 786 902 q 304 760 444 902 q 165 426 165 618 q 269 159 165 266 q 536 52 373 52 q 836 177 700 52 m 816 338 q 500 173 684 173 q 349 238 401 173 q 297 402 297 304 q 402 680 297 551 q 659 809 508 809 q 765 773 726 809 q 804 687 804 737 q 778 601 804 637 q 718 565 752 565 q 648 625 648 565 q 672 647 648 637 q 715 712 715 663 q 702 751 715 736 q 662 766 688 766 q 550 708 608 766 q 454 562 493 650 q 416 397 416 475 q 449 275 416 320 q 545 229 481 229 q 675 272 608 229 q 795 383 743 315 q 807 390 801 390 q 823 368 823 390 q 816 338 823 347 "},"˘":{"x_min":402.8125,"x_max":783.390625,"ha":843,"o":"m 783 969 q 570 836 719 836 q 454 872 506 836 q 402 962 402 909 q 444 976 402 976 q 486 970 486 976 q 518 905 486 929 q 592 882 550 882 q 670 904 634 882 q 725 969 707 926 q 754 975 726 975 q 783 969 783 975 "},"ò":{"x_min":48.609375,"x_max":734.78125,"ha":624,"o":"m 718 341 q 726 350 722 350 q 734 329 734 350 q 681 218 734 262 q 581 175 627 175 q 501 201 534 175 q 382 45 451 102 q 205 -11 313 -11 q 92 31 136 -11 q 48 160 48 73 q 88 339 48 247 q 207 498 127 431 q 386 565 287 565 q 551 390 551 565 q 522 250 551 323 q 581 220 543 220 q 718 341 654 220 m 486 427 q 419 501 480 501 q 231 315 323 501 q 181 129 181 212 q 254 41 181 45 q 364 104 313 41 q 450 244 415 168 q 402 345 402 284 q 422 405 402 383 q 477 427 443 427 l 486 427 m 347 758 q 264 798 287 788 q 241 811 241 808 q 269 834 241 819 q 308 850 297 850 q 325 847 319 850 q 397 794 350 829 l 477 734 q 519 707 509 711 q 505 696 519 702 q 488 690 491 690 q 445 709 484 690 l 347 758 "},"^":{"x_min":225.015625,"x_max":732,"ha":738,"o":"m 732 682 l 732 680 q 711 656 732 672 q 677 640 691 640 q 603 718 650 640 q 525 868 556 797 q 356 718 455 798 q 233 637 258 637 q 225 639 225 637 q 226 643 225 641 q 526 923 390 776 q 553 944 544 944 q 576 919 562 944 q 732 682 625 815 "},"«":{"x_min":95.84375,"x_max":916.734375,"ha":932,"o":"m 911 723 l 913 725 q 916 719 916 725 q 789 587 916 684 q 540 416 662 490 q 695 294 616 363 q 805 172 775 225 q 807 161 807 170 q 781 128 807 151 q 747 105 755 105 q 738 106 738 105 q 459 368 593 272 q 430 400 430 388 q 465 431 430 411 q 911 723 711 569 m 575 723 q 578 725 576 725 q 580 720 580 725 q 454 588 580 686 q 205 416 327 491 q 469 172 413 269 q 470 159 470 169 q 445 127 470 150 q 411 105 419 105 q 402 106 402 105 q 123 368 256 272 q 95 400 95 388 q 130 431 95 411 q 575 723 359 561 "},"D":{"x_min":-27.78125,"x_max":1011.1875,"ha":986,"o":"m 1004 497 q 880 212 977 333 q 644 31 783 91 q 343 -27 505 -27 q 41 126 41 -27 q 336 875 41 293 q 356 913 350 902 q 133 865 247 905 q -15 765 19 825 q -22 761 -16 761 q -27 768 -27 761 q -26 779 -27 776 q 166 955 26 923 q 337 969 230 969 l 622 969 q 915 862 819 969 q 1011 590 1011 755 q 1004 497 1011 550 m 858 486 q 873 608 873 550 q 794 832 873 743 q 672 903 750 880 q 529 926 595 926 q 370 638 462 838 q 220 259 277 437 q 191 118 191 172 q 219 48 191 65 q 318 31 247 31 q 662 161 511 31 q 858 486 813 291 "},"ł":{"x_min":-38.890625,"x_max":607,"ha":335,"o":"m -20 304 l 101 350 q 243 730 141 505 q 378 945 300 858 q 531 1033 456 1033 q 607 968 607 1033 q 479 698 607 873 q 231 411 351 523 l 226 397 l 402 462 q 404 454 404 462 q 397 424 404 445 q 386 401 391 402 l 204 333 q 163 130 163 201 q 194 88 163 88 q 267 123 225 88 q 329 184 309 158 q 375 252 348 209 q 440 355 437 355 q 448 333 448 355 q 334 127 448 277 q 236 34 297 77 q 123 -8 176 -8 q 45 97 45 -8 q 81 286 45 161 l -37 241 q -38 249 -38 241 q -33 279 -38 256 q -20 304 -27 301 m 540 998 q 413 844 491 998 q 259 490 334 690 q 519 857 450 713 q 558 971 558 944 q 540 998 558 998 "},"ÿ":{"x_min":-69.453125,"x_max":690.328125,"ha":590,"o":"m 611 541 l 668 541 q 580 411 625 515 q 519 252 544 323 q 488 165 494 180 q 463 90 483 150 q 430 0 443 31 q 350 -154 395 -97 q 236 -245 304 -211 q 98 -279 168 -279 q -20 -252 29 -279 q -69 -166 -69 -225 q -50 -111 -69 -136 q -7 -87 -31 -87 q 33 -98 16 -87 q 56 -123 50 -109 q 31 -181 31 -131 q 50 -224 31 -208 q 98 -240 69 -240 q 287 -38 211 -240 l 366 172 q 253 49 301 90 q 178 0 205 8 q 114 -8 151 -8 q 55 21 77 -8 q 34 109 33 51 q 67 273 34 166 q 139 443 100 380 q 221 523 179 505 q 337 541 263 541 q 343 536 343 541 q 334 522 343 530 q 218 343 277 472 q 159 125 159 213 q 186 77 159 77 q 313 177 236 77 q 433 377 391 277 q 449 418 438 391 q 463 454 459 444 q 477 481 468 463 q 493 504 486 498 q 511 520 500 511 q 536 533 523 530 q 611 541 576 541 m 682 757 q 624 718 654 750 q 579 687 594 687 q 550 711 550 687 q 584 783 550 734 q 647 832 618 832 q 676 811 662 832 q 690 774 690 790 q 682 757 690 758 m 422 757 q 364 718 394 750 q 319 687 334 687 q 290 711 290 687 q 324 783 290 734 q 387 832 358 832 q 416 811 402 832 q 430 774 430 790 q 422 757 430 758 "},"Ł":{"x_min":-22.21875,"x_max":813.953125,"ha":824,"o":"m 811 179 q 697 26 772 58 q 621 4 657 9 q 530 0 586 0 l 109 0 q 54 77 54 0 q 386 875 54 276 q 412 918 411 915 q 172 870 294 915 q 31 762 51 825 q 26 758 30 758 q 13 776 13 758 q 25 813 13 779 q 69 886 37 848 q 141 941 101 923 q 309 969 209 969 l 625 969 q 478 765 568 926 q 303 411 388 604 q 218 137 218 219 q 316 47 218 47 q 797 205 719 47 q 804 209 800 209 q 813 195 813 209 q 811 179 813 193 m 15 370 l 448 370 l 448 369 q 434 337 448 362 q 412 312 419 312 l -20 312 q -22 316 -22 312 q -6 345 -22 320 q 15 370 8 370 "},"í":{"x_min":34.71875,"x_max":509.765625,"ha":301,"o":"m 258 555 l 327 554 l 341 554 q 282 463 319 537 q 227 352 245 390 q 186 251 209 315 q 163 147 163 187 q 190 106 163 106 q 240 131 208 106 q 294 182 273 155 q 341 251 315 209 q 385 323 366 293 q 406 354 404 354 q 415 328 415 354 q 401 279 415 302 q 307 135 350 193 q 211 34 265 77 q 112 -8 156 -8 q 34 100 34 -8 q 150 472 34 268 q 258 555 198 555 m 506 815 q 359 745 451 791 q 263 698 268 698 q 246 705 259 698 q 233 715 233 712 q 324 779 245 722 q 427 855 402 837 q 444 858 433 858 q 482 843 455 858 q 509 819 509 827 q 506 815 509 816 "},"ˆ":{"x_min":318.078125,"x_max":676.4375,"ha":738,"o":"m 676 701 l 676 700 q 656 684 676 695 q 625 673 636 673 q 571 723 605 673 q 520 811 537 773 q 418 722 475 766 q 340 679 362 679 q 318 683 318 679 l 318 684 q 520 865 451 793 q 543 877 531 877 q 577 846 555 877 q 629 768 598 815 q 676 701 659 722 "},"w":{"x_min":30.5625,"x_max":1045.921875,"ha":940,"o":"m 566 525 l 641 523 q 669 525 665 523 q 547 291 618 494 q 506 128 506 184 q 548 72 506 72 q 647 128 597 72 q 724 236 698 184 q 765 329 750 287 q 758 413 758 363 q 784 511 758 463 q 848 558 809 558 q 893 495 893 558 q 879 408 893 440 q 851 349 865 376 q 832 311 837 322 q 853 245 832 270 q 902 220 875 220 q 1034 341 968 220 q 1042 348 1038 348 q 1045 329 1045 348 q 994 213 1045 254 q 891 173 943 173 q 793 251 816 173 l 788 265 q 636 52 702 115 q 480 -9 570 -9 q 363 122 363 -9 q 369 176 363 145 q 111 -8 237 -8 q 53 22 76 -8 q 30 107 30 52 q 69 277 30 162 q 230 537 143 500 q 347 555 272 555 q 351 550 351 555 q 341 540 351 554 q 233 341 288 465 q 198 244 222 313 q 175 128 175 175 q 209 81 175 81 q 411 334 279 81 q 468 443 466 441 q 566 525 519 525 "},"$":{"x_min":62.5,"x_max":627.828125,"ha":632,"o":"m 618 776 q 627 736 627 761 q 613 694 627 712 q 570 676 598 676 l 562 676 q 500 762 562 727 l 422 558 l 448 540 q 566 365 566 458 q 477 194 566 272 q 256 116 387 116 l 251 116 l 175 -80 q 143 -84 173 -84 q 113 -73 113 -84 l 190 123 q 97 169 133 136 q 62 252 62 202 q 88 339 62 301 q 156 377 113 377 q 172 376 166 377 q 141 320 141 354 q 162 257 141 287 q 225 213 183 227 l 327 481 q 225 645 225 573 q 288 773 225 716 q 463 834 351 830 l 516 970 q 548 975 519 975 q 577 965 577 975 l 577 963 l 526 830 q 618 776 593 818 m 373 598 l 443 780 l 431 780 q 360 754 390 780 q 330 684 330 729 q 373 598 330 638 m 400 425 l 376 441 l 286 208 q 405 250 359 212 q 451 338 451 288 q 400 425 451 387 "},"\\":{"x_min":119.390625,"x_max":589,"ha":632,"o":"m 236 970 l 588 -73 q 562 -81 590 -77 q 504 -84 534 -84 q 472 -80 473 -84 l 119 963 q 145 971 118 968 q 203 975 173 975 q 236 970 233 975 "},"Ì":{"x_min":5.5625,"x_max":615.328125,"ha":567,"o":"m 301 969 l 615 969 q 351 513 519 895 q 253 259 308 416 q 198 29 198 101 q 204 0 198 9 l 25 0 q 188 466 63 168 q 404 918 355 863 q 164 870 286 915 q 23 762 43 825 q 18 758 22 758 q 5 776 5 758 q 8 790 5 779 q 84 908 34 866 q 182 959 134 950 q 301 969 230 969 m 431 1083 q 349 1123 372 1113 q 326 1136 326 1133 q 354 1159 326 1144 q 393 1175 381 1175 q 409 1172 404 1175 q 483 1119 434 1154 l 562 1059 q 604 1032 594 1036 q 590 1021 604 1027 q 572 1015 576 1015 q 530 1034 569 1015 l 431 1083 "},"µ":{"x_min":-413.921875,"x_max":744.5,"ha":629,"o":"m 579 555 l 645 554 q 672 555 666 554 q 561 373 632 529 q 491 148 491 218 q 519 106 491 106 q 568 130 537 106 q 622 182 600 154 q 670 252 644 211 q 714 325 695 294 q 736 355 733 355 q 744 329 744 355 q 729 280 744 302 q 635 136 679 195 q 538 34 591 77 q 441 -8 486 -8 q 363 106 363 -8 q 369 176 363 143 q 111 -8 237 -8 q 97 -6 101 -8 q -288 -327 -47 -327 q -377 -306 -340 -327 q -413 -246 -413 -286 q -392 -175 -413 -206 q -334 -144 -370 -144 q -284 -173 -297 -144 q -306 -202 -298 -181 q -313 -242 -313 -223 q -299 -274 -313 -261 q -259 -287 -284 -287 q -50 -63 -143 -287 q 52 228 -12 27 q 172 511 118 429 q 205 536 184 530 q 272 541 226 541 l 334 541 q 213 291 270 451 q 175 128 175 175 q 209 81 175 81 q 300 154 248 81 q 411 343 351 227 q 480 475 470 459 q 579 555 531 555 "},"Ç":{"x_min":4.171875,"x_max":936.1875,"ha":904,"o":"m 925 772 q 842 676 902 715 q 716 637 782 637 q 666 650 686 637 q 647 684 647 663 q 663 729 647 705 q 698 723 679 723 q 798 761 752 723 q 844 851 844 798 q 737 932 844 932 q 461 834 595 932 q 243 582 326 737 q 161 268 161 427 q 386 20 161 20 q 683 129 526 20 q 891 363 840 237 q 918 315 918 345 q 829 160 918 252 q 605 13 740 68 q 330 -41 470 -41 q 4 262 4 -41 q 55 503 4 377 q 194 736 106 629 q 413 913 281 844 q 672 983 544 983 q 868 939 800 983 q 936 827 936 895 q 925 772 936 802 m 295 -125 q 282 -129 294 -130 q 262 -127 270 -127 q 169 -191 213 -127 q 125 -319 125 -255 q 180 -383 125 -383 q 281 -330 231 -383 q 288 -327 284 -327 q 291 -337 291 -327 q 247 -393 291 -370 q 153 -416 204 -416 q 77 -388 102 -416 q 52 -313 52 -359 q 111 -163 52 -223 q 258 -102 170 -102 l 263 -102 l 291 -38 q 307 -33 293 -33 q 322 -37 322 -33 l 295 -125 "},"’":{"x_min":119.453125,"x_max":320.859375,"ha":221,"o":"m 290 973 q 320 913 320 955 q 299 832 320 872 q 256 760 277 791 q 200 695 236 729 q 134 661 163 661 q 119 663 127 661 q 179 747 138 686 q 222 825 220 808 l 213 825 q 166 877 166 825 q 195 950 166 918 q 259 982 223 982 q 290 973 275 982 "},"-":{"x_min":212.515625,"x_max":666.71875,"ha":681,"o":"m 277 400 l 665 400 q 666 393 666 400 q 641 347 666 386 q 601 309 615 309 l 213 309 q 212 316 212 309 q 238 361 212 323 q 277 400 265 400 "},"Q":{"x_min":115.28125,"x_max":1165.375,"ha":1060,"o":"m 1108 420 q 788 45 997 169 q 813 -38 800 20 q 837 -143 826 -97 q 874 -225 848 -188 q 932 -262 900 -262 q 987 -240 965 -262 q 998 -281 998 -262 q 959 -358 998 -327 q 866 -388 919 -388 q 778 -363 813 -388 q 727 -289 743 -337 q 704 -198 711 -241 q 692 -93 697 -155 q 683 -4 687 -30 q 459 -44 577 -44 q 115 259 115 -44 q 172 529 115 397 q 325 761 230 662 q 548 922 419 861 q 812 983 677 983 q 1077 896 990 983 q 1165 679 1165 809 q 1108 420 1165 550 m 1050 693 q 855 919 1050 919 q 640 857 747 919 q 455 697 533 794 q 329 479 377 600 q 281 251 281 359 q 329 78 281 143 q 475 13 377 13 q 668 61 572 13 q 629 118 654 98 q 577 137 604 137 l 540 131 q 527 140 527 131 q 554 167 527 158 q 611 176 581 176 q 747 111 688 176 q 966 377 882 212 q 1050 693 1050 541 "},"M":{"x_min":52.78125,"x_max":1427.890625,"ha":1167,"o":"m 1341 969 l 1427 969 q 1238 669 1365 920 q 1051 126 1051 291 q 1100 50 1051 50 q 1154 68 1122 50 l 1155 68 q 1159 61 1159 68 q 1089 11 1159 34 q 975 -12 1019 -12 q 882 88 882 -12 q 1165 801 882 265 q 1090 726 1109 748 q 693 234 957 577 q 616 145 637 163 q 561 127 595 127 q 483 148 527 127 q 518 418 518 193 q 490 829 518 644 q 309 415 440 736 q 179 12 179 94 q 180 0 179 2 l 52 0 q 279 534 131 202 q 458 929 426 866 q 211 879 331 929 q 70 762 91 829 q 65 758 69 758 q 54 776 54 758 q 65 813 54 779 q 107 886 76 848 q 180 941 138 923 q 348 969 248 969 l 525 969 q 591 955 566 969 q 625 889 615 941 q 643 649 634 837 q 652 384 652 461 q 650 280 652 308 q 1163 904 848 529 q 1341 969 1219 969 "},"C":{"x_min":73.609375,"x_max":1005.640625,"ha":945,"o":"m 994 772 q 911 676 972 715 q 786 637 851 637 q 736 650 755 637 q 716 684 716 663 q 733 729 716 705 q 768 723 748 723 q 868 761 822 723 q 913 851 913 798 q 807 932 913 932 q 530 834 665 932 q 313 582 395 737 q 230 268 230 427 q 455 20 230 20 q 752 129 595 20 q 961 363 909 237 q 987 315 987 345 q 898 160 987 252 q 675 13 809 68 q 400 -41 540 -41 q 73 262 73 -41 q 125 503 73 377 q 263 736 176 629 q 482 913 351 844 q 741 983 613 983 q 937 939 869 983 q 1005 827 1005 895 q 994 772 1005 802 "},"œ":{"x_min":48.609375,"x_max":1015.359375,"ha":900,"o":"m 1001 280 q 925 165 954 205 q 850 77 895 125 q 629 -13 761 -13 q 506 19 551 -13 q 451 109 462 52 l 450 115 q 205 -11 355 -11 q 92 30 136 -11 q 48 159 48 72 q 88 339 48 247 q 207 498 127 431 q 375 565 287 565 q 550 423 534 565 q 808 556 662 556 q 926 469 926 556 q 863 345 926 405 q 720 250 800 284 q 577 212 640 216 q 572 156 572 186 q 670 43 572 43 q 900 191 780 43 q 941 252 915 209 q 1007 355 1004 355 q 1015 329 1015 355 q 1001 280 1015 304 m 847 420 q 863 472 863 445 q 823 511 863 511 q 684 429 758 511 q 587 251 611 348 q 728 306 654 265 q 847 420 802 348 m 254 41 q 450 244 352 41 q 491 415 491 330 q 419 500 491 500 q 315 443 363 500 q 224 299 266 386 q 181 127 181 212 q 254 41 181 41 "},"!":{"x_min":68.0625,"x_max":556.984375,"ha":488,"o":"m 461 908 l 541 902 q 556 904 552 902 q 369 581 480 794 q 243 322 258 368 l 186 311 q 285 581 209 363 q 388 875 361 800 q 461 908 401 908 m 220 68 q 175 36 205 65 q 136 -11 145 6 q 68 45 68 11 q 97 94 68 70 q 166 118 127 118 q 223 83 223 118 q 220 68 223 79 "},"ç":{"x_min":-13.890625,"x_max":611.15625,"ha":497,"o":"m 602 355 q 611 329 611 355 q 588 263 611 302 q 552 204 565 225 q 506 140 538 184 q 451 76 475 95 q 391 30 427 56 q 232 -13 330 -13 q 90 35 134 -13 q 47 163 47 84 q 150 431 47 309 q 394 552 254 552 q 494 520 456 552 q 531 442 531 487 q 506 363 531 397 q 450 330 481 330 q 387 381 387 330 q 422 413 387 398 q 447 434 436 419 q 458 475 458 450 q 419 511 458 511 q 254 390 336 511 q 172 156 172 269 q 270 43 172 43 q 538 255 408 43 q 582 326 565 297 q 602 355 600 355 m 229 -100 q 215 -104 227 -105 q 195 -102 204 -102 q 102 -166 147 -102 q 58 -294 58 -230 q 113 -358 58 -358 q 215 -305 165 -358 q 221 -302 218 -302 q 225 -312 225 -302 q 181 -368 225 -345 q 86 -391 137 -391 q 11 -363 36 -391 q -13 -288 -13 -334 q 45 -138 -13 -198 q 191 -77 104 -77 l 197 -77 l 225 -13 q 240 -8 226 -8 q 255 -12 255 -8 l 229 -100 "},"Ĵ":{"x_min":-118.0625,"x_max":884.796875,"ha":613,"o":"m -54 -4 l -55 -12 q -35 -70 -55 -51 q 13 -88 -15 -88 q 422 505 181 -88 q 441 552 426 516 q 493 663 455 588 q 585 814 530 738 q 682 905 640 890 q 538 916 641 916 q 309 872 436 916 q 161 762 181 827 q 155 758 158 758 q 143 776 143 758 q 145 790 143 779 q 222 908 172 866 q 320 959 272 950 q 438 969 368 969 l 504 969 l 816 968 q 702 872 734 905 q 636 770 670 838 q 570 616 601 701 q 519 466 540 531 q 481 350 498 401 q 434 222 463 298 q 375 87 404 145 q 306 -34 347 29 q 225 -140 266 -98 q 26 -236 131 -236 q -78 -199 -38 -236 q -118 -101 -118 -162 q -102 -40 -118 -72 q -54 -4 -87 -8 m 884 1062 l 884 1061 q 864 1045 884 1057 q 833 1034 844 1034 q 779 1084 813 1034 q 729 1172 745 1134 q 627 1084 683 1127 q 548 1040 570 1040 q 526 1044 526 1040 l 526 1045 q 729 1226 659 1154 q 752 1238 740 1238 q 785 1207 763 1238 q 837 1129 807 1176 q 884 1062 868 1083 "},"È":{"x_min":13.890625,"x_max":858.40625,"ha":815,"o":"m 654 969 l 805 976 q 853 959 848 976 q 858 933 858 941 q 824 810 858 884 q 775 736 790 736 q 761 747 761 736 l 772 830 q 737 898 772 873 q 654 923 702 923 q 581 916 605 923 q 544 887 558 909 q 359 543 443 736 l 722 543 l 723 541 q 704 503 723 531 q 672 475 684 475 l 329 475 q 255 269 291 383 q 219 118 219 155 q 241 64 219 81 q 316 47 263 47 q 797 205 722 47 q 807 209 800 209 q 815 201 815 209 q 812 179 815 193 q 697 26 773 58 q 621 4 657 9 q 530 0 586 0 l 111 0 q 68 65 68 0 q 191 475 68 177 l 115 475 q 104 481 104 475 q 130 519 104 495 q 173 543 156 543 l 220 543 q 405 916 348 850 q 167 861 275 900 q 26 765 59 822 q 19 761 25 761 q 13 768 13 761 q 15 779 13 776 q 208 955 68 923 q 379 969 272 969 l 654 969 m 540 1083 q 457 1123 480 1113 q 434 1136 434 1133 q 462 1159 434 1144 q 501 1175 490 1175 q 518 1172 512 1175 q 591 1119 543 1154 l 670 1059 q 712 1032 702 1036 q 698 1021 712 1027 q 681 1015 684 1015 q 638 1034 677 1015 l 540 1083 "},"{":{"x_min":12.5,"x_max":694.5,"ha":635,"o":"m 406 -109 l 334 -112 q 165 -100 195 -112 q 115 -76 136 -88 q 76 4 76 -52 q 115 175 76 61 q 155 339 155 290 q 127 416 155 388 q 71 450 100 443 q 12 456 43 456 l 26 500 q 157 520 138 508 q 195 548 176 533 q 275 719 245 587 q 295 802 286 770 q 338 871 305 833 q 414 932 370 909 q 480 963 458 954 q 658 988 541 988 l 694 988 l 682 945 q 500 900 561 945 q 455 847 475 880 q 428 786 436 813 q 409 716 420 759 q 387 648 397 673 q 279 526 359 577 q 113 472 198 475 q 231 431 177 470 q 286 336 286 391 q 254 180 286 280 q 222 29 222 80 q 369 -70 222 -70 q 397 -70 379 -70 q 423 -69 416 -69 l 406 -109 "},"X":{"x_min":0,"x_max":1097.3125,"ha":778,"o":"m 1097 965 q 619 518 859 761 q 761 63 701 209 q 793 0 783 11 l 597 0 l 493 388 q 150 0 309 195 l 0 0 q 476 454 280 256 l 383 816 q 316 876 368 876 q 211 822 265 876 q 206 820 209 820 q 197 832 197 820 q 201 848 197 844 q 315 931 248 894 q 430 968 383 968 q 498 947 477 968 q 527 903 519 926 q 551 804 534 880 q 602 581 568 729 q 937 943 780 763 q 1025 966 959 966 q 1063 966 1038 966 q 1097 965 1087 965 "},"ô":{"x_min":48.609375,"x_max":734.78125,"ha":624,"o":"m 718 341 q 726 350 722 350 q 734 329 734 350 q 681 218 734 262 q 581 175 627 175 q 501 201 534 175 q 382 45 451 102 q 205 -11 313 -11 q 92 31 136 -11 q 48 160 48 73 q 88 339 48 247 q 207 498 127 431 q 386 565 287 565 q 551 390 551 565 q 522 250 551 323 q 581 220 543 220 q 718 341 654 220 m 486 427 q 419 501 480 501 q 231 315 323 501 q 181 129 181 212 q 254 41 181 45 q 364 104 313 41 q 450 244 415 168 q 402 345 402 284 q 422 405 402 383 q 477 427 443 427 l 486 427 m 607 697 l 607 695 q 586 680 607 691 q 555 669 566 669 q 502 719 536 669 q 451 807 468 769 q 349 718 405 762 q 270 675 293 675 q 248 679 248 675 l 248 680 q 451 861 381 788 q 474 873 462 873 q 507 842 486 873 q 559 764 529 811 q 607 697 590 718 "},"¼":{"x_min":1.390625,"x_max":1376.5,"ha":1379,"o":"m 1282 448 q 1318 463 1298 463 q 1357 443 1337 463 q 1376 388 1376 423 q 1318 284 1376 330 q 1159 238 1261 238 q 1129 240 1138 238 q 1059 0 1072 62 l 912 0 q 1012 258 932 43 q 930 280 986 265 q 768 315 813 315 q 705 300 723 315 q 686 266 687 284 q 652 216 684 216 q 624 229 636 216 q 612 263 612 241 q 663 348 612 319 l 1182 794 l 1332 794 q 1161 333 1261 632 q 1295 416 1295 344 q 1282 448 1295 438 m 918 963 l 145 -80 q 108 -84 143 -84 q 73 -75 73 -84 l 73 -73 l 845 970 q 884 975 850 975 q 918 965 918 975 l 918 963 m 270 980 l 420 980 q 262 554 359 837 q 148 186 165 272 l 1 186 q 205 727 33 261 l 262 879 l 108 740 l 41 740 l 270 980 m 1180 711 l 770 365 q 906 350 841 361 q 1040 334 970 338 l 1180 711 "},"#":{"x_min":84.734375,"x_max":1040.359375,"ha":1085,"o":"m 275 11 q 240 47 266 11 q 214 93 213 84 q 215 104 215 102 l 277 265 l 86 265 q 84 272 84 265 q 110 317 84 279 q 148 355 136 355 l 312 355 l 391 559 l 184 559 q 183 566 183 559 q 209 611 183 573 q 248 650 234 650 l 426 650 l 500 840 q 501 841 500 841 q 535 804 509 841 q 561 751 561 768 l 561 748 l 523 650 l 741 650 l 815 840 q 816 841 815 841 q 850 804 823 841 q 876 751 876 768 l 876 748 l 837 650 l 1038 650 q 1040 643 1040 650 q 1014 597 1040 636 q 975 559 988 559 l 802 559 l 723 355 l 938 355 q 940 348 940 355 q 914 303 940 341 q 875 265 888 265 l 688 265 l 591 12 l 590 11 q 555 47 581 11 q 529 93 529 84 q 530 104 530 102 l 593 265 l 373 265 l 276 12 l 275 11 m 627 355 l 705 559 l 487 559 l 409 355 l 627 355 "},"Ĳ":{"x_min":5.5625,"x_max":1044.53125,"ha":1045,"o":"m 136 -69 l 134 -77 q 154 -135 134 -116 q 204 -154 175 -154 q 346 -67 275 -154 q 513 211 418 19 q 645 495 608 402 q 720 663 683 588 q 812 813 758 738 q 908 905 866 888 q 736 845 812 884 q 645 762 661 807 q 640 758 644 758 q 627 776 627 758 q 630 790 627 779 q 707 908 657 866 q 804 959 757 950 q 923 969 852 969 l 988 969 l 1044 968 q 909 853 969 943 q 776 554 850 763 q 672 259 732 404 q 584 53 613 113 q 509 -79 554 -6 q 421 -195 463 -151 q 325 -270 379 -240 q 211 -301 270 -301 q 111 -264 151 -301 q 72 -166 72 -227 q 87 -105 72 -137 q 136 -69 102 -73 m 301 969 l 615 969 q 351 513 519 895 q 253 259 308 416 q 198 29 198 101 q 204 0 198 9 l 25 0 q 188 466 63 168 q 404 918 355 863 q 164 870 286 915 q 23 762 43 825 q 18 758 22 758 q 5 776 5 758 q 8 790 5 779 q 84 908 34 866 q 182 959 134 950 q 301 969 230 969 "},"Ê":{"x_min":13.890625,"x_max":858.40625,"ha":815,"o":"m 654 969 l 805 976 q 853 959 848 976 q 858 933 858 941 q 824 810 858 884 q 775 736 790 736 q 761 747 761 736 l 772 830 q 737 898 772 873 q 654 923 702 923 q 581 916 605 923 q 544 887 558 909 q 359 543 443 736 l 722 543 l 723 541 q 704 503 723 531 q 672 475 684 475 l 329 475 q 255 269 291 383 q 219 118 219 155 q 241 64 219 81 q 316 47 263 47 q 797 205 722 47 q 807 209 800 209 q 815 201 815 209 q 812 179 815 193 q 697 26 773 58 q 621 4 657 9 q 530 0 586 0 l 111 0 q 68 65 68 0 q 191 475 68 177 l 115 475 q 104 481 104 475 q 130 519 104 495 q 173 543 156 543 l 220 543 q 405 916 348 850 q 167 861 275 900 q 26 765 59 822 q 19 761 25 761 q 13 768 13 761 q 15 779 13 776 q 208 955 68 923 q 379 969 272 969 l 654 969 m 809 1052 l 809 1051 q 789 1036 809 1047 q 758 1025 769 1025 q 704 1075 738 1025 q 654 1162 670 1125 q 552 1074 608 1118 q 473 1030 495 1030 q 451 1034 451 1030 l 451 1036 q 654 1216 584 1144 q 677 1229 665 1229 q 710 1198 688 1229 q 762 1120 732 1166 q 809 1052 793 1073 "},")":{"x_min":1.390625,"x_max":782,"ha":797,"o":"m 782 773 q 598 308 782 538 q 319 56 479 158 q 1 -72 159 -45 l 12 -34 q 458 263 262 29 q 654 748 654 497 q 523 920 654 920 q 477 918 497 920 l 487 959 q 625 982 545 982 q 743 921 704 982 q 782 773 782 861 "},"Ŀ":{"x_min":-13.890625,"x_max":786.171875,"ha":792,"o":"m 783 179 q 669 26 744 58 q 593 4 629 9 q 502 0 558 0 l 81 0 q 26 77 26 0 q 358 875 26 276 q 384 918 383 915 q 145 870 266 915 q 4 762 23 825 q -1 758 2 758 q -13 776 -13 758 q -2 813 -13 779 q 41 886 9 848 q 113 941 73 923 q 281 969 181 969 l 597 969 q 450 765 540 926 q 275 411 361 604 q 190 137 190 219 q 288 47 190 47 q 769 205 691 47 q 776 209 772 209 q 786 195 786 209 q 783 179 786 193 m 625 448 q 600 419 618 441 q 550 363 556 363 q 501 385 529 363 q 473 425 473 406 q 516 481 473 455 q 605 508 558 508 q 638 477 638 508 q 625 448 638 458 "},"\u0002":{"x_min":0,"x_max":0,"ha":0},"Å":{"x_min":-66.671875,"x_max":1048.6875,"ha":1129,"o":"m 566 969 l 877 969 q 757 916 843 934 q 562 888 670 898 q 420 870 454 877 q 272 693 272 836 q 229 788 229 737 q 566 969 229 969 m 948 969 l 1048 969 q 918 635 984 908 q 852 213 852 362 q 891 68 852 108 q 933 50 908 50 q 986 68 958 50 l 994 55 q 925 7 975 27 q 826 -12 875 -12 q 727 38 754 -12 q 697 176 701 90 q 715 359 697 247 l 397 359 q 72 0 190 140 l -66 0 q 338 391 63 119 q 804 880 693 744 q 845 927 832 913 q 888 954 859 940 q 948 969 916 969 m 805 773 q 458 429 647 625 l 725 429 q 805 773 750 566 "},"ø":{"x_min":48.609375,"x_max":734.78125,"ha":624,"o":"m 718 341 q 726 350 722 350 q 734 329 734 350 q 681 218 734 262 q 581 175 627 175 q 501 201 534 175 q 381 45 451 101 q 201 -11 312 -11 l 198 -11 l 108 -154 q 81 -161 104 -161 q 58 -158 58 -161 l 58 -156 l 154 -4 q 48 158 48 23 q 88 339 48 247 q 207 498 127 431 q 386 565 287 565 q 494 533 452 565 l 570 654 q 597 661 575 661 q 620 658 620 661 l 620 657 l 523 502 q 551 391 551 459 q 522 250 551 323 q 581 220 543 220 q 718 341 654 220 m 231 315 q 181 133 181 212 q 200 66 181 90 l 463 484 q 419 501 450 501 q 231 315 323 501 m 450 244 q 405 316 413 273 l 233 44 q 254 41 247 41 q 364 104 313 41 q 450 244 415 168 "},"â":{"x_min":38.890625,"x_max":770.890625,"ha":657,"o":"m 618 555 l 687 554 l 701 554 q 588 364 655 516 q 522 143 522 212 q 547 106 522 106 q 752 344 627 106 q 762 354 758 354 q 770 328 770 354 q 757 279 770 302 q 470 -8 586 -8 q 395 106 395 -8 q 425 276 395 193 q 131 -4 266 -4 q 38 123 38 -4 q 81 320 38 220 q 202 491 123 420 q 376 561 281 561 q 459 541 420 561 q 511 476 498 520 q 558 531 526 508 q 618 555 590 555 m 502 463 q 437 508 488 508 q 259 381 345 508 q 173 154 173 254 q 206 111 173 111 q 291 156 243 111 q 379 262 340 201 q 502 463 465 398 m 661 709 l 661 708 q 641 693 661 704 q 609 682 620 682 q 556 732 590 682 q 505 819 522 782 q 403 731 459 775 q 325 687 347 687 q 302 691 302 687 l 302 693 q 505 873 436 801 q 528 886 516 886 q 561 854 540 886 q 613 777 583 823 q 661 709 644 730 "},"}":{"x_min":12.5,"x_max":694.5,"ha":795,"o":"m 300 986 l 372 988 q 541 977 511 988 q 591 952 570 965 q 630 872 630 929 q 591 700 630 815 q 551 536 551 586 q 579 460 551 487 q 635 426 607 433 q 694 419 663 419 l 680 376 q 549 355 568 368 q 511 327 530 343 q 431 155 461 287 q 411 73 420 104 q 368 4 401 43 q 290 -56 336 -33 q 225 -87 244 -79 q 157 -104 205 -95 q 76 -113 109 -113 q 31 -113 43 -113 q 12 -112 19 -112 l 26 -69 q 205 -23 145 -69 q 251 29 231 -4 q 278 89 270 62 q 297 159 286 116 q 319 227 309 202 q 426 350 345 298 q 593 404 506 401 q 474 445 527 405 q 420 539 420 484 q 452 695 420 594 q 484 847 484 797 q 337 947 484 947 q 308 946 326 947 q 283 945 290 945 l 300 986 "},"‰":{"x_min":119.453125,"x_max":1216.765625,"ha":1251,"o":"m 1208 202 q 1129 55 1187 118 q 1000 -6 1072 -6 q 895 36 927 -6 q 863 150 863 80 q 926 338 863 251 q 1086 425 988 425 q 1184 381 1152 425 q 1216 270 1216 337 q 1208 202 1216 236 m 801 933 q 683 812 758 869 l 222 0 q 181 -6 219 -6 q 144 -1 144 -6 l 144 0 l 600 798 q 561 793 580 793 q 469 827 504 793 q 470 791 470 816 q 409 603 470 693 q 247 513 347 513 q 151 557 183 513 q 119 669 119 601 q 181 857 119 770 q 341 944 244 944 q 442 897 404 944 q 527 850 480 850 q 620 879 573 850 q 693 951 668 909 q 757 975 707 975 q 807 947 807 975 q 801 933 807 944 m 813 202 q 735 55 793 118 q 605 -6 677 -6 q 501 36 533 -6 q 469 150 469 80 q 531 338 469 251 q 691 425 594 425 q 790 381 758 425 q 822 270 822 337 q 813 202 822 236 m 1022 68 q 1087 102 1055 68 q 1135 186 1119 137 q 1151 276 1151 234 q 1093 362 1151 362 q 1005 295 1045 362 q 965 148 965 229 q 1022 68 965 68 m 281 587 q 342 622 311 587 q 390 706 373 657 q 406 797 406 755 q 348 883 406 883 q 261 816 301 883 q 220 675 220 750 q 236 611 220 634 q 281 587 251 587 m 627 68 q 693 102 661 68 q 741 186 725 137 q 757 276 757 234 q 698 362 757 362 q 611 295 651 362 q 570 148 570 229 q 627 68 570 68 "},"Ä":{"x_min":-66.671875,"x_max":1265.375,"ha":1129,"o":"m 566 969 l 877 969 q 757 916 843 934 q 562 888 670 898 q 420 870 454 877 q 272 693 272 836 q 229 788 229 737 q 566 969 229 969 m 948 969 l 1048 969 q 918 635 984 908 q 852 213 852 362 q 891 68 852 108 q 933 50 908 50 q 986 68 958 50 l 994 55 q 925 7 975 27 q 826 -12 875 -12 q 727 38 754 -12 q 697 176 701 90 q 715 359 697 247 l 397 359 q 72 0 190 140 l -66 0 q 338 391 63 119 q 804 880 693 744 q 845 927 832 913 q 888 954 859 940 q 948 969 916 969 m 805 773 q 458 429 647 625 l 725 429 q 805 773 750 566 m 1257 1123 q 1199 1085 1229 1116 q 1154 1054 1169 1054 q 1125 1077 1125 1054 q 1159 1150 1125 1101 q 1222 1198 1193 1198 q 1251 1177 1237 1198 q 1265 1141 1265 1157 q 1257 1123 1265 1125 m 997 1123 q 939 1085 969 1116 q 894 1054 909 1054 q 865 1077 865 1054 q 899 1150 865 1101 q 962 1198 933 1198 q 991 1177 977 1198 q 1005 1141 1005 1157 q 997 1123 1005 1125 "},"ř":{"x_min":75,"x_max":602.828125,"ha":503,"o":"m 422 558 l 493 556 l 506 556 q 447 466 486 541 q 391 353 409 391 q 349 250 372 315 q 326 145 326 186 q 354 105 326 105 q 404 131 372 106 q 459 182 437 155 q 506 252 480 209 q 550 325 531 294 q 572 356 569 356 q 581 331 581 356 q 568 281 581 305 q 469 130 508 183 q 375 34 430 77 q 276 -9 320 -9 q 197 106 197 -9 q 227 286 197 186 q 318 479 258 386 q 220 440 269 440 q 188 447 205 440 q 82 252 90 252 q 75 275 75 252 q 92 339 75 298 q 129 418 109 380 q 151 459 150 455 q 101 540 101 484 q 118 590 101 568 q 166 612 136 612 q 216 593 197 612 q 213 568 213 584 q 240 509 213 530 q 306 487 268 487 q 323 488 318 487 q 422 558 372 558 m 244 865 q 263 882 244 870 q 295 893 283 893 q 400 755 330 893 q 577 887 540 887 q 602 883 602 887 l 602 882 q 400 701 469 773 q 375 687 387 687 q 342 718 363 687 q 290 797 320 750 q 244 865 261 844 "},"¸":{"x_min":55.5625,"x_max":325.03125,"ha":936,"o":"m 298 -100 q 285 -104 297 -105 q 265 -102 273 -102 q 172 -166 216 -102 q 127 -294 127 -230 q 183 -358 127 -358 q 284 -305 234 -358 q 290 -302 287 -302 q 294 -312 294 -302 q 250 -368 294 -345 q 156 -391 206 -391 q 80 -363 105 -391 q 55 -288 55 -334 q 114 -138 55 -198 q 261 -77 173 -77 l 266 -77 l 294 -13 q 310 -8 295 -8 q 325 -12 325 -8 l 298 -100 "},"a":{"x_min":38.890625,"x_max":770.890625,"ha":657,"o":"m 618 555 l 687 554 l 701 554 q 588 364 655 516 q 522 143 522 212 q 547 106 522 106 q 752 344 627 106 q 762 354 758 354 q 770 328 770 354 q 757 279 770 302 q 470 -8 586 -8 q 395 106 395 -8 q 425 276 395 193 q 131 -4 266 -4 q 38 123 38 -4 q 81 320 38 220 q 202 491 123 420 q 376 561 281 561 q 459 541 420 561 q 511 476 498 520 q 558 531 526 508 q 618 555 590 555 m 502 463 q 437 508 488 508 q 259 381 345 508 q 173 154 173 254 q 206 111 173 111 q 291 156 243 111 q 379 262 340 201 q 502 463 465 398 "},"—":{"x_min":212.515625,"x_max":1739.03125,"ha":1754,"o":"m 277 400 l 1737 400 q 1739 393 1739 400 q 1713 347 1739 386 q 1673 309 1687 309 l 213 309 q 212 316 212 309 q 238 361 212 323 q 277 400 263 400 "},"=":{"x_min":133.34375,"x_max":713.953125,"ha":738,"o":"m 269 590 l 712 590 q 713 583 713 590 q 689 543 713 576 q 652 509 665 509 l 209 509 q 208 516 208 509 q 231 556 208 523 q 269 590 255 590 m 194 330 l 637 330 q 638 323 638 330 q 614 283 638 316 q 577 250 590 250 l 134 250 q 133 256 133 250 q 156 297 133 263 q 194 330 180 330 "},"N":{"x_min":52.78125,"x_max":1191.765625,"ha":889,"o":"m 1191 968 q 1035 734 1136 932 q 856 322 934 537 q 777 25 777 108 q 780 0 777 6 l 693 0 q 664 140 688 80 q 627 231 640 201 q 584 330 615 261 q 530 455 554 400 q 448 741 458 623 q 268 309 356 537 q 179 12 179 81 q 180 0 179 2 l 52 0 q 279 534 131 202 q 458 929 426 866 q 211 879 331 929 q 70 762 91 829 q 65 758 69 758 q 54 776 54 758 q 65 813 54 779 q 107 886 76 848 q 180 941 138 923 q 348 969 248 969 l 583 969 q 563 891 563 937 q 643 602 563 788 q 728 381 715 429 q 745 318 741 333 q 750 281 748 302 q 752 255 751 261 q 1062 969 770 300 q 1088 976 1065 976 q 1148 972 1111 976 q 1191 968 1186 968 "},"˚":{"x_min":472.265625,"x_max":755.609375,"ha":771,"o":"m 748 848 q 684 761 732 797 q 579 725 637 725 q 497 750 522 725 q 472 816 472 776 q 522 928 472 877 q 652 979 573 979 q 729 953 702 979 q 755 888 755 927 q 748 848 755 872 m 670 945 l 657 947 q 579 904 612 947 q 545 818 545 862 q 598 763 545 763 q 678 806 644 763 q 712 894 712 848 q 670 945 712 940 "},"ú":{"x_min":37.5,"x_max":738.953125,"ha":624,"o":"m 577 559 l 644 558 q 670 559 665 558 q 559 375 632 533 q 486 148 486 218 q 513 106 486 106 q 563 130 531 106 q 616 182 594 154 q 664 252 638 211 q 709 325 690 294 q 730 355 727 355 q 738 329 738 355 q 723 279 738 302 q 436 -8 551 -8 q 358 106 358 -8 q 363 176 358 143 q 115 -8 233 -8 q 59 20 80 -8 q 37 106 37 50 q 77 295 37 163 q 176 511 118 426 q 206 536 190 531 q 266 541 222 541 l 333 541 q 258 413 298 494 q 166 134 166 223 q 204 81 166 81 q 295 155 243 81 q 409 346 348 229 q 479 479 469 463 q 577 559 530 559 m 637 801 q 490 731 581 777 q 394 684 398 684 q 377 691 390 684 q 363 701 363 698 q 454 766 376 708 q 558 841 533 823 q 575 844 563 844 q 613 829 586 844 q 640 805 640 813 q 637 801 640 802 "},"2":{"x_min":41.671875,"x_max":836.171875,"ha":789,"o":"m 833 759 q 536 438 804 576 q 390 363 443 391 q 257 280 337 336 q 156 186 177 225 l 169 186 q 295 161 222 186 q 463 122 368 137 q 597 106 558 106 q 736 208 734 106 l 773 208 q 711 43 770 111 q 548 -23 651 -23 q 377 27 445 -23 q 320 70 362 43 q 262 105 277 98 q 195 126 222 126 q 154 104 168 126 q 138 54 140 81 q 124 5 137 27 q 88 -16 111 -16 q 41 36 41 -16 q 191 301 41 172 q 336 416 261 361 q 630 682 543 569 q 682 812 682 748 q 646 912 682 876 q 538 948 611 948 q 395 877 465 948 q 326 727 326 805 q 331 688 326 705 q 271 666 300 666 q 225 687 243 666 q 208 745 208 708 q 247 863 208 812 q 344 941 286 913 q 572 994 461 994 q 698 978 643 994 q 795 916 754 962 q 836 798 836 870 q 833 759 836 787 "},"ü":{"x_min":37.5,"x_max":738.953125,"ha":624,"o":"m 577 559 l 644 558 q 670 559 665 558 q 559 375 632 533 q 486 148 486 218 q 513 106 486 106 q 563 130 531 106 q 616 182 594 154 q 664 252 638 211 q 709 325 690 294 q 730 355 727 355 q 738 329 738 355 q 723 279 738 302 q 436 -8 551 -8 q 358 106 358 -8 q 363 176 358 143 q 115 -8 233 -8 q 59 20 80 -8 q 37 106 37 50 q 77 295 37 163 q 176 511 118 426 q 206 536 190 531 q 266 541 222 541 l 333 541 q 258 413 298 494 q 166 134 166 223 q 204 81 166 81 q 295 155 243 81 q 409 346 348 229 q 479 479 469 463 q 577 559 530 559 m 659 769 q 602 731 632 762 q 556 700 572 700 q 527 723 527 700 q 561 795 527 747 q 625 844 595 844 q 654 823 640 844 q 668 786 668 802 q 659 769 668 770 m 400 769 q 342 731 372 762 q 297 700 312 700 q 268 723 268 700 q 302 795 268 747 q 365 844 336 844 q 394 823 380 844 q 408 786 408 802 q 400 769 408 770 "},"¯":{"x_min":388.921875,"x_max":773.671875,"ha":714,"o":"m 437 951 l 772 951 l 773 950 q 754 918 773 941 q 725 894 734 894 l 390 894 q 388 898 388 894 q 408 927 388 902 q 437 951 427 951 "},"Z":{"x_min":0,"x_max":1111.203125,"ha":949,"o":"m 1111 969 q 268 177 776 677 q 381 143 306 158 q 679 100 570 100 q 852 200 852 100 q 833 240 852 226 q 838 248 833 243 q 845 254 843 254 q 914 225 884 252 q 944 158 944 197 q 875 36 944 91 q 707 -18 807 -18 q 513 16 608 -18 q 345 86 418 51 q 242 122 273 122 q 148 53 211 122 q 50 -15 86 -15 q 13 0 27 -15 q 0 40 0 16 q 43 108 0 81 q 498 484 218 216 q 900 872 779 751 q 776 833 850 850 q 657 816 702 816 q 520 825 612 816 q 395 834 429 834 q 320 799 361 834 q 275 716 279 763 q 261 708 275 708 q 251 736 251 708 q 295 859 251 793 q 379 949 338 925 q 486 973 420 973 q 663 948 552 973 q 847 923 775 923 q 975 949 920 923 q 1063 975 1029 975 q 1111 969 1098 975 "},"u":{"x_min":37.5,"x_max":738.953125,"ha":624,"o":"m 577 559 l 644 558 q 670 559 665 558 q 559 375 632 533 q 486 148 486 218 q 513 106 486 106 q 563 130 531 106 q 616 182 594 154 q 664 252 638 211 q 709 325 690 294 q 730 355 727 355 q 738 329 738 355 q 723 279 738 302 q 436 -8 551 -8 q 358 106 358 -8 q 363 176 358 143 q 115 -8 233 -8 q 59 20 80 -8 q 37 106 37 50 q 77 295 37 163 q 176 511 118 426 q 206 536 190 531 q 266 541 222 541 l 333 541 q 258 413 298 494 q 166 134 166 223 q 204 81 166 81 q 295 155 243 81 q 409 346 348 229 q 479 479 469 463 q 577 559 530 559 "},"˜":{"x_min":377.8125,"x_max":775.0625,"ha":714,"o":"m 772 948 q 661 848 713 848 q 570 873 629 848 q 478 898 512 898 q 419 877 444 898 q 393 857 394 857 q 377 870 377 857 q 413 923 377 883 q 484 963 450 963 q 581 938 518 963 q 674 912 645 912 q 718 927 702 912 q 744 955 734 941 q 762 969 754 969 q 775 958 775 969 q 772 948 775 954 "},"Ó":{"x_min":4.171875,"x_max":1054.25,"ha":1060,"o":"m 997 420 q 735 84 905 212 q 348 -44 565 -44 q 4 259 4 -44 q 61 529 4 397 q 213 761 119 662 q 437 922 308 861 q 701 983 566 983 q 966 896 877 983 q 1054 679 1054 809 q 997 420 1054 550 m 938 693 q 736 919 938 919 q 454 818 588 919 q 243 563 320 716 q 166 258 166 411 q 215 80 166 148 q 370 12 263 12 q 583 76 476 12 q 766 239 690 140 q 891 460 843 338 q 938 693 938 581 m 945 1159 q 798 1089 890 1136 q 702 1043 707 1043 q 685 1050 698 1043 q 672 1059 672 1057 q 763 1124 684 1066 q 866 1200 841 1182 q 883 1202 872 1202 q 921 1187 894 1202 q 948 1163 948 1172 q 945 1159 948 1161 "},"k":{"x_min":-40.28125,"x_max":684.78125,"ha":571,"o":"m 669 276 q 570 127 620 194 q 359 -11 463 -11 q 274 45 302 -11 q 245 172 245 102 q 287 311 245 311 q 408 341 352 311 q 463 419 463 370 q 419 458 463 458 q 206 250 323 458 q 160 153 195 229 q 97 38 125 77 q 44 0 70 0 l -40 0 q 86 325 2 80 q 211 654 170 570 q 228 690 212 657 q 250 736 244 723 q 275 783 256 748 q 304 834 293 818 q 334 882 315 851 q 369 930 354 913 q 405 970 384 947 q 444 1004 426 993 q 530 1032 491 1032 q 607 962 607 1032 q 489 704 607 865 q 225 401 372 544 l 200 331 q 351 482 266 418 q 506 547 436 547 q 570 527 547 547 q 593 475 593 508 q 525 352 593 398 q 370 291 458 305 q 411 115 383 147 q 445 100 425 100 q 502 125 466 100 q 561 179 538 150 q 610 251 584 209 q 654 323 636 293 q 676 354 673 354 q 684 327 684 354 q 669 276 684 300 m 533 995 q 261 495 455 995 q 511 847 438 704 q 552 970 552 922 q 533 995 552 995 "},"ˇ":{"x_min":340.3125,"x_max":698.671875,"ha":738,"o":"m 391 869 q 495 732 425 869 q 673 863 636 863 q 698 859 698 863 l 698 858 q 495 677 565 750 q 471 663 483 663 q 438 695 459 663 q 386 773 416 726 q 340 841 356 820 q 359 858 340 847 q 391 869 379 869 "},"Ù":{"x_min":13.890625,"x_max":1197.3125,"ha":1038,"o":"m 386 875 q 412 918 411 915 q 172 870 294 915 q 31 762 51 825 q 26 758 30 758 q 13 776 13 758 q 25 813 13 779 q 69 886 37 848 q 141 941 101 923 q 309 969 209 969 l 625 969 q 467 744 561 920 q 319 433 373 568 q 243 167 243 256 q 313 77 243 77 q 468 163 373 77 q 654 372 562 248 q 908 754 834 618 q 1022 930 982 891 q 1111 969 1062 969 l 1197 969 q 1007 669 1132 919 q 819 126 819 291 q 868 50 819 50 q 923 68 891 50 l 925 68 q 929 59 929 68 q 859 11 929 33 q 747 -11 790 -11 q 658 91 658 -11 q 694 256 658 143 q 786 490 730 369 q 477 91 579 181 q 269 -9 365 -9 q 109 144 109 -9 q 193 468 109 258 q 386 875 277 679 m 788 1105 q 706 1145 729 1134 q 683 1157 683 1155 q 711 1180 683 1165 q 750 1195 738 1195 q 766 1193 761 1195 q 838 1138 791 1175 l 919 1080 q 961 1052 951 1057 q 947 1042 961 1048 q 929 1036 933 1036 q 887 1055 926 1036 l 788 1105 "},"Ÿ":{"x_min":33.34375,"x_max":927.859375,"ha":811,"o":"m 766 1109 q 709 1071 738 1102 q 663 1040 679 1040 q 634 1063 634 1040 q 668 1136 634 1087 q 732 1184 702 1184 q 761 1163 747 1184 q 775 1127 775 1143 q 766 1109 775 1111 m 506 1109 q 449 1071 479 1102 q 404 1040 419 1040 q 375 1063 375 1040 q 409 1136 375 1087 q 472 1184 443 1184 q 501 1163 487 1184 q 515 1127 515 1143 q 506 1109 515 1111 m 927 969 q 602 652 769 857 q 442 402 513 544 q 345 141 370 259 q 320 15 320 23 q 323 0 320 8 l 154 0 q 209 172 159 23 q 259 381 259 320 q 224 556 259 441 q 147 775 188 670 q 81 915 106 879 q 33 951 69 930 q 43 963 33 957 q 65 969 52 969 l 213 969 q 251 961 241 969 q 286 875 261 952 q 397 468 311 797 q 734 941 630 801 q 850 970 757 970 q 891 970 865 970 q 927 969 918 969 "},"€":{"x_min":22.21875,"x_max":922.296875,"ha":897,"o":"m 723 845 q 875 811 829 845 q 922 725 922 776 q 887 636 922 673 q 809 600 852 600 q 745 648 745 600 q 748 666 745 652 q 799 688 777 666 q 820 738 820 711 q 791 782 820 766 q 726 798 762 798 q 521 716 618 798 q 368 525 425 634 l 680 525 q 683 518 683 525 q 670 493 683 511 q 644 475 657 475 l 344 475 l 331 445 q 308 370 318 413 l 604 370 q 607 363 607 370 q 593 338 607 356 q 568 320 580 320 l 297 320 q 291 251 291 288 q 334 108 291 162 q 464 54 377 54 q 661 104 551 54 q 827 222 772 155 q 838 230 836 230 q 841 222 841 230 q 823 163 841 184 q 631 24 748 69 q 384 -20 513 -20 q 186 45 254 -20 q 118 225 118 111 q 129 320 118 268 l 30 320 q 22 331 22 320 q 29 356 22 341 q 43 370 37 370 l 143 370 q 184 475 154 412 l 106 475 q 98 485 98 475 q 106 510 98 495 q 119 525 113 525 l 212 525 l 225 543 q 447 759 315 673 q 723 845 580 845 "},"¢":{"x_min":68.0625,"x_max":645.890625,"ha":668,"o":"m 636 661 q 577 605 616 605 q 546 618 559 605 q 533 647 533 632 q 550 691 533 663 q 568 736 568 718 q 525 777 568 770 l 302 201 q 437 225 362 201 q 572 320 483 240 q 605 347 600 347 q 611 325 611 347 q 590 273 611 302 q 445 160 534 197 q 272 123 356 123 l 194 -80 q 163 -84 193 -84 q 134 -75 134 -84 l 134 -73 l 212 129 q 211 129 211 129 q 209 130 211 130 q 102 197 137 145 q 68 341 68 248 q 127 550 68 434 q 284 743 187 665 q 481 830 381 822 l 536 970 q 568 975 538 975 q 597 965 597 975 l 597 963 l 544 826 q 618 790 591 818 q 645 726 645 762 q 636 661 645 690 m 245 215 l 459 772 q 270 598 351 734 q 190 331 190 462 q 245 215 190 244 "},"ß":{"x_min":-455.59375,"x_max":872.296875,"ha":756,"o":"m 857 280 q 675 50 765 123 q 441 -23 584 -23 q 317 5 368 -23 q 266 88 266 34 q 286 150 266 122 q 339 179 305 179 q 383 154 373 179 q 356 93 356 127 q 434 23 356 23 q 514 55 480 23 q 548 121 548 87 q 534 184 548 155 q 475 257 519 213 q 399 343 430 301 q 368 439 368 386 q 402 531 368 493 q 487 596 437 570 q 588 647 537 622 q 673 716 638 673 q 708 813 708 758 q 677 894 708 868 q 601 920 645 920 q 254 431 433 920 q 246 411 250 422 q 220 339 243 401 q 187 252 197 277 q 156 172 177 227 q 120 84 134 116 q 87 5 106 51 q 3 -156 56 -65 q -116 -301 -50 -248 q -277 -354 -183 -354 q -413 -319 -372 -354 q -455 -240 -455 -284 q -432 -169 -455 -197 q -383 -141 -409 -141 q -329 -180 -329 -141 q -347 -217 -329 -188 q -366 -265 -366 -245 q -316 -309 -366 -309 q -256 -291 -294 -309 q -175 -222 -219 -273 q -98 -118 -130 -172 q -30 19 -66 -63 q 26 161 5 102 q 78 311 47 219 q 129 458 109 404 q 162 546 150 512 q 204 647 175 580 q 257 750 234 713 q 320 836 280 787 q 398 911 359 886 q 607 976 495 976 q 742 936 679 976 q 805 822 805 895 q 772 732 805 770 q 693 668 740 693 q 598 618 645 643 q 518 558 551 594 q 486 481 486 522 q 506 413 486 441 q 555 363 526 384 q 613 319 584 341 q 683 186 683 263 q 663 112 683 147 q 615 56 643 77 q 709 128 662 76 q 786 231 757 180 q 837 321 815 281 q 866 361 859 361 q 872 333 872 361 q 857 280 872 305 "},"é":{"x_min":47.21875,"x_max":634.765625,"ha":497,"o":"m 605 361 q 613 334 613 361 q 591 269 613 306 q 547 198 569 231 q 490 120 526 165 q 419 50 454 76 q 243 -13 331 -13 q 101 31 155 -13 q 47 169 47 76 q 151 431 47 311 q 394 552 255 552 q 494 520 456 552 q 531 441 531 487 q 458 316 531 363 q 284 269 384 269 q 198 284 226 269 q 172 159 172 213 q 270 43 172 43 q 391 88 329 43 q 496 189 452 133 q 595 351 540 245 q 605 361 601 361 m 458 470 q 419 511 458 511 q 298 444 365 511 q 231 336 231 377 q 284 308 231 308 q 395 359 337 308 q 458 470 452 411 m 632 793 q 484 722 576 769 q 388 676 393 676 q 371 683 384 676 q 358 693 358 690 q 449 757 370 700 q 552 833 527 815 q 569 836 558 836 q 607 820 580 836 q 634 797 634 805 q 632 793 634 794 "},"s":{"x_min":34.71875,"x_max":640.328125,"ha":525,"o":"m 626 281 q 437 40 522 108 q 218 -27 352 -27 q 87 2 140 -27 q 34 90 34 31 q 54 151 34 123 q 107 179 73 179 q 151 154 141 179 q 125 93 125 127 q 202 23 125 23 q 282 55 248 23 q 316 125 316 87 q 300 193 316 163 q 259 244 283 222 q 212 288 236 266 q 155 413 155 343 q 209 531 155 483 q 355 579 262 579 q 454 558 413 579 q 494 493 494 537 q 468 418 494 450 q 396 386 441 386 q 351 427 351 386 q 383 456 351 437 q 415 497 415 476 q 397 528 415 518 q 348 538 380 538 q 286 516 316 538 q 256 458 256 494 q 287 390 256 422 q 354 336 318 358 q 420 274 390 313 q 451 190 451 234 q 431 112 451 147 q 383 56 411 77 q 548 223 461 90 q 577 269 556 234 q 632 356 626 356 q 640 331 640 356 q 626 281 640 305 "},"B":{"x_min":-41.671875,"x_max":852.84375,"ha":806,"o":"m 852 761 q 666 538 837 612 q 584 513 626 522 q 801 308 801 473 q 652 72 801 168 q 281 -23 502 -23 q 101 10 173 -23 q 29 123 29 44 q 131 462 29 220 q 322 875 234 704 q 343 913 336 902 l 293 907 q 93 855 184 891 q -29 765 2 819 q -36 761 -30 761 q -41 768 -41 761 q -40 779 -41 776 q 152 955 12 923 q 323 969 216 969 l 597 969 q 788 915 723 969 q 852 779 852 861 l 852 761 m 708 797 q 515 927 695 919 q 343 609 450 843 q 206 272 236 376 q 177 115 177 169 q 208 46 177 62 q 309 30 238 30 q 540 102 441 30 q 638 315 638 173 q 604 434 638 384 q 505 493 570 484 q 338 469 419 469 q 315 479 315 469 q 358 522 315 511 q 440 534 401 534 q 516 529 479 534 q 657 629 607 556 q 708 779 708 701 l 708 797 "},"…":{"x_min":155.5625,"x_max":847.296875,"ha":900,"o":"m 308 68 q 263 36 293 65 q 223 -11 233 6 q 155 45 155 11 q 185 94 155 70 q 254 118 215 118 q 311 83 311 118 q 308 68 311 79 m 844 68 q 799 36 829 65 q 759 -11 769 6 q 691 45 691 11 q 721 94 691 70 q 790 118 751 118 q 847 83 847 118 q 844 68 847 79 m 576 68 q 531 36 561 65 q 491 -11 501 6 q 423 45 423 11 q 453 94 423 70 q 522 118 483 118 q 579 83 579 118 q 576 68 579 79 "},"?":{"x_min":118.0625,"x_max":769.5,"ha":765,"o":"m 293 326 l 294 306 q 277 278 294 290 q 241 266 259 266 q 209 304 209 266 q 300 447 209 379 l 333 469 q 580 679 513 584 q 611 772 611 723 q 578 855 611 820 q 491 890 545 890 q 388 855 452 890 q 333 801 356 837 q 309 729 309 765 q 319 675 309 694 q 274 663 300 663 q 225 688 248 663 q 202 755 202 713 q 258 861 202 818 q 508 937 355 937 q 769 772 769 937 q 709 627 769 676 q 547 537 648 579 q 390 459 443 491 q 293 326 293 397 m 270 68 q 225 36 255 65 q 186 -11 195 6 q 118 45 118 11 q 147 94 118 70 q 216 118 177 118 q 273 83 273 118 q 270 68 273 79 "},"H":{"x_min":61.109375,"x_max":1190.375,"ha":945,"o":"m 1101 969 l 1190 969 q 1016 691 1120 915 q 829 131 829 293 q 880 50 829 50 q 934 68 902 50 l 936 68 q 940 59 940 68 q 870 10 940 33 q 757 -12 800 -12 q 672 77 672 -12 q 784 475 672 195 l 391 475 q 300 232 345 368 q 254 30 254 97 q 259 0 254 9 l 80 0 q 244 466 119 168 q 459 918 411 863 q 220 870 341 915 q 79 762 98 825 q 73 758 77 758 q 61 776 61 758 q 63 790 61 779 q 140 908 90 866 q 238 959 190 950 q 356 969 286 969 l 670 969 q 419 543 576 897 l 812 543 q 997 927 943 848 q 1033 956 1007 943 q 1101 969 1059 969 "},"î":{"x_min":34.71875,"x_max":500.046875,"ha":301,"o":"m 258 555 l 327 554 l 341 554 q 282 463 319 537 q 227 352 245 390 q 186 251 209 315 q 163 147 163 187 q 190 106 163 106 q 240 131 208 106 q 294 182 273 155 q 341 251 315 209 q 385 323 366 293 q 406 354 404 354 q 415 328 415 354 q 401 279 415 302 q 307 135 350 193 q 211 34 265 77 q 112 -8 156 -8 q 34 100 34 -8 q 150 472 34 268 q 258 555 198 555 m 500 707 l 500 705 q 479 690 500 701 q 448 679 459 679 q 395 729 429 679 q 344 816 361 779 q 242 728 298 772 q 163 684 186 684 q 141 688 141 684 l 141 690 q 344 870 275 798 q 367 883 355 883 q 400 852 379 883 q 452 774 422 820 q 500 707 483 727 "},"c":{"x_min":47.21875,"x_max":611.15625,"ha":497,"o":"m 602 355 q 611 329 611 355 q 588 263 611 302 q 552 204 565 225 q 506 140 538 184 q 451 76 475 95 q 391 30 427 56 q 232 -13 330 -13 q 90 35 134 -13 q 47 163 47 84 q 150 431 47 309 q 394 552 254 552 q 494 520 456 552 q 531 442 531 487 q 506 363 531 397 q 450 330 481 330 q 387 381 387 330 q 422 413 387 398 q 447 434 436 419 q 458 475 458 450 q 419 511 458 511 q 254 390 336 511 q 172 156 172 269 q 270 43 172 43 q 538 255 408 43 q 582 326 565 297 q 602 355 600 355 "},"¶":{"x_min":59.734375,"x_max":932.015625,"ha":775,"o":"m 429 969 l 932 969 q 816 818 883 932 q 686 575 750 705 q 557 261 622 444 q 493 2 493 79 q 531 -87 493 -73 l 433 -87 q 376 -11 376 -87 q 438 238 376 65 q 616 652 501 411 q 777 941 730 894 l 704 941 q 501 608 625 854 q 380 324 454 511 q 284 54 306 137 q 262 -93 262 -27 q 301 -173 262 -159 l 222 -173 q 165 -99 165 -173 q 207 99 165 -25 q 351 469 250 223 q 306 468 336 468 q 122 524 184 468 q 59 665 59 580 q 161 875 59 780 q 429 969 263 969 m 598 941 l 505 941 q 277 867 355 941 q 198 694 198 793 q 244 563 198 618 q 368 509 290 509 q 598 941 547 901 "},"•":{"x_min":112.515625,"x_max":641.71875,"ha":710,"o":"m 177 497 q 395 604 265 604 q 570 529 500 604 q 641 347 641 455 q 555 153 641 238 q 361 68 469 68 q 183 142 254 68 q 112 316 112 216 q 177 497 112 415 "},"¥":{"x_min":30.5625,"x_max":1009.796875,"ha":910,"o":"m 1009 969 q 568 475 750 788 l 690 475 q 691 468 691 475 q 667 427 691 461 q 630 394 643 394 l 525 394 q 462 254 490 327 l 629 254 q 630 247 630 254 q 606 206 630 240 q 569 173 581 173 l 436 173 q 409 43 409 76 q 415 0 409 9 l 236 0 q 287 173 251 68 l 126 173 q 125 180 125 173 q 148 220 125 187 q 186 254 172 254 l 315 254 q 340 380 340 329 l 340 394 l 187 394 q 186 401 186 394 q 209 441 186 408 q 247 475 233 475 l 326 475 q 212 809 297 602 q 144 873 186 873 q 41 822 102 873 l 38 820 q 30 831 30 820 q 33 844 30 841 q 147 929 79 893 q 265 966 216 966 q 333 940 315 966 q 479 468 372 883 q 634 688 508 508 q 816 941 761 869 q 930 970 838 970 q 972 970 945 970 q 1009 969 1000 969 "},"(":{"x_min":69.453125,"x_max":850.0625,"ha":861,"o":"m 850 980 l 838 943 q 528 782 676 902 q 288 493 380 661 q 195 156 195 326 q 327 -12 195 -12 q 373 -9 351 -12 l 363 -51 q 226 -73 305 -73 q 108 -13 147 -73 q 69 134 69 45 q 138 413 69 269 q 316 674 206 558 q 568 873 426 790 q 850 980 711 957 "},"U":{"x_min":55.5625,"x_max":1238.984375,"ha":986,"o":"m 427 875 q 454 918 452 915 q 214 870 336 915 q 73 762 93 825 q 68 758 72 758 q 55 776 55 758 q 67 813 55 779 q 111 886 79 848 q 183 941 143 923 q 351 969 251 969 l 666 969 q 509 744 602 920 q 361 433 415 568 q 284 167 284 256 q 355 77 284 77 q 509 163 415 77 q 695 372 604 248 q 950 754 876 618 q 1063 930 1023 891 q 1152 969 1104 969 l 1238 969 q 1048 669 1173 919 q 861 126 861 291 q 909 50 861 50 q 965 68 933 50 l 966 68 q 970 59 970 68 q 901 11 970 33 q 788 -11 832 -11 q 700 91 700 -11 q 736 256 700 143 q 827 490 772 369 q 519 91 620 181 q 311 -9 406 -9 q 151 144 151 -9 q 235 468 151 258 q 427 875 319 679 "},"Ñ":{"x_min":52.78125,"x_max":1191.765625,"ha":976,"o":"m 1191 968 q 1035 734 1136 932 q 856 322 934 537 q 777 25 777 108 q 780 0 777 6 l 693 0 q 664 140 688 80 q 627 231 640 201 q 584 330 615 261 q 530 455 554 400 q 448 741 458 623 q 268 309 356 537 q 179 12 179 81 q 180 0 179 2 l 52 0 q 279 534 131 202 q 458 929 426 866 q 211 879 331 929 q 70 762 91 829 q 65 758 69 758 q 54 776 54 758 q 65 813 54 779 q 107 886 76 848 q 180 941 138 923 q 348 969 248 969 l 583 969 q 563 891 563 937 q 643 602 563 788 q 728 381 715 429 q 745 318 741 333 q 750 281 748 302 q 752 255 751 261 q 1062 969 770 300 q 1088 976 1065 976 q 1148 972 1111 976 q 1191 968 1186 968 m 1050 1226 q 938 1126 991 1126 q 848 1151 907 1126 q 756 1176 790 1176 q 697 1155 722 1176 q 670 1134 672 1134 q 655 1148 655 1134 q 691 1201 655 1161 q 761 1241 727 1241 q 859 1216 795 1241 q 952 1190 923 1190 q 996 1204 980 1190 q 1022 1233 1012 1219 q 1040 1247 1032 1247 q 1052 1236 1052 1247 q 1050 1226 1052 1232 "},"F":{"x_min":13.890625,"x_max":858.40625,"ha":528,"o":"m 654 969 l 805 976 q 853 959 848 976 q 858 933 858 941 q 824 810 858 884 q 775 736 790 736 q 761 747 761 736 l 772 830 q 732 897 772 872 q 644 923 693 923 q 572 916 595 923 q 534 887 550 909 q 362 543 469 794 l 670 543 l 672 541 q 652 503 672 531 q 620 475 633 475 l 333 475 q 198 30 198 147 q 204 0 198 9 l 25 0 q 191 475 62 158 l 115 475 q 104 481 104 475 q 130 519 104 495 q 173 543 156 543 l 220 543 q 402 916 338 822 q 26 765 88 872 q 19 761 25 761 q 13 768 13 761 q 15 779 13 776 q 208 955 68 923 q 379 969 272 969 l 654 969 "},"­":{"x_min":212.515625,"x_max":666.71875,"ha":681,"o":"m 277 400 l 665 400 q 666 393 666 400 q 641 347 666 386 q 601 309 615 309 l 213 309 q 212 316 212 309 q 238 361 212 323 q 277 400 265 400 "},"ĵ":{"x_min":-413.921875,"x_max":479.203125,"ha":299,"o":"m 286 541 l 341 541 q 293 488 311 523 q 265 434 275 452 q 240 375 255 415 q 216 313 240 375 q 169 183 190 244 q 140 101 148 122 q 113 31 133 80 q 79 -43 93 -16 q 40 -113 65 -69 q -6 -183 15 -158 q -61 -239 -29 -208 q -127 -287 -94 -270 q -273 -327 -205 -327 q -413 -241 -413 -327 q -392 -175 -413 -206 q -334 -144 -370 -144 q -284 -173 -297 -144 q -306 -202 -298 -181 q -313 -242 -313 -223 q -299 -274 -313 -261 q -259 -287 -284 -287 q -50 -63 -143 -286 q 36 175 -16 15 q 170 508 136 470 q 286 541 204 541 m 479 701 l 479 700 q 459 684 479 695 q 427 673 438 673 q 374 723 408 673 q 323 811 340 773 q 221 722 277 766 q 143 679 165 679 q 120 683 120 679 l 120 684 q 323 865 254 793 q 346 877 334 877 q 379 846 358 877 q 431 768 401 815 q 479 701 462 722 "},":":{"x_min":155.5625,"x_max":455.59375,"ha":394,"o":"m 308 68 q 263 36 293 65 q 223 -11 233 6 q 155 45 155 11 q 185 94 155 70 q 254 118 215 118 q 311 83 311 118 q 308 68 311 79 m 452 491 q 407 459 437 488 q 368 412 377 430 q 300 469 300 434 q 329 518 300 494 q 398 541 359 541 q 455 506 455 541 q 452 491 455 502 "},"Ĩ":{"x_min":5.5625,"x_max":727.84375,"ha":567,"o":"m 301 969 l 615 969 q 351 513 519 895 q 253 259 308 416 q 198 29 198 101 q 204 0 198 9 l 25 0 q 188 466 63 168 q 404 918 355 863 q 164 870 286 915 q 23 762 43 825 q 18 758 22 758 q 5 776 5 758 q 8 790 5 779 q 84 908 34 866 q 182 959 134 950 q 301 969 230 969 m 725 1150 q 613 1050 666 1050 q 523 1075 581 1050 q 431 1100 465 1100 q 372 1079 397 1100 q 345 1058 347 1058 q 330 1071 330 1058 q 366 1125 330 1084 q 436 1165 402 1165 q 534 1139 470 1165 q 627 1113 598 1113 q 671 1127 655 1113 q 697 1156 687 1141 q 715 1170 707 1170 q 727 1159 727 1170 q 725 1150 727 1155 "},"Û":{"x_min":13.890625,"x_max":1197.3125,"ha":1038,"o":"m 386 875 q 412 918 411 915 q 172 870 294 915 q 31 762 51 825 q 26 758 30 758 q 13 776 13 758 q 25 813 13 779 q 69 886 37 848 q 141 941 101 923 q 309 969 209 969 l 625 969 q 467 744 561 920 q 319 433 373 568 q 243 167 243 256 q 313 77 243 77 q 468 163 373 77 q 654 372 562 248 q 908 754 834 618 q 1022 930 982 891 q 1111 969 1062 969 l 1197 969 q 1007 669 1132 919 q 819 126 819 291 q 868 50 819 50 q 923 68 891 50 l 925 68 q 929 59 929 68 q 859 11 929 33 q 747 -11 790 -11 q 658 91 658 -11 q 694 256 658 143 q 786 490 730 369 q 477 91 579 181 q 269 -9 365 -9 q 109 144 109 -9 q 193 468 109 258 q 386 875 277 679 m 1036 1047 l 1036 1045 q 1016 1030 1036 1041 q 984 1019 995 1019 q 931 1069 965 1019 q 880 1157 897 1119 q 778 1068 834 1112 q 700 1025 722 1025 q 677 1029 677 1025 l 677 1030 q 880 1211 811 1138 q 903 1223 891 1223 q 936 1192 915 1223 q 988 1114 958 1161 q 1036 1047 1019 1068 "},"*":{"x_min":11.109375,"x_max":863.953125,"ha":906,"o":"m 830 813 l 863 711 l 490 573 l 488 569 l 780 436 l 684 331 l 455 530 l 445 526 l 386 193 l 259 193 l 401 526 l 395 530 l 44 331 l 11 434 l 384 568 l 386 573 l 94 709 l 190 812 l 420 612 l 429 615 l 490 952 l 615 952 l 473 615 l 479 612 l 830 813 "},"†":{"x_min":1.390625,"x_max":511.15625,"ha":532,"o":"m 304 715 l 509 715 q 511 708 511 715 q 485 663 511 701 q 445 625 459 625 l 291 625 l 191 -80 q 165 -84 191 -84 q 118 -81 140 -84 q 97 -73 95 -77 l 195 625 l 2 625 q 1 631 1 625 q 27 677 1 638 q 66 715 54 715 l 209 715 l 245 970 q 270 975 245 975 q 317 971 294 975 q 338 963 340 968 l 304 715 "},"°":{"x_min":373.640625,"x_max":738.953125,"ha":1157,"o":"m 730 816 q 647 703 708 750 q 512 657 586 657 q 406 689 438 657 q 373 773 373 722 q 440 918 373 852 q 608 984 506 984 q 706 952 673 984 q 738 869 738 919 q 730 816 738 844 m 679 869 q 604 943 679 943 q 495 886 541 943 q 450 769 450 829 q 522 695 450 695 q 631 753 584 695 q 679 869 679 811 "},"V":{"x_min":55.5625,"x_max":930.625,"ha":625,"o":"m 805 969 l 930 969 q 665 558 884 894 q 415 174 445 222 q 370 104 384 126 q 350 72 356 83 q 331 45 344 62 q 308 20 318 29 q 252 0 281 0 l 163 0 q 190 97 186 43 q 196 213 194 152 q 202 346 198 275 q 205 493 205 418 q 122 861 205 861 q 62 812 93 861 l 61 811 q 55 819 55 811 l 55 820 q 132 929 72 872 q 236 987 193 987 q 326 877 304 987 q 348 556 348 766 q 331 154 348 345 q 597 580 441 308 q 805 969 754 852 "},"Ŗ":{"x_min":5.5625,"x_max":895.90625,"ha":925,"o":"m 831 916 q 895 780 895 862 q 847 636 895 698 q 581 488 761 522 l 537 480 q 829 2 607 238 q 765 -1 808 -1 l 658 2 q 541 111 602 2 q 443 334 479 220 q 406 484 406 447 q 426 506 406 505 q 762 762 752 547 q 717 880 762 838 q 569 927 672 922 q 329 461 461 782 q 198 30 198 134 q 204 0 198 9 l 25 0 q 188 466 63 168 q 404 918 355 863 q 164 870 286 915 q 23 762 43 825 q 18 758 22 758 q 5 776 5 758 q 8 790 5 779 q 84 908 34 866 q 182 959 134 950 q 301 969 230 969 l 638 969 q 831 916 766 969 "},"å":{"x_min":38.890625,"x_max":770.890625,"ha":657,"o":"m 618 555 l 687 554 l 701 554 q 588 364 655 516 q 522 143 522 212 q 547 106 522 106 q 752 344 627 106 q 762 354 758 354 q 770 328 770 354 q 757 279 770 302 q 470 -8 586 -8 q 395 106 395 -8 q 425 276 395 193 q 131 -4 266 -4 q 38 123 38 -4 q 81 320 38 220 q 202 491 123 420 q 376 561 281 561 q 459 541 420 561 q 511 476 498 520 q 558 531 526 508 q 618 555 590 555 m 502 463 q 437 508 488 508 q 259 381 345 508 q 173 154 173 254 q 206 111 173 111 q 291 156 243 111 q 379 262 340 201 q 502 463 465 398 m 677 795 q 613 708 661 744 q 509 672 566 672 q 426 697 451 672 q 401 763 401 723 q 452 875 401 825 q 581 926 502 926 q 658 900 632 926 q 684 836 684 875 q 677 795 684 819 m 600 893 l 586 894 q 508 852 541 894 q 475 765 475 809 q 527 711 475 711 q 607 753 573 711 q 641 841 641 795 q 600 893 641 887 "}," ":{"x_min":0,"x_max":0,"ha":403},"0":{"x_min":34.71875,"x_max":855.625,"ha":847,"o":"m 827 472 q 625 128 769 273 q 293 -16 480 -16 q 99 70 163 -16 q 34 297 34 158 q 133 655 34 477 q 402 923 240 847 q 591 965 493 965 q 789 879 723 965 q 855 658 855 794 q 827 472 855 568 m 363 50 q 545 150 458 50 q 677 392 632 251 q 723 648 723 533 q 677 834 723 763 q 538 905 632 905 q 360 809 445 905 q 227 576 275 713 q 180 313 180 438 q 225 119 180 188 q 363 50 269 50 "},"”":{"x_min":84.734375,"x_max":500.046875,"ha":518,"o":"m 255 973 q 286 913 286 955 q 264 832 286 872 q 222 760 243 791 q 165 695 201 729 q 100 661 129 661 q 84 663 93 661 q 145 747 104 686 q 187 825 186 808 l 179 825 q 131 877 131 825 q 160 950 131 918 q 225 982 188 982 q 255 973 241 982 m 469 973 q 500 913 500 955 q 478 832 500 872 q 436 760 456 791 q 379 695 415 729 q 313 661 343 661 q 298 663 306 661 q 359 747 318 686 q 401 825 400 808 l 393 825 q 345 877 345 825 q 374 950 345 918 q 438 982 402 982 q 469 973 455 982 "},"¾":{"x_min":5.5625,"x_max":1697.359375,"ha":1695,"o":"m 1602 448 q 1639 463 1619 463 q 1677 443 1658 463 q 1697 388 1697 423 q 1639 284 1697 330 q 1480 238 1582 238 q 1450 240 1459 238 q 1380 0 1393 62 l 1233 0 q 1333 258 1252 43 q 1252 280 1307 265 q 1089 315 1134 315 q 1026 300 1044 315 q 1008 266 1008 284 q 973 216 1005 216 q 945 229 957 216 q 933 263 933 241 q 984 348 933 319 l 1502 794 l 1652 794 q 1482 333 1582 632 q 1616 416 1616 344 q 1602 448 1616 438 m 1282 963 l 509 -80 q 472 -84 506 -84 q 437 -75 437 -84 l 437 -73 l 1209 970 q 1248 975 1213 975 q 1282 965 1282 975 l 1282 963 m 431 979 q 593 941 526 979 q 659 819 659 902 q 604 682 659 736 q 472 600 550 627 q 577 539 538 586 q 615 431 615 493 q 504 227 615 302 q 248 152 393 152 q 76 195 147 152 q 5 325 5 238 q 38 418 5 375 q 120 461 70 461 q 181 440 151 461 q 131 318 131 372 q 168 234 131 263 q 275 205 205 205 q 402 266 345 205 q 458 402 458 326 q 417 522 458 477 q 311 568 376 568 q 267 559 295 568 q 226 551 238 551 q 203 561 213 551 q 193 586 193 570 q 209 613 193 601 q 260 625 226 625 q 329 612 294 625 q 455 693 402 630 q 508 826 508 757 q 481 900 508 872 q 395 929 454 929 q 292 880 336 929 q 248 769 248 832 q 258 718 248 741 q 213 705 238 705 q 168 729 187 705 q 148 798 148 754 q 177 880 148 843 q 248 938 205 918 q 431 979 336 979 m 1501 711 l 1091 365 q 1227 350 1162 361 q 1361 334 1291 338 l 1501 711 "},"@":{"x_min":122.234375,"x_max":1215.375,"ha":1274,"o":"m 1127 263 q 1006 156 1086 200 q 855 113 926 113 q 744 151 784 113 q 704 266 704 188 q 720 376 704 313 q 488 169 590 169 q 420 204 448 169 q 391 297 391 238 q 486 582 391 448 q 716 716 580 716 q 788 695 762 716 q 833 616 813 673 q 877 680 857 663 q 943 697 897 697 l 1020 697 q 880 476 947 638 q 813 238 813 313 q 880 148 813 148 q 1048 271 979 148 q 1118 526 1118 394 q 1019 804 1118 690 q 740 919 920 919 q 477 837 595 919 q 294 628 358 755 q 230 379 230 501 q 265 175 230 256 q 358 47 300 93 q 631 -44 475 -44 q 942 34 788 -44 q 1154 208 1095 112 q 1163 216 1158 216 q 1169 193 1169 216 q 1128 81 1169 131 q 1026 0 1087 30 q 887 -52 965 -30 q 615 -90 750 -90 q 259 15 395 -90 q 122 340 122 122 q 165 560 122 452 q 285 754 208 668 q 480 894 362 841 q 736 947 598 947 q 1084 830 954 947 q 1215 540 1215 713 q 1127 263 1215 400 m 797 545 l 827 605 q 799 648 823 633 q 743 663 775 663 q 579 560 643 663 q 515 354 515 456 q 529 288 515 312 q 563 265 543 265 q 679 361 608 265 q 797 545 751 456 "},"ö":{"x_min":48.609375,"x_max":734.78125,"ha":624,"o":"m 718 341 q 726 350 722 350 q 734 329 734 350 q 681 218 734 262 q 581 175 627 175 q 501 201 534 175 q 382 45 451 102 q 205 -11 313 -11 q 92 31 136 -11 q 48 160 48 73 q 88 339 48 247 q 207 498 127 431 q 386 565 287 565 q 551 390 551 565 q 522 250 551 323 q 581 220 543 220 q 718 341 654 220 m 486 427 q 419 501 480 501 q 231 315 323 501 q 181 129 181 212 q 254 41 181 45 q 364 104 313 41 q 450 244 415 168 q 402 345 402 284 q 422 405 402 383 q 477 427 443 427 l 486 427 m 666 763 q 609 725 638 757 q 563 694 579 694 q 534 718 534 694 q 568 790 534 741 q 632 838 602 838 q 661 818 647 838 q 675 781 675 797 q 666 763 675 765 m 406 763 q 349 725 379 757 q 304 694 319 694 q 275 718 275 694 q 309 790 275 741 q 372 838 343 838 q 401 818 387 838 q 415 781 415 797 q 406 763 415 765 "},"i":{"x_min":34.71875,"x_max":473.65625,"ha":301,"o":"m 447 738 l 441 738 q 388 715 413 738 q 351 666 362 691 q 315 716 315 680 q 348 789 315 752 q 412 826 381 826 q 458 812 443 826 q 473 777 473 798 q 447 738 473 755 m 258 555 l 327 554 l 341 554 q 282 463 319 537 q 227 352 245 390 q 186 251 209 315 q 163 147 163 187 q 190 106 163 106 q 240 131 208 106 q 294 182 273 155 q 341 251 315 209 q 385 323 366 293 q 406 354 404 354 q 415 328 415 354 q 401 279 415 302 q 307 135 350 193 q 211 34 265 77 q 112 -8 156 -8 q 34 100 34 -8 q 150 472 34 268 q 258 555 198 555 "},"Õ":{"x_min":4.171875,"x_max":1054.25,"ha":1060,"o":"m 997 420 q 735 84 905 212 q 348 -44 565 -44 q 4 259 4 -44 q 61 529 4 397 q 213 761 119 662 q 437 922 308 861 q 701 983 566 983 q 966 896 877 983 q 1054 679 1054 809 q 997 420 1054 550 m 938 693 q 736 919 938 919 q 454 818 588 919 q 243 563 320 716 q 166 258 166 411 q 215 80 166 148 q 370 12 263 12 q 583 76 476 12 q 766 239 690 140 q 891 460 843 338 q 938 693 938 581 m 1002 1226 q 891 1126 944 1126 q 801 1151 859 1126 q 709 1176 743 1176 q 650 1155 675 1176 q 623 1134 625 1134 q 608 1148 608 1134 q 644 1201 608 1161 q 714 1241 680 1241 q 812 1216 748 1241 q 904 1190 876 1190 q 949 1204 933 1190 q 975 1233 965 1219 q 993 1247 984 1247 q 1005 1236 1005 1247 q 1002 1226 1005 1232 "},"þ":{"x_min":-169.453125,"x_max":662.546875,"ha":547,"o":"m 647 279 q 460 42 552 108 q 244 -23 368 -23 q 100 27 120 -23 l 95 43 l 18 -200 q -24 -306 -9 -281 q -56 -337 -38 -330 q -102 -344 -75 -344 l -169 -344 q -77 -140 -127 -284 q -40 -36 -65 -106 q -2 70 -16 33 q 18 143 6 115 q 61 275 30 170 q 122 477 91 380 q 195 675 154 575 q 293 836 237 775 q 409 897 348 897 l 451 897 q 383 808 426 882 q 208 370 284 638 q 326 506 261 451 q 448 561 391 561 q 541 433 541 561 q 476 220 541 326 q 318 43 411 113 l 327 43 q 329 43 329 43 q 547 190 431 43 q 608 284 565 212 q 654 356 651 356 q 662 331 662 356 q 647 279 662 305 m 386 443 q 373 444 381 444 q 309 416 344 444 q 188 269 252 372 q 125 101 125 166 q 165 36 125 36 q 272 108 213 36 q 369 267 331 180 q 406 395 406 354 q 386 443 406 437 "},"]":{"x_min":18.0625,"x_max":726.453125,"ha":632,"o":"m 388 988 l 726 988 l 355 -106 l 18 -106 l 40 -40 l 252 -40 l 579 922 l 366 922 l 388 988 "},"m":{"x_min":-30.5625,"x_max":1037.578125,"ha":924,"o":"m 1023 279 q 929 135 972 193 q 833 34 887 77 q 734 -8 779 -8 q 652 86 652 -8 q 740 398 652 195 q 759 469 759 450 q 734 497 759 497 q 682 479 719 497 q 610 425 644 461 q 555 358 576 388 q 509 266 534 327 q 476 180 484 205 q 422 0 436 55 l 286 0 q 385 269 358 200 q 418 355 412 338 l 430 394 q 445 468 445 438 q 419 497 445 497 q 359 477 397 497 q 284 420 320 458 q 224 334 248 383 q 185 248 200 284 q 155 160 170 212 q 128 75 140 108 q 104 0 116 43 l -30 0 q 2 104 -15 58 l 93 334 q 148 537 148 473 q 145 555 148 551 l 204 555 q 265 546 251 555 q 279 522 279 537 q 262 451 279 506 q 506 562 384 562 q 580 501 580 562 q 565 436 580 475 q 825 562 691 562 q 897 501 897 562 q 887 448 897 473 q 862 384 877 423 q 837 318 847 344 q 815 255 827 293 q 788 142 788 179 q 811 105 788 105 q 869 136 834 105 q 921 188 904 166 q 964 252 938 211 q 1008 323 990 293 q 1029 354 1026 354 q 1037 328 1037 354 q 1023 279 1037 302 "},"8":{"x_min":5.5625,"x_max":834.78125,"ha":815,"o":"m 611 547 q 750 329 750 468 q 616 88 750 191 q 309 -15 481 -15 q 92 52 179 -15 q 5 224 5 119 q 88 417 5 329 q 308 550 172 505 q 206 720 206 618 q 302 920 206 841 q 563 1000 398 1000 q 761 945 687 1000 q 834 800 834 890 q 611 547 834 630 m 738 794 q 681 904 738 858 q 543 950 623 950 q 395 901 463 950 q 327 790 327 852 q 391 670 327 727 q 536 593 454 612 q 738 794 733 668 m 394 476 q 143 212 143 376 q 197 95 143 141 q 351 48 252 48 q 536 111 450 48 q 622 288 622 173 q 550 416 622 372 q 394 476 497 448 "},"ž":{"x_min":28.953125,"x_max":705.609375,"ha":592,"o":"m 691 279 q 532 53 612 133 q 387 -26 452 -26 q 270 15 351 -26 q 172 56 190 56 q 150 52 155 56 q 64 -15 93 -15 q 36 12 36 -15 q 53 57 36 40 q 79 83 70 75 q 107 105 88 91 q 159 147 126 119 q 398 361 261 229 l 447 406 l 419 411 q 285 426 320 426 q 224 419 250 426 q 177 391 198 412 q 146 355 156 370 q 122 317 136 340 q 98 277 108 294 q 79 245 88 259 q 61 215 70 230 q 35 183 43 183 q 29 209 27 183 q 49 263 30 234 q 96 350 68 291 q 143 444 125 408 q 197 509 162 480 q 276 537 231 537 q 348 529 295 537 l 365 526 q 509 505 480 505 q 598 552 556 505 q 621 562 607 562 q 665 552 636 562 q 213 119 556 452 q 356 68 277 68 q 362 68 359 68 q 486 101 425 68 q 591 191 547 134 q 657 291 619 226 q 697 356 694 356 q 705 331 705 356 q 691 279 705 305 m 391 869 q 495 732 425 869 q 673 863 636 863 q 698 859 698 863 l 698 858 q 495 677 565 750 q 471 663 483 663 q 438 695 459 663 q 386 773 416 726 q 340 841 356 820 q 359 858 340 847 q 391 869 379 869 "},"R":{"x_min":5.5625,"x_max":895.90625,"ha":847,"o":"m 831 916 q 895 780 895 862 q 847 636 895 698 q 581 488 761 522 l 537 480 q 829 2 607 238 q 765 -1 808 -1 l 658 2 q 541 111 602 2 q 443 334 479 220 q 406 484 406 447 q 426 506 406 505 q 762 762 752 547 q 717 880 762 838 q 569 927 672 922 q 329 461 461 782 q 198 30 198 134 q 204 0 198 9 l 25 0 q 188 466 63 168 q 404 918 355 863 q 164 870 286 915 q 23 762 43 825 q 18 758 22 758 q 5 776 5 758 q 8 790 5 779 q 84 908 34 866 q 182 959 134 950 q 301 969 230 969 l 638 969 q 831 916 766 969 "},"á":{"x_min":38.890625,"x_max":770.890625,"ha":657,"o":"m 618 555 l 687 554 l 701 554 q 588 364 655 516 q 522 143 522 212 q 547 106 522 106 q 752 344 627 106 q 762 354 758 354 q 770 328 770 354 q 757 279 770 302 q 470 -8 586 -8 q 395 106 395 -8 q 425 276 395 193 q 131 -4 266 -4 q 38 123 38 -4 q 81 320 38 220 q 202 491 123 420 q 376 561 281 561 q 459 541 420 561 q 511 476 498 520 q 558 531 526 508 q 618 555 590 555 m 502 463 q 437 508 488 508 q 259 381 345 508 q 173 154 173 254 q 206 111 173 111 q 291 156 243 111 q 379 262 340 201 q 502 463 465 398 m 651 816 q 504 746 595 793 q 408 700 412 700 q 391 707 404 700 q 377 716 377 713 q 468 781 390 723 q 572 857 547 838 q 588 859 577 859 q 627 844 600 859 q 654 820 654 829 q 651 816 654 818 "},"×":{"x_min":213.90625,"x_max":908.40625,"ha":1028,"o":"m 575 475 l 904 709 l 905 709 q 908 690 908 709 q 887 598 908 613 l 633 418 l 826 233 q 830 212 830 229 q 820 159 830 195 q 802 123 809 123 l 554 361 l 219 123 l 218 123 q 213 145 213 123 q 220 197 213 166 q 234 233 226 227 l 494 418 l 306 598 q 302 618 302 602 q 313 672 302 634 q 330 709 325 709 l 331 709 l 575 475 "},"o":{"x_min":48.609375,"x_max":734.78125,"ha":624,"o":"m 718 341 q 726 350 722 350 q 734 329 734 350 q 681 218 734 262 q 581 175 627 175 q 501 201 534 175 q 382 45 451 102 q 205 -11 313 -11 q 92 31 136 -11 q 48 160 48 73 q 88 339 48 247 q 207 498 127 431 q 386 565 287 565 q 551 390 551 565 q 522 250 551 323 q 581 220 543 220 q 718 341 654 220 m 486 427 q 419 501 480 501 q 231 315 323 501 q 181 129 181 212 q 254 41 181 45 q 364 104 313 41 q 450 244 415 168 q 402 345 402 284 q 422 405 402 383 q 477 427 443 427 l 486 427 "},"5":{"x_min":19.453125,"x_max":825.0625,"ha":810,"o":"m 169 576 q 347 983 169 605 l 611 983 q 702 986 648 983 l 758 990 q 810 982 795 990 q 825 939 825 973 q 794 836 825 905 l 755 736 l 727 736 l 734 759 q 733 838 751 802 q 672 880 723 862 q 500 893 640 893 q 493 893 495 893 q 381 893 437 893 q 258 619 293 702 q 420 647 345 647 q 672 566 576 647 q 768 366 768 486 q 725 195 768 270 q 613 76 683 119 q 306 -11 472 -11 q 102 45 186 -11 q 19 212 19 101 q 57 330 19 277 q 155 383 95 383 q 218 363 190 383 q 155 204 155 295 q 206 72 155 113 q 338 30 258 30 q 521 119 444 30 q 598 328 598 208 q 523 518 598 448 q 338 588 448 588 q 255 575 309 588 q 185 561 201 561 q 169 576 169 561 "},"ħ":{"x_min":-27.78125,"x_max":722.28125,"ha":608,"o":"m 708 279 q 419 -8 537 -8 q 337 86 337 -8 q 425 398 337 195 q 444 469 444 450 q 419 497 444 497 q 363 477 402 497 q 287 420 323 458 q 227 334 251 383 q 188 248 202 284 q 158 160 173 212 q 131 75 143 108 q 106 0 119 43 l -27 0 q 79 306 9 95 q 200 636 150 516 q 297 839 250 757 q 407 977 345 922 q 538 1033 469 1033 q 607 968 607 1033 q 569 847 607 922 q 300 480 488 688 q 418 551 375 534 q 502 568 462 568 q 581 498 581 568 q 572 447 581 470 q 550 393 562 423 q 531 343 538 362 q 511 290 523 323 q 491 233 498 256 q 473 140 473 175 q 497 105 473 105 q 705 347 580 105 q 716 356 709 356 q 722 331 722 356 q 708 279 722 305 m 540 998 q 413 844 491 998 q 259 490 334 690 q 519 857 450 713 q 558 971 558 944 q 540 998 558 998 m 162 809 l 675 809 l 677 808 q 647 777 677 800 q 602 754 618 754 l 90 754 q 88 755 88 754 q 118 786 88 762 q 162 809 147 809 "},"õ":{"x_min":48.609375,"x_max":734.78125,"ha":624,"o":"m 718 341 q 726 350 722 350 q 734 329 734 350 q 681 218 734 262 q 581 175 627 175 q 501 201 534 175 q 382 45 451 102 q 205 -11 313 -11 q 92 31 136 -11 q 48 160 48 73 q 88 339 48 247 q 207 498 127 431 q 386 565 287 565 q 551 390 551 565 q 522 250 551 323 q 581 220 543 220 q 718 341 654 220 m 486 427 q 419 501 480 501 q 231 315 323 501 q 181 129 181 212 q 254 41 181 45 q 364 104 313 41 q 450 244 415 168 q 402 345 402 284 q 422 405 402 383 q 477 427 443 427 l 486 427 m 622 798 q 511 698 563 698 q 420 723 479 698 q 328 748 362 748 q 269 727 294 748 q 243 707 244 707 q 227 720 227 707 q 263 773 227 733 q 334 813 300 813 q 431 788 368 813 q 524 762 495 762 q 568 777 552 762 q 594 805 584 791 q 612 819 604 819 q 625 808 625 819 q 622 798 625 804 "},"7":{"x_min":70.84375,"x_max":755.609375,"ha":749,"o":"m 229 990 l 383 983 l 734 983 q 755 952 755 983 q 729 888 755 922 q 625 757 704 855 q 500 597 547 658 q 305 316 359 415 q 251 155 251 218 q 265 107 251 127 q 300 87 279 87 q 336 91 322 87 q 282 10 323 36 q 193 -15 241 -15 q 108 17 144 -15 q 72 111 72 50 q 113 249 72 172 q 214 395 154 326 q 346 536 275 463 q 477 666 418 608 q 620 861 620 801 q 618 880 620 866 l 323 880 q 211 860 252 880 q 156 811 169 840 q 136 754 143 783 q 120 706 130 726 q 90 686 109 686 q 70 695 70 687 q 75 708 70 698 q 85 743 79 718 q 98 801 91 768 q 150 963 126 936 q 229 990 173 990 "},"K":{"x_min":54.171875,"x_max":1216.765625,"ha":889,"o":"m 1209 954 q 917 826 1120 954 q 552 552 713 698 q 718 230 598 400 q 926 2 837 61 q 859 -1 905 -1 l 741 2 q 637 92 702 2 q 521 291 572 181 q 459 465 470 401 q 326 308 380 386 q 274 181 304 276 q 244 47 244 86 q 250 0 244 9 l 70 0 q 227 464 115 170 q 427 884 338 758 q 451 918 427 886 q 211 870 333 915 q 70 762 90 825 q 65 758 69 758 q 54 776 54 758 q 65 813 54 779 q 107 886 76 848 q 180 941 138 923 q 350 969 248 969 l 663 969 q 500 736 594 916 q 345 405 405 555 q 497 584 402 486 q 702 771 593 682 q 927 920 811 861 q 1129 980 1043 980 q 1216 961 1216 980 q 1209 954 1216 954 "},",":{"x_min":116.671875,"x_max":341.6875,"ha":376,"o":"m 341 88 q 236 -93 302 -1 q 136 -186 170 -186 q 116 -180 126 -186 q 223 91 201 -54 q 283 109 225 109 q 341 91 341 109 l 341 88 "},"d":{"x_min":38.890625,"x_max":834.78125,"ha":661,"o":"m 834 908 q 714 721 788 875 q 583 397 640 568 q 526 151 526 227 q 550 106 526 106 q 609 137 573 106 q 659 188 644 168 q 700 252 675 209 q 745 325 726 294 q 766 356 763 356 q 776 330 776 356 q 661 127 775 281 q 570 34 623 77 q 475 -8 518 -8 q 401 101 401 -8 q 441 308 401 181 q 295 88 377 181 q 131 -4 213 -4 q 38 123 38 -4 q 81 320 38 220 q 202 491 123 420 q 374 561 281 561 q 501 500 466 561 q 581 676 540 576 q 635 806 622 776 q 654 850 648 836 q 670 876 661 863 q 707 900 686 895 q 777 906 729 905 q 834 908 825 907 m 494 483 q 438 508 477 508 q 313 445 376 508 q 211 299 250 381 q 173 154 173 216 q 206 111 173 111 q 494 483 319 111 "},"¨":{"x_min":376.421875,"x_max":776.453125,"ha":806,"o":"m 768 845 q 710 807 740 838 q 665 776 680 776 q 636 800 636 776 q 670 872 636 823 q 733 920 704 920 q 762 900 748 920 q 776 863 776 879 q 768 845 776 847 m 508 845 q 450 807 480 838 q 405 776 420 776 q 376 800 376 776 q 410 872 376 823 q 473 920 444 920 q 502 900 488 920 q 516 863 516 879 q 508 845 516 847 "},"Ô":{"x_min":4.171875,"x_max":1054.25,"ha":1060,"o":"m 997 420 q 735 84 905 212 q 348 -44 565 -44 q 4 259 4 -44 q 61 529 4 397 q 213 761 119 662 q 437 922 308 861 q 701 983 566 983 q 966 896 877 983 q 1054 679 1054 809 q 997 420 1054 550 m 938 693 q 736 919 938 919 q 454 818 588 919 q 243 563 320 716 q 166 258 166 411 q 215 80 166 148 q 370 12 263 12 q 583 76 476 12 q 766 239 690 140 q 891 460 843 338 q 938 693 938 581 m 954 1076 l 954 1075 q 934 1059 954 1070 q 902 1048 913 1048 q 849 1098 883 1048 q 798 1186 815 1148 q 696 1098 752 1141 q 618 1054 640 1054 q 595 1058 595 1054 l 595 1059 q 798 1240 729 1168 q 821 1252 809 1252 q 854 1221 833 1252 q 907 1143 876 1190 q 954 1076 937 1097 "},"E":{"x_min":-27.78125,"x_max":816.734375,"ha":792,"o":"m 612 969 l 763 976 q 811 959 807 976 q 816 933 816 941 q 782 810 816 884 q 734 736 748 736 q 719 747 719 736 l 730 830 q 695 898 730 873 q 612 923 661 923 q 540 916 563 923 q 502 887 516 909 q 318 543 401 736 l 680 543 l 682 541 q 662 503 682 531 q 630 475 643 475 l 287 475 q 213 269 250 383 q 177 118 177 155 q 200 64 177 81 q 275 47 222 47 q 755 205 680 47 q 766 209 758 209 q 773 201 773 209 q 770 179 773 193 q 655 26 732 58 q 579 4 615 9 q 488 0 544 0 l 69 0 q 26 65 26 0 q 150 475 26 177 l 73 475 q 62 481 62 475 q 88 519 62 495 q 131 543 115 543 l 179 543 q 363 916 306 850 q 125 861 233 900 q -15 765 18 822 q -22 761 -16 761 q -27 768 -27 761 q -26 779 -27 776 q 166 955 26 923 q 337 969 230 969 l 612 969 "},"Y":{"x_min":5.5625,"x_max":1050.078125,"ha":950,"o":"m 1050 969 q 791 734 919 879 q 538 348 633 555 q 461 111 486 230 q 450 34 450 59 q 455 0 450 9 l 276 0 q 331 172 281 23 q 380 386 380 320 q 348 563 380 452 q 263 767 316 675 q 159 859 209 859 q 15 751 97 859 q 12 750 13 750 q 5 761 5 750 q 6 773 5 772 q 109 918 55 872 q 247 965 163 965 q 368 922 330 965 q 443 749 405 879 q 519 468 481 619 q 675 688 548 508 q 857 941 801 869 q 970 970 879 970 q 1013 970 986 970 q 1050 969 1040 969 "},"\"":{"x_min":73.609375,"x_max":497.265625,"ha":518,"o":"m 497 958 q 468 920 497 957 q 384 798 440 883 q 315 688 327 713 q 287 683 311 683 q 263 687 263 683 q 372 957 270 697 q 438 973 379 973 q 497 958 497 973 m 305 959 q 277 919 305 957 q 191 797 248 882 q 123 688 134 712 q 97 683 122 683 q 73 687 73 683 q 181 957 80 698 q 247 973 188 973 q 305 959 305 973 "},"‹":{"x_min":95.84375,"x_max":580.609375,"ha":600,"o":"m 575 723 q 578 725 576 725 q 580 720 580 725 q 454 588 580 686 q 205 416 327 491 q 469 172 413 269 q 470 159 470 169 q 445 127 470 150 q 411 105 419 105 q 402 106 402 105 q 123 368 256 272 q 95 400 95 388 q 130 431 95 411 q 575 723 359 561 "},"˙":{"x_min":519.484375,"x_max":675.046875,"ha":843,"o":"m 672 923 q 627 891 657 920 q 587 844 597 862 q 519 901 519 866 q 549 950 519 926 q 618 973 579 973 q 675 938 675 973 q 672 923 675 934 "},"ê":{"x_min":47.21875,"x_max":625.046875,"ha":497,"o":"m 605 361 q 613 334 613 361 q 591 269 613 306 q 547 198 569 231 q 490 120 526 165 q 419 50 454 76 q 243 -13 331 -13 q 101 31 155 -13 q 47 169 47 76 q 151 431 47 311 q 394 552 255 552 q 494 520 456 552 q 531 441 531 487 q 458 316 531 363 q 284 269 384 269 q 198 284 226 269 q 172 159 172 213 q 270 43 172 43 q 391 88 329 43 q 496 189 452 133 q 595 351 540 245 q 605 361 601 361 m 458 470 q 419 511 458 511 q 298 444 365 511 q 231 336 231 377 q 284 308 231 308 q 395 359 337 308 q 458 470 452 411 m 625 715 l 625 713 q 604 698 625 709 q 573 687 584 687 q 520 737 554 687 q 469 825 486 787 q 367 736 423 780 q 288 693 311 693 q 266 697 266 693 l 266 698 q 469 879 400 807 q 492 891 480 891 q 525 860 504 891 q 577 782 547 829 q 625 715 608 736 "},"Ï":{"x_min":5.5625,"x_max":718.109375,"ha":567,"o":"m 301 969 l 615 969 q 351 513 519 895 q 253 259 308 416 q 198 29 198 101 q 204 0 198 9 l 25 0 q 188 466 63 168 q 404 918 355 863 q 164 870 286 915 q 23 762 43 825 q 18 758 22 758 q 5 776 5 758 q 8 790 5 779 q 84 908 34 866 q 182 959 134 950 q 301 969 230 969 m 709 1123 q 652 1085 682 1116 q 607 1054 622 1054 q 577 1077 577 1054 q 611 1150 577 1101 q 675 1198 645 1198 q 704 1177 690 1198 q 718 1141 718 1157 q 709 1123 718 1125 m 450 1123 q 392 1085 422 1116 q 347 1054 362 1054 q 318 1077 318 1054 q 352 1150 318 1101 q 415 1198 386 1198 q 444 1177 430 1198 q 458 1141 458 1157 q 450 1123 458 1125 "},"„":{"x_min":154.171875,"x_max":569.484375,"ha":613,"o":"m 325 148 q 355 88 355 130 q 334 6 355 47 q 291 -64 312 -33 q 234 -129 270 -95 q 169 -163 198 -163 q 154 -161 162 -163 q 214 -77 173 -138 q 256 0 255 -16 l 248 0 q 201 52 201 0 q 229 125 201 93 q 294 156 258 156 q 325 148 309 156 m 538 148 q 569 88 569 130 q 547 6 569 47 q 505 -64 526 -33 q 448 -129 484 -95 q 383 -163 412 -163 q 368 -161 376 -163 q 428 -77 387 -138 q 470 0 469 -16 l 462 0 q 415 52 415 0 q 443 125 415 93 q 508 156 472 156 q 538 148 525 156 "},"Â":{"x_min":-66.671875,"x_max":1216.765625,"ha":1129,"o":"m 566 969 l 877 969 q 757 916 843 934 q 562 888 670 898 q 420 870 454 877 q 272 693 272 836 q 229 788 229 737 q 566 969 229 969 m 948 969 l 1048 969 q 918 635 984 908 q 852 213 852 362 q 891 68 852 108 q 933 50 908 50 q 986 68 958 50 l 994 55 q 925 7 975 27 q 826 -12 875 -12 q 727 38 754 -12 q 697 176 701 90 q 715 359 697 247 l 397 359 q 72 0 190 140 l -66 0 q 338 391 63 119 q 804 880 693 744 q 845 927 832 913 q 888 954 859 940 q 948 969 916 969 m 805 773 q 458 429 647 625 l 725 429 q 805 773 750 566 m 1216 1063 l 1216 1062 q 1196 1047 1216 1058 q 1165 1036 1176 1036 q 1111 1086 1145 1036 q 1061 1173 1077 1136 q 959 1085 1015 1129 q 880 1041 902 1041 q 858 1045 858 1041 l 858 1047 q 1061 1227 991 1155 q 1084 1240 1072 1240 q 1117 1209 1095 1240 q 1169 1131 1138 1177 q 1216 1063 1200 1084 "},"ķ":{"x_min":-40.28125,"x_max":684.78125,"ha":571,"o":"m 669 276 q 570 127 620 194 q 359 -11 463 -11 q 274 45 302 -11 q 245 172 245 102 q 287 311 245 311 q 408 341 352 311 q 463 419 463 370 q 419 458 463 458 q 206 250 323 458 q 160 153 195 229 q 97 38 125 77 q 44 0 70 0 l -40 0 q 86 325 2 80 q 211 654 170 570 q 228 690 212 657 q 250 736 244 723 q 275 783 256 748 q 304 834 293 818 q 334 882 315 851 q 369 930 354 913 q 405 970 384 947 q 444 1004 426 993 q 530 1032 491 1032 q 607 962 607 1032 q 489 704 607 865 q 225 401 372 544 l 200 331 q 351 482 266 418 q 506 547 436 547 q 570 527 547 547 q 593 475 593 508 q 525 352 593 398 q 370 291 458 305 q 411 115 383 147 q 445 100 425 100 q 502 125 466 100 q 561 179 538 150 q 610 251 584 209 q 654 323 636 293 q 676 354 673 354 q 684 327 684 354 q 669 276 684 300 m 533 995 q 261 495 455 995 q 511 847 438 704 q 552 970 552 922 q 533 995 552 995 m 218 -88 q 113 -271 179 -179 q 12 -363 47 -363 q -6 -358 2 -363 q 100 -86 77 -231 q 159 -68 101 -68 q 218 -86 218 -68 l 218 -88 "},"Í":{"x_min":5.5625,"x_max":732,"ha":567,"o":"m 301 969 l 615 969 q 351 513 519 895 q 253 259 308 416 q 198 29 198 101 q 204 0 198 9 l 25 0 q 188 466 63 168 q 404 918 355 863 q 164 870 286 915 q 23 762 43 825 q 18 758 22 758 q 5 776 5 758 q 8 790 5 779 q 84 908 34 866 q 182 959 134 950 q 301 969 230 969 m 729 1125 q 581 1054 673 1101 q 486 1008 490 1008 q 468 1015 481 1008 q 455 1025 455 1022 q 546 1089 468 1032 q 650 1165 625 1147 q 666 1168 655 1168 q 704 1152 677 1168 q 732 1129 732 1137 q 729 1125 732 1126 "},"´":{"x_min":393.09375,"x_max":669.5,"ha":738,"o":"m 666 847 q 519 777 611 823 q 423 730 427 730 q 406 737 419 730 q 393 747 393 744 q 484 811 405 754 q 587 887 562 869 q 604 890 593 890 q 642 875 615 890 q 669 851 669 859 q 666 847 669 848 "},"ì":{"x_min":34.71875,"x_max":420.859375,"ha":301,"o":"m 258 555 l 327 554 l 341 554 q 282 463 319 537 q 227 352 245 390 q 186 251 209 315 q 163 147 163 187 q 190 106 163 106 q 240 131 208 106 q 294 182 273 155 q 341 251 315 209 q 385 323 366 293 q 406 354 404 354 q 415 328 415 354 q 401 279 415 302 q 307 135 350 193 q 211 34 265 77 q 112 -8 156 -8 q 34 100 34 -8 q 150 472 34 268 q 258 555 198 555 m 248 763 q 165 803 188 793 q 143 815 143 813 q 170 838 143 823 q 209 854 198 854 q 226 851 220 854 q 300 797 251 833 l 379 738 q 420 711 411 715 q 406 700 420 707 q 389 694 393 694 q 347 713 386 694 l 248 763 "},"±":{"x_min":-50,"x_max":973.6875,"ha":1003,"o":"m 150 522 l 480 511 q 587 797 556 701 q 644 833 591 813 q 711 852 697 852 q 725 851 725 852 l 725 850 q 572 511 590 552 q 972 518 886 513 q 973 515 973 518 q 938 465 973 502 q 886 427 904 427 l 541 440 q 463 255 502 361 q 412 102 423 150 q 354 66 408 86 q 287 47 301 47 q 273 48 273 47 l 273 50 q 452 441 344 180 q 127 436 191 441 q 62 433 62 431 q 97 484 62 445 q 150 522 131 522 m 15 -54 l 686 -54 q 687 -60 687 -54 q 661 -100 687 -66 q 622 -134 636 -134 l -48 -134 q -50 -128 -50 -134 q -24 -88 -50 -122 q 15 -54 1 -54 "},"Ú":{"x_min":13.890625,"x_max":1197.3125,"ha":1038,"o":"m 386 875 q 412 918 411 915 q 172 870 294 915 q 31 762 51 825 q 26 758 30 758 q 13 776 13 758 q 25 813 13 779 q 69 886 37 848 q 141 941 101 923 q 309 969 209 969 l 625 969 q 467 744 561 920 q 319 433 373 568 q 243 167 243 256 q 313 77 243 77 q 468 163 373 77 q 654 372 562 248 q 908 754 834 618 q 1022 930 982 891 q 1111 969 1062 969 l 1197 969 q 1007 669 1132 919 q 819 126 819 291 q 868 50 819 50 q 923 68 891 50 l 925 68 q 929 59 929 68 q 859 11 929 33 q 747 -11 790 -11 q 658 91 658 -11 q 694 256 658 143 q 786 490 730 369 q 477 91 579 181 q 269 -9 365 -9 q 109 144 109 -9 q 193 468 109 258 q 386 875 277 679 m 1020 1148 q 873 1078 965 1125 q 777 1032 782 1032 q 760 1038 773 1032 q 747 1048 747 1045 q 838 1113 759 1055 q 941 1188 916 1170 q 958 1191 947 1191 q 996 1176 969 1191 q 1023 1152 1023 1161 q 1020 1148 1023 1150 "},"|":{"x_min":238.90625,"x_max":483.375,"ha":635,"o":"m 387 968 l 483 968 l 336 -73 l 238 -73 l 387 968 "},"§":{"x_min":44.453125,"x_max":1175.09375,"ha":1190,"o":"m 935 994 q 1119 952 1063 994 q 1175 852 1175 911 q 1135 742 1175 793 q 1025 691 1095 691 q 954 751 954 691 q 957 773 954 757 q 1020 802 993 773 q 1048 866 1048 830 q 1016 923 1048 901 q 936 945 983 945 q 802 897 855 945 q 750 783 750 848 q 774 707 750 748 q 823 641 798 666 q 897 570 848 615 q 959 511 945 525 q 1065 283 1065 404 q 961 72 1065 162 q 711 -26 858 -18 q 588 -233 700 -147 q 338 -319 477 -319 q 122 -277 200 -319 q 44 -147 44 -234 q 76 -58 44 -98 q 167 -18 108 -18 q 247 -59 226 -18 q 198 -152 198 -98 q 232 -235 198 -205 q 322 -268 266 -265 q 475 -210 409 -268 q 541 -59 541 -152 q 422 159 541 33 q 373 211 420 162 q 295 312 326 261 q 263 434 263 363 q 358 629 263 555 q 590 702 452 702 l 619 702 q 618 726 618 709 q 712 920 618 847 q 935 994 807 994 m 766 462 q 658 590 679 554 q 627 655 637 626 q 581 654 615 654 q 448 605 501 654 q 395 491 395 556 q 420 415 395 456 q 468 349 445 373 q 543 277 491 325 q 605 219 595 229 q 709 23 695 129 q 841 90 786 33 q 895 229 895 148 q 809 413 895 318 q 766 462 770 458 "},"Ý":{"x_min":5.5625,"x_max":1050.078125,"ha":950,"o":"m 1050 969 q 791 734 919 879 q 538 348 633 555 q 461 111 486 230 q 450 34 450 59 q 455 0 450 9 l 276 0 q 331 172 281 23 q 380 386 380 320 q 348 563 380 452 q 263 767 316 675 q 159 859 209 859 q 15 751 97 859 q 12 750 13 750 q 5 761 5 750 q 6 773 5 772 q 109 918 55 872 q 247 965 163 965 q 368 922 330 965 q 443 749 405 879 q 519 468 481 619 q 675 688 548 508 q 857 941 801 869 q 970 970 879 970 q 1013 970 986 970 q 1050 969 1040 969 m 820 1125 q 673 1054 765 1101 q 577 1008 581 1008 q 560 1015 573 1008 q 547 1025 547 1022 q 638 1089 559 1032 q 741 1165 716 1147 q 758 1168 747 1168 q 796 1152 769 1168 q 823 1129 823 1137 q 820 1125 823 1126 "},"b":{"x_min":33.34375,"x_max":730.609375,"ha":615,"o":"m 722 355 q 730 329 730 355 q 722 290 730 304 l 691 238 q 580 88 623 126 q 488 45 533 45 q 411 100 430 45 q 295 14 354 43 q 165 -13 237 -13 q 63 9 93 -13 q 33 85 33 31 q 50 206 33 138 q 194 638 93 390 q 354 901 295 886 q 420 906 372 905 q 477 908 468 907 q 331 672 423 868 q 191 295 238 476 q 475 561 341 561 q 569 425 569 561 q 455 150 569 290 q 469 112 456 126 q 501 98 481 98 q 543 115 520 98 q 578 146 566 133 q 609 184 590 159 q 655 252 629 209 q 700 325 682 294 q 722 355 719 355 m 413 443 q 392 444 409 444 q 327 408 375 444 q 215 270 279 372 q 151 102 151 168 q 191 36 151 36 q 350 178 265 36 q 434 402 434 320 q 413 443 434 437 "},"q":{"x_min":38.890625,"x_max":758.390625,"ha":643,"o":"m 751 358 q 758 332 758 358 q 750 292 758 306 q 722 244 743 277 q 695 198 702 211 q 666 156 687 186 q 632 112 645 126 q 597 80 618 98 q 520 45 561 45 q 466 77 479 45 q 424 -66 454 36 q 377 -227 394 -169 q 317 -312 359 -284 q 184 -340 275 -340 q 301 -87 234 -272 q 368 103 325 -22 q 431 287 411 229 q 131 -4 270 -4 q 38 123 38 -4 q 81 320 38 220 q 202 491 123 420 q 376 561 281 561 q 456 543 418 561 q 508 483 494 525 q 556 539 527 523 q 648 555 586 555 l 690 555 q 493 161 609 505 l 493 154 q 531 98 493 98 q 643 191 569 98 q 705 287 662 216 q 751 358 748 358 m 491 445 l 501 468 q 437 509 486 509 q 259 381 345 509 q 173 154 173 254 q 206 111 173 111 q 325 193 255 111 q 438 347 395 275 q 491 445 480 419 "},"Ö":{"x_min":4.171875,"x_max":1054.25,"ha":1060,"o":"m 997 420 q 735 84 905 212 q 348 -44 565 -44 q 4 259 4 -44 q 61 529 4 397 q 213 761 119 662 q 437 922 308 861 q 701 983 566 983 q 966 896 877 983 q 1054 679 1054 809 q 997 420 1054 550 m 938 693 q 736 919 938 919 q 454 818 588 919 q 243 563 320 716 q 166 258 166 411 q 215 80 166 148 q 370 12 263 12 q 583 76 476 12 q 766 239 690 140 q 891 460 843 338 q 938 693 938 581 m 976 1175 q 918 1136 948 1168 q 873 1105 888 1105 q 844 1129 844 1105 q 878 1201 844 1152 q 941 1250 912 1250 q 970 1229 957 1250 q 984 1192 984 1208 q 976 1175 984 1176 m 716 1175 q 659 1136 688 1168 q 613 1105 629 1105 q 584 1129 584 1105 q 618 1201 584 1152 q 682 1250 652 1250 q 711 1229 697 1250 q 725 1192 725 1208 q 716 1175 725 1176 "},"z":{"x_min":36.109375,"x_max":708.390625,"ha":592,"o":"m 691 279 q 527 48 598 123 q 387 -26 455 -26 q 270 15 351 -26 q 172 56 190 56 q 150 52 155 56 q 64 -15 93 -15 q 36 12 36 -15 q 53 57 36 40 q 79 83 70 75 q 107 105 88 91 q 159 147 126 119 q 398 361 261 229 l 447 406 l 419 411 q 288 426 320 426 q 176 390 215 426 q 127 318 172 386 q 81 251 83 251 q 76 280 76 251 q 87 329 76 309 q 121 395 98 348 q 153 459 144 443 q 181 498 162 475 q 223 529 201 522 q 270 537 245 537 q 348 529 295 537 l 365 526 q 509 505 480 505 q 598 552 556 505 q 621 562 607 562 q 665 552 636 562 q 213 119 556 452 q 356 68 277 68 q 362 68 359 68 q 486 101 425 68 q 591 191 547 134 q 654 288 609 215 q 701 361 698 361 q 708 334 708 361 q 691 279 708 308 "},"™":{"x_min":151.40625,"x_max":755.609375,"ha":704,"o":"m 654 677 l 670 683 q 672 680 672 683 q 650 666 672 673 q 615 659 629 659 q 587 690 587 659 q 675 909 587 745 q 606 835 650 888 q 527 742 562 782 q 481 702 493 702 q 459 708 470 702 q 472 803 472 727 q 466 918 472 879 q 402 796 430 863 q 375 697 375 729 q 386 662 375 666 l 363 662 q 347 686 347 662 q 433 911 347 745 q 463 961 459 961 q 506 930 498 961 q 513 834 513 900 q 512 752 513 769 q 646 907 593 852 q 729 961 700 961 l 755 961 q 682 845 725 937 q 638 701 638 752 q 654 677 638 677 m 351 961 l 398 963 q 413 957 412 963 l 413 951 q 402 911 413 933 q 388 888 391 888 q 383 891 383 888 l 387 916 q 329 945 387 945 q 251 813 284 893 q 218 700 218 734 q 229 662 218 666 l 187 662 q 169 693 169 662 q 211 822 169 723 q 277 945 252 920 l 268 945 q 187 922 211 945 q 165 900 175 911 l 155 890 q 151 895 151 890 q 169 942 151 923 q 213 961 187 961 l 351 961 "},"Ř":{"x_min":5.5625,"x_max":895.90625,"ha":925,"o":"m 831 916 q 895 780 895 862 q 847 636 895 698 q 581 488 761 522 l 537 480 q 829 2 607 238 q 765 -1 808 -1 l 658 2 q 541 111 602 2 q 443 334 479 220 q 406 484 406 447 q 426 506 406 505 q 762 762 752 547 q 717 880 762 838 q 569 927 672 922 q 329 461 461 782 q 198 30 198 134 q 204 0 198 9 l 25 0 q 188 466 63 168 q 404 918 355 863 q 164 870 286 915 q 23 762 43 825 q 18 758 22 758 q 5 776 5 758 q 8 790 5 779 q 84 908 34 866 q 182 959 134 950 q 301 969 230 969 l 638 969 q 831 916 766 969 m 563 1252 q 668 1115 597 1252 q 845 1247 808 1247 q 870 1243 870 1247 l 870 1241 q 668 1061 737 1133 q 643 1047 655 1047 q 610 1078 632 1047 q 559 1157 588 1109 q 512 1225 529 1204 q 531 1241 512 1230 q 563 1252 551 1252 "},"ã":{"x_min":38.890625,"x_max":770.890625,"ha":657,"o":"m 618 555 l 687 554 l 701 554 q 588 364 655 516 q 522 143 522 212 q 547 106 522 106 q 752 344 627 106 q 762 354 758 354 q 770 328 770 354 q 757 279 770 302 q 470 -8 586 -8 q 395 106 395 -8 q 425 276 395 193 q 131 -4 266 -4 q 38 123 38 -4 q 81 320 38 220 q 202 491 123 420 q 376 561 281 561 q 459 541 420 561 q 511 476 498 520 q 558 531 526 508 q 618 555 590 555 m 502 463 q 437 508 488 508 q 259 381 345 508 q 173 154 173 254 q 206 111 173 111 q 291 156 243 111 q 379 262 340 201 q 502 463 465 398 m 712 823 q 601 723 654 723 q 511 748 569 723 q 418 773 452 773 q 359 752 384 773 q 333 732 334 732 q 318 745 318 732 q 354 798 318 758 q 424 838 390 838 q 522 813 458 838 q 614 787 586 787 q 659 802 643 787 q 684 830 675 816 q 702 844 694 844 q 715 833 715 844 q 712 823 715 829 "},"æ":{"x_min":38.890625,"x_max":975.078125,"ha":858,"o":"m 618 555 l 687 554 l 701 554 q 673 518 691 545 q 792 552 740 552 q 868 528 844 552 q 893 475 893 504 q 817 318 893 372 q 667 265 741 265 q 559 283 593 265 l 545 244 q 533 160 534 215 q 556 74 531 105 q 636 43 581 43 q 752 88 690 43 q 857 189 813 133 q 957 351 901 245 q 966 361 962 361 q 975 334 975 361 q 952 269 975 306 q 909 198 930 231 q 851 120 887 165 q 780 50 815 76 q 605 -13 693 -13 q 463 30 518 -13 q 408 163 408 75 q 430 266 408 211 q 270 63 340 131 q 131 -4 201 -4 q 38 123 38 -4 q 81 320 38 220 q 202 491 123 420 q 376 561 281 561 q 459 541 420 561 q 511 476 498 520 q 556 530 525 505 q 618 555 587 555 m 502 463 q 437 508 488 508 q 259 381 345 508 q 173 154 173 254 q 206 111 173 111 q 291 156 243 111 q 379 262 340 201 q 502 463 465 398 m 819 470 q 780 511 819 511 q 659 444 726 511 q 593 336 593 377 q 645 308 593 308 q 756 359 698 308 q 819 470 813 411 "},"®":{"x_min":56.953125,"x_max":1101.484375,"ha":1154,"o":"m 1097 476 q 900 140 1070 279 q 525 1 730 1 q 188 121 319 1 q 56 418 56 241 q 138 683 56 559 q 355 879 220 807 q 641 951 490 951 q 970 831 840 951 q 1101 533 1101 711 q 1097 476 1101 505 m 836 177 q 994 527 994 323 q 890 795 994 687 q 629 902 786 902 q 304 760 444 902 q 165 426 165 618 q 269 159 165 266 q 536 52 373 52 q 836 177 700 52 m 851 700 q 788 568 851 619 q 640 502 725 518 l 609 497 q 807 175 658 330 q 763 172 797 172 l 691 175 q 579 311 637 175 q 522 500 522 448 q 534 515 522 513 q 695 568 629 523 q 761 694 761 612 q 728 770 761 741 q 630 798 695 798 q 468 481 555 697 q 380 194 380 265 q 384 173 380 180 l 263 173 q 388 522 288 286 q 531 827 479 747 l 677 827 q 807 791 763 827 q 851 700 851 755 "},"ĩ":{"x_min":34.71875,"x_max":527.8125,"ha":301,"o":"m 258 555 l 327 554 l 341 554 q 282 463 319 537 q 227 352 245 390 q 186 251 209 315 q 163 147 163 187 q 190 106 163 106 q 240 131 208 106 q 294 182 273 155 q 341 251 315 209 q 385 323 366 293 q 406 354 404 354 q 415 328 415 354 q 401 279 415 302 q 307 135 350 193 q 211 34 265 77 q 112 -8 156 -8 q 34 100 34 -8 q 150 472 34 268 q 258 555 198 555 m 525 802 q 413 702 466 702 q 323 727 381 702 q 231 752 265 752 q 172 732 197 752 q 145 711 147 711 q 130 724 130 711 q 166 777 130 737 q 236 818 202 818 q 334 792 270 818 q 427 766 398 766 q 471 780 455 766 q 497 809 487 794 q 515 823 506 823 q 527 812 527 823 q 525 802 527 808 "},"É":{"x_min":13.890625,"x_max":858.40625,"ha":815,"o":"m 654 969 l 805 976 q 853 959 848 976 q 858 933 858 941 q 824 810 858 884 q 775 736 790 736 q 761 747 761 736 l 772 830 q 737 898 772 873 q 654 923 702 923 q 581 916 605 923 q 544 887 558 909 q 359 543 443 736 l 722 543 l 723 541 q 704 503 723 531 q 672 475 684 475 l 329 475 q 255 269 291 383 q 219 118 219 155 q 241 64 219 81 q 316 47 263 47 q 797 205 722 47 q 807 209 800 209 q 815 201 815 209 q 812 179 815 193 q 697 26 773 58 q 621 4 657 9 q 530 0 586 0 l 111 0 q 68 65 68 0 q 191 475 68 177 l 115 475 q 104 481 104 475 q 130 519 104 495 q 173 543 156 543 l 220 543 q 405 916 348 850 q 167 861 275 900 q 26 765 59 822 q 19 761 25 761 q 13 768 13 761 q 15 779 13 776 q 208 955 68 923 q 379 969 272 969 l 654 969 m 780 1125 q 633 1054 725 1101 q 537 1008 541 1008 q 520 1015 533 1008 q 506 1025 506 1022 q 597 1089 519 1032 q 701 1165 676 1147 q 718 1168 707 1168 q 756 1152 729 1168 q 783 1129 783 1137 q 780 1125 783 1126 "},"ŀ":{"x_min":41.671875,"x_max":673.671875,"ha":556,"o":"m 576 847 q 423 617 526 745 q 238 411 320 488 l 216 347 q 165 130 165 195 q 189 75 165 94 q 251 56 213 56 q 472 136 363 56 q 654 350 581 215 q 665 362 661 362 q 673 338 673 362 q 657 281 673 313 q 447 65 586 154 q 165 -23 308 -23 q 69 0 97 -23 q 41 80 41 23 q 136 461 41 197 q 168 554 143 483 q 211 664 193 625 q 259 769 229 704 q 318 873 290 834 q 381 952 347 912 q 529 1033 450 1033 q 608 961 608 1033 q 576 847 608 905 m 547 998 l 537 998 q 266 490 452 998 q 526 857 456 713 q 565 971 565 944 q 547 998 565 998 m 525 448 q 500 419 518 441 q 450 363 456 363 q 401 385 429 363 q 373 425 373 406 q 416 481 373 455 q 505 508 458 508 q 538 477 538 508 q 525 448 538 458 "},"~":{"x_min":313.90625,"x_max":847.296875,"ha":714,"o":"m 845 955 q 691 845 768 845 q 565 875 645 845 q 440 905 484 905 q 336 865 362 905 q 326 859 331 859 q 313 875 313 859 q 364 932 313 890 q 461 973 415 973 q 588 943 508 973 q 707 913 669 913 q 773 929 745 913 q 817 959 801 944 q 836 973 833 973 q 847 961 847 973 q 845 955 847 957 "},"³":{"x_min":5.5625,"x_max":659.78125,"ha":657,"o":"m 431 979 q 593 941 526 979 q 659 819 659 902 q 604 682 659 736 q 472 600 550 627 q 577 539 538 586 q 615 431 615 493 q 504 227 615 302 q 248 152 393 152 q 76 195 147 152 q 5 325 5 238 q 38 418 5 375 q 120 461 70 461 q 181 440 151 461 q 131 318 131 372 q 168 234 131 263 q 275 205 205 205 q 402 266 345 205 q 458 402 458 326 q 417 522 458 477 q 311 568 376 568 q 267 559 295 568 q 226 551 238 551 q 203 561 213 551 q 193 586 193 570 q 209 613 193 601 q 260 625 226 625 q 329 612 294 625 q 455 693 402 630 q 508 826 508 757 q 481 900 508 872 q 395 929 454 929 q 292 880 336 929 q 248 769 248 832 q 258 718 248 741 q 213 705 238 705 q 168 729 187 705 q 148 798 148 754 q 177 880 148 843 q 248 938 205 918 q 431 979 336 979 "},"¡":{"x_min":20.828125,"x_max":522.265625,"ha":521,"o":"m 519 680 q 474 648 504 677 q 434 601 444 619 q 366 658 366 623 q 396 707 366 683 q 465 730 426 730 q 522 695 522 730 q 519 680 522 691 m 116 -155 l 34 -150 q 27 -150 31 -150 q 20 -151 22 -151 q 208 171 97 -41 q 334 430 319 384 l 391 441 q 292 170 368 388 q 188 -122 216 -47 q 116 -155 176 -155 "},"[":{"x_min":18.0625,"x_max":726.453125,"ha":632,"o":"m 388 988 l 726 988 l 704 922 l 491 922 l 165 -40 l 377 -40 l 355 -106 l 18 -106 q 388 988 372 940 "},"L":{"x_min":-13.890625,"x_max":786.171875,"ha":792,"o":"m 783 179 q 669 26 744 58 q 593 4 629 9 q 502 0 558 0 l 81 0 q 26 77 26 0 q 358 875 26 276 q 384 918 383 915 q 145 870 266 915 q 4 762 23 825 q -1 758 2 758 q -13 776 -13 758 q -2 813 -13 779 q 41 886 9 848 q 113 941 73 923 q 281 969 181 969 l 597 969 q 450 765 540 926 q 275 411 361 604 q 190 137 190 219 q 288 47 190 47 q 769 205 691 47 q 776 209 772 209 q 786 195 786 209 q 783 179 786 193 "}," ":{"x_min":0,"x_max":0,"ha":417},"%":{"x_min":119.453125,"x_max":822.28125,"ha":931,"o":"m 801 933 q 683 812 758 869 l 222 0 q 181 -6 219 -6 q 144 -1 144 -6 l 144 0 l 600 798 q 561 793 580 793 q 469 827 504 793 q 470 791 470 816 q 409 603 470 693 q 247 513 347 513 q 151 557 183 513 q 119 669 119 601 q 181 857 119 770 q 341 944 244 944 q 442 897 404 944 q 527 850 480 850 q 620 879 573 850 q 693 951 668 909 q 757 975 707 975 q 807 947 807 975 q 801 933 807 944 m 813 202 q 735 55 793 118 q 605 -6 677 -6 q 501 36 533 -6 q 469 150 469 80 q 531 338 469 251 q 691 425 594 425 q 790 381 758 425 q 822 270 822 337 q 813 202 822 236 m 281 587 q 342 622 311 587 q 390 706 373 657 q 406 797 406 755 q 348 883 406 883 q 261 816 301 883 q 220 675 220 750 q 236 611 220 634 q 281 587 251 587 m 627 68 q 693 102 661 68 q 741 186 725 137 q 757 276 757 234 q 698 362 757 362 q 611 295 651 362 q 570 148 570 229 q 627 68 570 68 "},"P":{"x_min":19.453125,"x_max":922.296875,"ha":681,"o":"m 922 761 q 863 600 913 669 q 736 494 813 531 q 391 419 587 419 q 327 423 356 419 q 212 30 212 131 q 218 0 212 9 l 38 0 q 202 466 77 168 q 418 918 369 863 q 178 870 300 915 q 37 762 56 825 q 31 758 36 758 q 19 776 19 758 q 22 790 19 779 q 98 908 48 866 q 196 959 148 950 q 315 969 244 969 l 666 969 q 857 915 793 969 q 922 779 922 861 l 922 761 m 352 445 q 552 480 452 445 q 715 586 651 515 q 779 757 779 658 q 587 927 779 915 q 365 513 495 813 l 336 445 l 352 445 "},"À":{"x_min":-66.671875,"x_max":1108.421875,"ha":1129,"o":"m 566 969 l 877 969 q 757 916 843 934 q 562 888 670 898 q 420 870 454 877 q 272 693 272 836 q 229 788 229 737 q 566 969 229 969 m 948 969 l 1048 969 q 918 635 984 908 q 852 213 852 362 q 891 68 852 108 q 933 50 908 50 q 986 68 958 50 l 994 55 q 925 7 975 27 q 826 -12 875 -12 q 727 38 754 -12 q 697 176 701 90 q 715 359 697 247 l 397 359 q 72 0 190 140 l -66 0 q 338 391 63 119 q 804 880 693 744 q 845 927 832 913 q 888 954 859 940 q 948 969 916 969 m 805 773 q 458 429 647 625 l 725 429 q 805 773 750 566 m 936 1083 q 853 1123 876 1113 q 830 1136 830 1133 q 858 1159 830 1144 q 897 1175 886 1175 q 913 1172 908 1175 q 986 1119 938 1154 l 1066 1059 q 1108 1032 1098 1036 q 1094 1021 1108 1027 q 1077 1015 1080 1015 q 1034 1034 1073 1015 l 936 1083 "},"_":{"x_min":-65.28125,"x_max":1054.25,"ha":1053,"o":"m 0 -138 l 1052 -138 q 1054 -145 1054 -138 q 1027 -190 1054 -152 q 988 -229 1001 -229 l -63 -229 q -65 -222 -65 -229 q -39 -177 -65 -215 q 0 -138 -13 -138 "},"Ŕ":{"x_min":5.5625,"x_max":895.90625,"ha":925,"o":"m 831 916 q 895 780 895 862 q 847 636 895 698 q 581 488 761 522 l 537 480 q 829 2 607 238 q 765 -1 808 -1 l 658 2 q 541 111 602 2 q 443 334 479 220 q 406 484 406 447 q 426 506 406 505 q 762 762 752 547 q 717 880 762 838 q 569 927 672 922 q 329 461 461 782 q 198 30 198 134 q 204 0 198 9 l 25 0 q 188 466 63 168 q 404 918 355 863 q 164 870 286 915 q 23 762 43 825 q 18 758 22 758 q 5 776 5 758 q 8 790 5 779 q 84 908 34 866 q 182 959 134 950 q 301 969 230 969 l 638 969 q 831 916 766 969 m 869 1125 q 722 1054 813 1101 q 626 1008 630 1008 q 609 1015 622 1008 q 595 1025 595 1022 q 686 1089 608 1032 q 790 1165 765 1147 q 807 1168 795 1168 q 845 1152 818 1168 q 872 1129 872 1137 q 869 1125 872 1126 "},"ñ":{"x_min":-29.171875,"x_max":719.5,"ha":606,"o":"m 705 279 q 611 135 654 193 q 515 34 569 77 q 416 -8 461 -8 q 334 81 334 -8 q 438 444 334 172 q 444 470 444 456 q 407 500 444 500 q 335 477 370 500 q 270 411 300 454 q 218 325 241 369 q 174 225 194 281 q 142 129 154 168 q 118 47 130 91 q 105 0 106 4 l -29 0 q 93 334 -29 29 q 143 534 143 477 q 138 555 143 548 l 197 555 q 259 545 245 555 q 273 519 273 536 q 258 451 273 502 q 493 562 375 562 q 572 490 572 562 q 565 443 572 466 q 530 348 558 419 q 469 140 469 193 q 494 106 469 106 q 545 131 512 106 q 599 184 577 156 q 646 252 620 211 q 690 323 672 293 q 711 354 708 354 q 719 328 719 354 q 705 279 719 302 m 627 807 q 516 707 569 707 q 426 732 484 707 q 334 757 368 757 q 275 736 300 757 q 248 715 250 715 q 233 728 233 715 q 269 782 233 741 q 339 822 305 822 q 437 796 373 822 q 529 770 501 770 q 574 785 558 770 q 600 813 590 800 q 618 827 609 827 q 630 816 630 827 q 627 807 630 812 "},"+":{"x_min":62.5,"x_max":973.6875,"ha":1003,"o":"m 150 522 l 480 511 q 587 797 556 701 q 644 833 591 813 q 711 852 697 852 q 725 851 725 852 l 725 850 q 572 511 590 552 q 972 518 886 513 q 973 515 973 518 q 938 465 973 502 q 886 427 904 427 l 541 440 q 463 255 502 361 q 412 102 423 150 q 354 66 408 86 q 287 47 301 47 q 273 48 273 47 l 273 50 q 452 441 344 180 q 127 436 191 441 q 62 433 62 431 q 97 484 62 445 q 150 522 131 522 "},"‚":{"x_min":154.171875,"x_max":355.578125,"ha":392,"o":"m 325 148 q 355 88 355 130 q 334 6 355 47 q 291 -64 312 -33 q 234 -129 270 -95 q 169 -163 198 -163 q 154 -161 162 -163 q 214 -77 173 -138 q 256 0 255 -16 l 248 0 q 201 52 201 0 q 229 125 201 93 q 294 156 258 156 q 325 148 309 156 "},"½":{"x_min":0,"x_max":1288.984375,"ha":1320,"o":"m 1288 644 q 1238 499 1288 556 q 1125 408 1187 441 q 998 344 1063 375 q 752 168 830 268 q 1090 91 970 91 q 1194 176 1194 91 l 1220 176 q 1180 38 1220 91 q 1052 -15 1140 -15 q 941 16 1000 -15 q 834 80 882 48 q 762 112 787 112 q 725 93 737 112 q 711 51 712 75 q 666 -9 707 -9 q 632 45 632 -9 q 816 309 632 173 q 1077 519 1029 456 q 1130 652 1130 588 q 1107 717 1130 693 q 1031 741 1084 741 q 929 690 977 741 q 882 577 882 638 q 888 538 882 559 q 841 525 866 525 q 797 548 816 525 q 777 609 777 572 q 830 719 777 675 q 1062 798 922 798 q 1288 644 1288 798 m 863 963 l 91 -80 q 54 -84 88 -84 q 19 -75 19 -84 l 19 -73 l 791 970 q 829 975 795 975 q 863 965 863 975 l 863 963 m 269 1030 l 419 1030 q 261 604 358 887 q 147 236 163 322 l 0 236 q 205 777 31 311 l 261 929 l 106 790 l 40 790 l 269 1030 "},"Æ":{"x_min":-66.671875,"x_max":1432.0625,"ha":1386,"o":"m 1227 969 l 1379 976 q 1427 959 1422 976 q 1432 933 1432 941 q 1398 810 1432 884 q 1349 736 1364 736 q 1334 747 1334 736 l 1345 830 q 1311 898 1345 873 q 1227 923 1276 923 q 1155 916 1179 923 q 1118 887 1132 909 q 933 543 1016 736 l 1295 543 l 1297 541 q 1277 503 1297 531 q 1245 475 1258 475 l 902 475 q 829 269 865 383 q 793 118 793 155 q 815 64 793 81 q 890 47 837 47 q 1370 205 1295 47 q 1380 209 1372 209 q 1389 201 1389 209 q 1386 179 1389 193 q 1270 26 1347 58 q 1195 4 1230 9 q 1104 0 1159 0 l 684 0 q 641 66 641 0 q 719 359 641 159 l 397 359 q 72 0 190 140 l -66 0 q 338 391 63 119 q 804 880 693 744 q 845 927 832 913 q 888 954 859 940 q 948 969 916 969 l 1227 969 m 977 927 q 845 822 926 895 q 707 691 763 750 q 458 429 536 516 l 745 429 l 794 543 q 979 916 920 847 q 978 921 979 918 q 977 927 977 925 m 566 969 l 877 969 q 757 916 843 934 q 562 888 670 898 q 420 870 454 877 q 272 693 272 836 q 229 788 229 737 q 566 969 229 969 "},"Ë":{"x_min":13.890625,"x_max":858.40625,"ha":815,"o":"m 654 969 l 805 976 q 853 959 848 976 q 858 933 858 941 q 824 810 858 884 q 775 736 790 736 q 761 747 761 736 l 772 830 q 737 898 772 873 q 654 923 702 923 q 581 916 605 923 q 544 887 558 909 q 359 543 443 736 l 722 543 l 723 541 q 704 503 723 531 q 672 475 684 475 l 329 475 q 255 269 291 383 q 219 118 219 155 q 241 64 219 81 q 316 47 263 47 q 797 205 722 47 q 807 209 800 209 q 815 201 815 209 q 812 179 815 193 q 697 26 773 58 q 621 4 657 9 q 530 0 586 0 l 111 0 q 68 65 68 0 q 191 475 68 177 l 115 475 q 104 481 104 475 q 130 519 104 495 q 173 543 156 543 l 220 543 q 405 916 348 850 q 167 861 275 900 q 26 765 59 822 q 19 761 25 761 q 13 768 13 761 q 15 779 13 776 q 208 955 68 923 q 379 969 272 969 l 654 969 m 833 1123 q 775 1085 805 1116 q 730 1054 745 1054 q 701 1077 701 1054 q 735 1150 701 1101 q 798 1198 769 1198 q 827 1177 813 1198 q 841 1141 841 1157 q 833 1123 841 1125 m 573 1123 q 516 1085 545 1116 q 470 1054 486 1054 q 441 1077 441 1054 q 475 1150 441 1101 q 538 1198 509 1198 q 568 1177 554 1198 q 581 1141 581 1157 q 573 1123 581 1125 "},"'":{"x_min":130.5625,"x_max":355.578125,"ha":199,"o":"m 355 902 q 250 720 316 812 q 150 627 184 627 q 130 633 140 627 q 237 905 215 759 q 297 923 238 923 q 355 905 355 923 l 355 902 "},"Š":{"x_min":16.671875,"x_max":862.5625,"ha":756,"o":"m 553 994 q 737 952 682 994 q 793 852 793 911 q 753 742 793 793 q 643 691 713 691 q 572 751 572 691 q 575 773 572 757 q 640 802 612 773 q 668 866 668 832 q 634 923 668 901 q 554 945 601 945 q 420 897 473 945 q 368 783 368 848 q 393 707 368 748 q 441 641 418 665 q 516 568 463 616 q 577 511 568 520 q 683 281 683 405 q 570 64 683 156 q 301 -27 458 -27 q 95 13 173 -27 q 16 144 16 55 q 48 233 16 193 q 139 273 80 273 q 219 231 198 273 q 170 138 170 193 q 207 53 170 83 q 304 23 244 23 q 450 83 387 23 q 513 234 513 143 q 394 451 513 325 q 345 503 393 454 q 267 604 298 552 q 236 726 236 655 q 330 920 236 847 q 553 994 425 994 m 504 1290 q 523 1307 504 1295 q 559 1318 543 1318 q 606 1271 575 1318 q 659 1180 637 1225 q 837 1312 800 1312 q 862 1308 862 1312 l 862 1307 q 659 1126 729 1198 q 635 1112 647 1112 q 602 1143 623 1112 q 550 1222 580 1175 q 504 1290 520 1269 "},"ª":{"x_min":38.890625,"x_max":772.28125,"ha":657,"o":"m 618 975 l 687 973 l 701 973 q 588 784 655 936 q 522 562 522 632 q 547 526 522 526 q 548 526 548 526 q 597 550 566 526 q 650 602 627 573 q 697 672 672 630 q 742 744 723 713 q 763 775 761 775 q 772 748 772 775 q 757 700 772 722 q 663 556 707 615 q 566 454 619 497 q 470 411 513 411 q 395 526 395 411 q 425 695 395 612 q 131 415 266 415 q 38 543 38 415 q 81 740 38 640 q 202 910 123 840 q 376 980 281 980 q 459 960 420 980 q 511 895 498 940 q 558 951 526 927 q 618 975 590 975 m 502 883 q 437 927 488 927 q 259 800 345 927 q 173 573 173 673 q 206 530 173 530 q 291 575 243 530 q 379 682 340 620 q 502 883 465 818 "},"ĳ":{"x_min":-168.0625,"x_max":719.5,"ha":600,"o":"m 447 738 l 441 738 q 388 715 413 738 q 351 666 362 691 q 315 716 315 680 q 348 789 315 752 q 412 826 381 826 q 458 812 443 826 q 473 777 473 798 q 447 738 473 755 m 258 555 l 327 554 l 341 554 q 282 463 319 537 q 227 352 245 390 q 186 251 209 315 q 163 147 163 187 q 190 106 163 106 q 240 131 208 106 q 294 182 273 155 q 341 251 315 209 q 385 323 366 293 q 406 354 404 354 q 415 328 415 354 q 401 279 415 302 q 307 135 350 193 q 211 34 265 77 q 112 -8 156 -8 q 34 100 34 -8 q 150 472 34 268 q 258 555 198 555 m 531 541 l 587 541 q 538 488 556 523 q 511 434 520 452 q 486 375 501 415 l 463 313 q 415 183 436 244 q 386 101 394 122 q 359 31 379 80 q 325 -43 338 -16 q 286 -113 311 -69 q 238 -183 261 -158 q 184 -239 216 -208 q 119 -287 151 -270 q -27 -327 40 -327 q -168 -241 -168 -327 q -146 -175 -168 -206 q -88 -144 -125 -144 q -38 -173 -51 -144 q -60 -202 -52 -181 q -68 -242 -68 -223 q -53 -274 -68 -261 q -13 -287 -38 -287 q 195 -63 102 -286 q 283 175 229 15 q 416 508 381 470 q 531 541 450 541 m 693 738 l 687 738 q 634 715 659 738 q 597 666 608 691 q 561 716 561 680 q 594 789 561 752 q 658 826 627 826 q 704 812 688 826 q 719 777 719 798 q 693 738 719 755 "},"Œ":{"x_min":4.171875,"x_max":1589.015625,"ha":1553,"o":"m 1384 969 l 1536 976 q 1584 959 1579 976 q 1589 933 1589 941 q 1554 810 1589 884 q 1506 736 1520 736 q 1491 747 1491 736 l 1502 830 q 1468 898 1502 873 q 1384 923 1433 923 q 1312 916 1336 923 q 1275 887 1288 909 q 1090 543 1173 736 l 1452 543 l 1454 541 q 1434 503 1454 531 q 1402 475 1415 475 l 1059 475 q 986 269 1022 383 q 950 118 950 155 q 972 64 950 81 q 1047 47 994 47 q 1527 205 1448 47 q 1534 209 1530 209 q 1545 194 1545 209 q 1534 154 1545 190 q 1495 81 1523 119 q 1427 26 1468 43 q 1352 4 1387 9 q 1261 0 1316 0 l 841 0 q 798 66 798 0 q 808 145 798 91 q 348 -44 611 -44 q 4 259 4 -44 q 61 529 4 397 q 213 761 119 662 q 437 922 308 861 q 707 983 566 983 q 932 923 847 983 q 1043 761 1018 863 q 1112 900 1084 854 q 1114 935 1115 913 q 1118 963 1113 957 q 1137 969 1122 969 l 1384 969 m 938 693 q 736 919 938 919 q 454 818 588 919 q 243 563 320 716 q 166 258 166 411 q 215 80 166 148 q 370 12 263 12 q 583 76 476 12 q 766 239 690 140 q 891 460 843 338 q 938 693 938 581 "},"˛":{"x_min":633.390625,"x_max":904.234375,"ha":931,"o":"m 890 -256 q 709 -416 791 -416 q 655 -388 677 -416 q 633 -315 633 -361 q 707 -87 633 -194 q 890 19 782 19 q 904 12 904 19 q 890 -1 904 1 q 775 -107 819 -23 q 730 -269 730 -191 q 741 -321 730 -302 q 769 -340 752 -340 q 875 -244 805 -340 q 895 -223 890 -223 q 900 -232 900 -223 q 890 -256 900 -241 "},"ð":{"x_min":-27.78125,"x_max":623.65625,"ha":670,"o":"m 452 848 q 578 652 533 766 q 623 429 623 537 q 581 219 623 320 q 450 45 540 118 q 252 -27 359 -27 q 92 43 144 -27 q 40 220 40 115 q 82 422 40 326 q 206 584 125 518 q 386 650 287 650 q 405 642 405 650 q 383 626 405 634 q 274 540 323 607 q 199 391 225 473 q 173 231 173 308 q 313 51 173 51 q 461 140 405 51 q 518 338 518 230 q 472 569 518 447 q 355 784 427 691 q 168 663 236 709 l 166 663 q 163 679 163 663 q 181 751 163 740 l 312 834 q 116 936 215 936 q 59 887 59 936 q 80 837 59 863 q 101 797 101 811 q 86 772 101 783 q 45 761 72 761 q -4 789 19 761 q -27 862 -27 818 q 17 943 -27 907 q 156 979 62 979 q 402 893 293 979 l 525 973 q 529 957 529 973 q 512 886 529 898 l 452 848 "},"T":{"x_min":0,"x_max":1052.859375,"ha":556,"o":"m 840 870 l 644 879 q 552 713 630 879 q 418 391 475 547 q 361 167 361 236 q 404 98 361 98 q 515 188 448 98 q 529 197 522 197 q 536 184 536 197 q 517 138 536 172 q 468 67 498 105 q 388 0 437 29 q 288 -30 340 -30 q 212 75 212 -30 q 344 519 212 205 q 518 886 438 740 l 500 886 l 356 888 q 148 858 237 888 q 71 809 100 841 q 43 730 43 776 l 54 672 q 40 658 54 658 q 11 693 22 658 q 0 755 0 729 q 30 866 0 820 q 113 936 61 912 q 334 980 213 980 q 608 966 455 980 q 886 951 761 951 q 1048 990 1011 951 q 1052 970 1052 980 q 994 897 1052 925 q 840 870 936 870 "},"š":{"x_min":50,"x_max":658.390625,"ha":557,"o":"m 640 281 q 527 115 577 176 q 401 15 477 55 q 238 -23 325 -23 q 100 5 151 -23 q 50 88 50 34 q 69 150 50 122 q 122 179 88 179 q 166 154 156 179 q 140 93 140 127 q 218 23 140 23 q 297 55 263 23 q 331 125 331 87 q 315 193 331 163 q 275 244 298 222 q 227 288 251 266 q 170 414 170 344 q 225 531 170 484 q 370 579 279 579 q 469 558 429 579 q 509 493 509 537 q 483 418 509 450 q 411 386 456 386 q 366 427 366 386 q 398 456 366 437 q 430 497 430 476 q 413 528 430 518 q 363 538 395 538 q 302 516 331 538 q 272 458 272 494 q 302 390 272 422 q 369 336 333 358 q 436 274 405 313 q 466 190 466 234 q 446 112 466 147 q 398 56 426 77 q 493 128 445 76 q 569 231 540 180 q 620 321 598 281 q 649 361 643 361 q 655 334 655 361 q 640 281 655 306 m 300 841 q 319 858 300 847 q 351 869 338 869 q 455 732 386 869 q 633 863 595 863 q 658 859 658 863 l 658 858 q 455 677 525 750 q 431 663 443 663 q 397 695 419 663 q 346 773 376 726 q 300 841 316 820 "},"Þ":{"x_min":-75,"x_max":829.234375,"ha":693,"o":"m 586 1005 l 645 1001 q 686 1004 665 1001 q 505 762 630 968 l 570 762 q 763 707 698 762 q 829 566 829 651 q 677 314 829 416 q 295 212 525 212 q 231 216 263 212 q 116 -177 116 -75 q 122 -206 116 -193 l -56 -206 q 177 425 -1 22 q 208 495 184 440 q 288 657 250 598 l 316 711 q 81 662 200 708 q -56 555 -37 616 q -62 551 -58 551 q -75 569 -75 551 q -63 606 -75 572 q -19 679 -51 641 q 52 733 12 716 q 220 762 120 762 l 344 762 q 452 940 402 870 q 586 1005 501 1005 m 256 238 q 457 273 358 238 q 620 379 556 308 q 683 550 683 450 q 493 720 683 709 q 269 306 394 594 l 240 238 l 256 238 "},"j":{"x_min":-413.921875,"x_max":473.65625,"ha":299,"o":"m 286 541 l 341 541 q 293 488 311 523 q 265 434 275 452 q 240 375 255 415 q 216 313 240 375 q 169 183 190 244 q 140 101 148 122 q 113 31 133 80 q 79 -43 93 -16 q 40 -113 65 -69 q -6 -183 15 -158 q -61 -239 -29 -208 q -127 -287 -94 -270 q -273 -327 -205 -327 q -413 -241 -413 -327 q -392 -175 -413 -206 q -334 -144 -370 -144 q -284 -173 -297 -144 q -306 -202 -298 -181 q -313 -242 -313 -223 q -299 -274 -313 -261 q -259 -287 -284 -287 q -50 -63 -143 -286 q 36 175 -16 15 q 170 508 136 470 q 286 541 204 541 m 447 738 l 441 738 q 388 715 413 738 q 351 666 362 691 q 315 716 315 680 q 348 789 315 752 q 412 826 381 826 q 458 812 443 826 q 473 777 473 798 q 447 738 473 755 "},"1":{"x_min":33.34375,"x_max":541.703125,"ha":485,"o":"m 366 983 l 541 983 q 343 456 466 809 q 201 0 220 102 l 33 0 q 297 683 77 100 l 369 877 l 172 694 l 123 694 l 366 983 "},"›":{"x_min":172.234375,"x_max":658.390625,"ha":615,"o":"m 630 462 q 658 431 658 441 q 623 400 658 420 q 179 106 390 269 q 175 105 177 105 q 172 111 172 105 q 300 244 172 147 q 548 413 429 341 q 284 659 343 559 q 283 670 283 661 q 308 702 283 680 q 341 725 333 725 q 351 723 350 725 q 630 462 497 558 "},"ı":{"x_min":34.71875,"x_max":415.3125,"ha":301,"o":"m 258 555 l 327 554 l 341 554 q 282 463 319 537 q 227 352 245 390 q 186 251 209 315 q 163 147 163 187 q 190 106 163 106 q 240 131 208 106 q 294 182 273 155 q 341 251 315 209 q 385 323 366 293 q 406 354 404 354 q 415 328 415 354 q 401 279 415 302 q 307 135 350 193 q 211 34 265 77 q 112 -8 156 -8 q 34 100 34 -8 q 150 472 34 268 q 258 555 198 555 "},"ä":{"x_min":38.890625,"x_max":770.890625,"ha":657,"o":"m 618 555 l 687 554 l 701 554 q 588 364 655 516 q 522 143 522 212 q 547 106 522 106 q 752 344 627 106 q 762 354 758 354 q 770 328 770 354 q 757 279 770 302 q 470 -8 586 -8 q 395 106 395 -8 q 425 276 395 193 q 131 -4 266 -4 q 38 123 38 -4 q 81 320 38 220 q 202 491 123 420 q 376 561 281 561 q 459 541 420 561 q 511 476 498 520 q 558 531 526 508 q 618 555 590 555 m 502 463 q 437 508 488 508 q 259 381 345 508 q 173 154 173 254 q 206 111 173 111 q 291 156 243 111 q 379 262 340 201 q 502 463 465 398 m 708 775 q 650 736 680 768 q 605 705 620 705 q 576 729 576 705 q 610 801 576 752 q 673 850 644 850 q 702 829 688 850 q 716 792 716 808 q 708 775 716 776 m 448 775 q 391 736 420 768 q 345 705 361 705 q 316 729 316 705 q 350 801 316 752 q 413 850 384 850 q 443 829 429 850 q 456 792 456 808 q 448 775 456 776 "},"<":{"x_min":36.109375,"x_max":641.71875,"ha":665,"o":"m 634 801 q 638 802 636 802 q 641 788 641 802 q 620 744 641 773 q 425 587 581 698 q 172 418 268 476 q 502 111 433 231 q 504 102 504 108 q 472 56 504 83 q 423 29 440 29 q 419 30 420 29 q 70 356 236 237 q 36 395 36 380 q 77 434 36 411 q 634 801 365 597 "},"£":{"x_min":27.78125,"x_max":879.234375,"ha":893,"o":"m 788 236 q 848 213 818 234 q 879 148 879 191 q 817 38 879 88 q 666 -12 755 -12 q 491 18 576 -12 q 340 81 405 50 q 246 113 275 113 q 191 94 218 113 q 147 50 165 75 q 61 -12 102 -12 q 27 31 27 -12 q 67 112 27 76 q 163 155 106 148 q 287 448 209 230 l 159 448 q 158 455 158 448 q 174 488 158 462 q 201 513 190 513 l 311 513 q 548 916 425 829 q 662 957 605 957 q 745 929 719 957 q 772 864 772 901 q 761 801 772 827 q 741 775 751 775 q 738 777 738 775 q 686 850 727 850 q 440 513 597 850 l 604 513 q 605 506 605 513 q 590 473 605 498 q 563 448 575 448 l 409 448 l 388 401 q 254 155 311 225 q 420 122 286 151 q 634 94 555 94 q 795 184 795 94 q 777 223 795 211 l 777 225 q 782 231 777 227 q 788 236 786 236 "},"¹":{"x_min":0,"x_max":419.484375,"ha":404,"o":"m 269 980 l 419 980 q 261 554 358 837 q 147 186 163 272 l 0 186 q 205 727 31 261 l 261 879 l 106 740 l 40 740 l 269 980 "},"t":{"x_min":52.78125,"x_max":480.59375,"ha":346,"o":"m 480 795 q 327 554 412 748 l 468 554 l 469 552 q 454 528 469 545 q 427 511 438 511 l 308 511 q 198 161 198 238 q 231 108 198 108 q 345 191 280 108 q 386 252 361 209 q 452 355 450 355 q 461 333 461 355 q 345 127 459 280 q 255 34 308 77 q 159 -8 202 -8 q 80 102 80 -8 q 125 316 80 195 l 125 318 q 79 245 98 269 q 58 222 61 222 q 52 239 52 222 q 71 295 52 256 q 122 397 90 334 q 176 511 155 459 l 83 511 q 79 517 79 511 q 89 538 79 523 q 105 554 100 554 l 211 554 q 413 794 311 794 q 480 795 473 794 "},"¬":{"x_min":4.171875,"x_max":987.578125,"ha":1126,"o":"m 987 454 l 961 312 q 890 25 905 25 q 868 43 872 25 l 897 448 l 4 436 l 4 498 l 929 512 q 966 494 944 512 q 987 454 987 476 "},"ù":{"x_min":37.5,"x_max":738.953125,"ha":624,"o":"m 577 559 l 644 558 q 670 559 665 558 q 559 375 632 533 q 486 148 486 218 q 513 106 486 106 q 563 130 531 106 q 616 182 594 154 q 664 252 638 211 q 709 325 690 294 q 730 355 727 355 q 738 329 738 355 q 723 279 738 302 q 436 -8 551 -8 q 358 106 358 -8 q 363 176 358 143 q 115 -8 233 -8 q 59 20 80 -8 q 37 106 37 50 q 77 295 37 163 q 176 511 118 426 q 206 536 190 531 q 266 541 222 541 l 333 541 q 258 413 298 494 q 166 134 166 223 q 204 81 166 81 q 295 155 243 81 q 409 346 348 229 q 479 479 469 463 q 577 559 530 559 m 401 752 q 318 792 341 782 q 295 804 295 802 q 323 827 295 812 q 362 843 351 843 q 379 840 373 843 q 452 786 404 822 l 531 727 q 573 700 563 704 q 559 689 573 695 q 542 683 545 683 q 500 702 538 683 l 401 752 "},"W":{"x_min":13.890625,"x_max":1532.0625,"ha":1389,"o":"m 1532 843 l 1532 820 q 1447 501 1532 680 q 1238 186 1362 322 q 1082 61 1172 113 q 901 8 993 8 q 729 266 729 8 q 754 486 729 361 q 538 144 641 263 q 265 -5 408 -5 q 157 43 200 -5 q 115 198 115 91 q 214 545 115 338 q 451 873 313 751 q 513 911 476 897 q 351 888 461 900 q 205 868 241 876 q 56 690 56 834 q 13 786 13 734 q 366 969 13 969 l 651 969 q 654 964 654 969 q 636 940 654 959 q 604 911 619 920 q 466 761 544 875 q 325 491 388 647 q 261 211 261 334 q 348 87 261 87 q 657 398 447 87 q 755 593 700 463 q 833 766 811 723 q 913 852 855 808 q 1018 895 970 895 q 1066 882 1066 895 q 927 611 993 782 q 862 284 862 440 q 975 87 862 94 q 1117 156 1047 87 q 1235 317 1187 226 q 1325 522 1283 408 q 1395 825 1395 712 q 1322 937 1395 937 q 1272 927 1300 937 q 1306 968 1275 952 q 1388 984 1337 984 q 1483 949 1439 984 q 1532 843 1527 913 "},"ï":{"x_min":34.71875,"x_max":516.703125,"ha":301,"o":"m 258 555 l 327 554 l 341 554 q 282 463 319 537 q 227 352 245 390 q 186 251 209 315 q 163 147 163 187 q 190 106 163 106 q 240 131 208 106 q 294 182 273 155 q 341 251 315 209 q 385 323 366 293 q 406 354 404 354 q 415 328 415 354 q 401 279 415 302 q 307 135 350 193 q 211 34 265 77 q 112 -8 156 -8 q 34 100 34 -8 q 150 472 34 268 q 258 555 198 555 m 508 776 q 450 738 480 769 q 405 707 420 707 q 376 730 376 707 q 410 802 376 754 q 473 851 444 851 q 502 830 488 851 q 516 793 516 809 q 508 776 516 777 m 248 776 q 190 738 220 769 q 145 707 161 707 q 116 730 116 707 q 150 802 116 754 q 213 851 184 851 q 243 830 229 851 q 256 793 256 809 q 248 776 256 777 "},">":{"x_min":111.125,"x_max":718.109375,"ha":665,"o":"m 683 475 q 718 435 718 451 q 676 395 718 419 q 119 30 381 229 q 113 27 116 27 q 111 34 111 27 q 133 86 111 63 q 324 240 170 131 q 581 413 477 348 q 388 567 486 480 q 251 720 290 654 q 248 729 248 726 q 281 775 248 748 q 330 802 313 802 q 334 801 333 802 q 683 475 518 594 "},"v":{"x_min":34.71875,"x_max":668.109375,"ha":561,"o":"m 658 275 q 515 173 601 173 q 413 251 443 173 q 244 36 293 69 q 111 -9 176 -9 q 56 22 77 -9 q 34 111 34 55 q 69 280 34 168 q 226 538 137 501 q 343 556 269 556 q 348 551 348 556 q 340 537 348 545 q 225 347 287 493 q 163 142 163 202 q 209 81 163 81 q 300 159 248 81 q 386 329 351 236 q 379 410 379 361 q 403 509 379 459 q 470 558 427 558 q 513 494 513 558 q 468 341 513 419 q 451 311 455 319 q 472 244 452 268 q 525 220 493 220 q 618 283 575 220 q 647 328 634 308 q 662 348 661 348 q 668 319 668 348 q 658 275 668 290 "},"û":{"x_min":37.5,"x_max":738.953125,"ha":624,"o":"m 577 559 l 644 558 q 670 559 665 558 q 559 375 632 533 q 486 148 486 218 q 513 106 486 106 q 563 130 531 106 q 616 182 594 154 q 664 252 638 211 q 709 325 690 294 q 730 355 727 355 q 738 329 738 355 q 723 279 738 302 q 436 -8 551 -8 q 358 106 358 -8 q 363 176 358 143 q 115 -8 233 -8 q 59 20 80 -8 q 37 106 37 50 q 77 295 37 163 q 176 511 118 426 q 206 536 190 531 q 266 541 222 541 l 333 541 q 258 413 298 494 q 166 134 166 223 q 204 81 166 81 q 295 155 243 81 q 409 346 348 229 q 479 479 469 463 q 577 559 530 559 m 662 701 l 662 700 q 642 684 662 695 q 611 673 622 673 q 557 723 591 673 q 506 811 523 773 q 404 722 461 766 q 326 679 348 679 q 304 683 304 679 l 304 684 q 506 865 437 793 q 529 877 518 877 q 563 846 541 877 q 615 768 584 815 q 662 701 645 722 "},"Ò":{"x_min":4.171875,"x_max":1054.25,"ha":1060,"o":"m 997 420 q 735 84 905 212 q 348 -44 565 -44 q 4 259 4 -44 q 61 529 4 397 q 213 761 119 662 q 437 922 308 861 q 701 983 566 983 q 966 896 877 983 q 1054 679 1054 809 q 997 420 1054 550 m 938 693 q 736 919 938 919 q 454 818 588 919 q 243 563 320 716 q 166 258 166 411 q 215 80 166 148 q 370 12 263 12 q 583 76 476 12 q 766 239 690 140 q 891 460 843 338 q 938 693 938 581 m 700 1108 q 617 1148 640 1138 q 594 1161 594 1158 q 622 1184 594 1169 q 661 1200 650 1200 q 677 1197 672 1200 q 750 1144 702 1179 l 830 1084 q 872 1057 862 1061 q 858 1046 872 1052 q 841 1040 844 1040 q 798 1059 837 1040 l 700 1108 "},"&":{"x_min":18.0625,"x_max":1038.96875,"ha":1096,"o":"m 537 470 l 476 480 q 261 384 350 480 q 172 190 172 287 q 222 62 172 113 q 362 11 272 11 q 600 90 511 11 q 688 255 688 169 q 612 341 688 341 q 570 312 588 341 q 551 261 552 283 q 529 321 529 287 q 567 390 529 355 q 666 444 605 425 l 876 508 q 1034 593 1016 550 q 1038 566 1038 584 q 997 472 1038 505 q 900 429 955 438 q 636 361 701 394 q 683 369 666 369 q 759 338 732 369 q 786 265 786 308 q 706 96 786 170 q 525 -11 626 22 q 354 -44 425 -44 q 231 -34 283 -44 q 129 -2 179 -25 q 48 61 79 19 q 18 162 18 104 q 134 404 18 304 q 401 511 251 504 q 322 577 351 536 q 294 666 294 619 q 355 816 294 751 q 499 909 416 880 q 662 937 581 937 q 796 897 743 937 q 850 803 850 858 q 813 713 850 748 q 734 677 777 677 q 708 684 716 677 q 770 784 770 719 q 661 866 770 866 q 475 795 551 866 q 398 645 398 725 q 434 556 398 587 q 515 523 470 526 l 543 523 q 580 508 580 523 q 566 484 580 497 q 537 470 551 470 "},"˝":{"x_min":412.53125,"x_max":737.5625,"ha":843,"o":"m 737 987 q 630 751 657 832 q 606 747 627 747 q 586 749 586 747 q 650 988 586 751 q 695 1004 654 1004 q 737 990 737 1004 l 737 987 m 563 987 q 455 751 484 837 q 432 747 452 747 q 412 749 412 747 q 476 988 412 751 q 522 1004 480 1004 q 563 990 563 1004 l 563 987 "},"Ð":{"x_min":0,"x_max":1038.96875,"ha":1015,"o":"m 1032 497 q 908 212 1005 333 q 672 31 811 91 q 370 -27 533 -27 q 69 126 69 -27 q 85 236 69 188 q 106 300 101 284 q 148 402 127 362 l 11 402 q 9 410 9 402 q 29 448 9 418 q 61 479 48 479 l 179 479 q 320 789 259 670 q 384 913 380 908 q 161 865 275 905 q 12 765 47 825 q 5 761 11 761 q 0 768 0 761 q 1 779 0 776 q 194 955 54 923 q 365 969 258 969 l 650 969 q 943 862 847 969 q 1038 590 1038 755 q 1032 497 1038 550 m 886 486 q 901 608 901 550 q 822 832 901 743 q 700 903 777 880 q 556 926 623 926 q 327 479 455 791 l 490 479 q 491 471 491 479 q 472 433 491 463 q 440 402 452 402 l 298 402 q 285 369 295 394 q 270 333 275 344 q 258 298 266 322 q 245 261 250 275 q 235 227 241 248 q 226 188 229 205 q 219 107 219 150 q 247 48 219 65 q 345 31 275 31 q 690 161 538 31 q 886 486 841 291 "},"I":{"x_min":33.34375,"x_max":643.109375,"ha":389,"o":"m 329 969 l 643 969 q 379 513 547 895 q 281 259 336 416 q 226 29 226 101 q 231 0 226 9 l 52 0 q 216 466 91 168 q 431 918 383 863 q 192 870 313 915 q 51 762 70 825 q 45 758 50 758 q 33 776 33 758 q 36 790 33 779 q 112 908 62 866 q 210 959 162 950 q 329 969 258 969 "},"G":{"x_min":70.84375,"x_max":1100.09375,"ha":1028,"o":"m 1100 434 q 1066 361 1090 384 q 1002 330 1043 337 q 448 -52 861 -52 q 168 32 266 -52 q 70 272 70 118 q 125 514 70 388 q 268 744 179 640 q 488 916 358 848 q 744 983 619 983 q 937 939 869 983 q 1005 824 1005 895 q 937 695 1005 752 q 786 637 869 637 q 736 650 755 637 q 716 684 716 663 q 733 729 716 705 q 768 723 748 723 q 868 761 822 723 q 913 851 913 798 q 809 932 913 932 q 600 868 704 932 q 418 707 495 805 q 291 484 340 609 q 241 240 241 359 q 302 63 241 120 q 465 6 363 6 q 740 96 611 6 q 891 326 869 186 q 593 319 643 326 q 610 351 600 331 q 647 402 620 370 q 693 434 675 434 l 1100 434 "},"`":{"x_min":454.203125,"x_max":732,"ha":738,"o":"m 559 805 q 477 845 500 836 q 454 858 454 855 q 481 882 454 866 q 520 897 509 897 q 537 894 531 897 q 611 841 562 876 l 690 782 q 732 754 722 758 q 718 743 732 750 q 700 737 704 737 q 658 757 697 737 q 559 805 658 757 "},"·":{"x_min":213.90625,"x_max":379.203125,"ha":376,"o":"m 365 448 q 341 419 358 441 q 290 363 297 363 q 241 385 269 363 q 213 425 213 406 q 256 481 213 455 q 345 508 298 508 q 379 477 379 508 q 365 448 379 458 "},"r":{"x_min":75,"x_max":581.984375,"ha":467,"o":"m 422 558 l 493 556 l 506 556 q 447 466 486 541 q 391 353 409 391 q 349 250 372 315 q 326 145 326 186 q 354 105 326 105 q 404 131 372 106 q 459 182 437 155 q 506 252 480 209 q 550 325 531 294 q 572 356 569 356 q 581 331 581 356 q 568 281 581 305 q 469 130 508 183 q 375 34 430 77 q 276 -9 320 -9 q 197 106 197 -9 q 227 286 197 186 q 318 479 258 386 q 220 440 269 440 q 188 447 205 440 q 82 252 90 252 q 75 275 75 252 q 92 339 75 298 q 129 418 109 380 q 151 459 150 455 q 101 540 101 484 q 118 590 101 568 q 166 612 136 612 q 216 593 197 612 q 213 568 213 584 q 240 509 213 530 q 306 487 268 487 q 323 488 318 487 q 422 558 372 558 "},"¿":{"x_min":37.5,"x_max":705.609375,"ha":706,"o":"m 515 416 l 512 437 q 529 466 512 454 q 565 477 547 477 q 597 438 597 477 q 508 297 597 363 l 483 280 q 219 52 283 152 q 197 -15 197 15 q 230 -111 197 -76 q 316 -145 263 -145 q 419 -111 354 -145 q 474 -58 451 -94 q 497 13 497 -22 q 487 69 497 48 q 532 80 506 80 q 581 55 558 80 q 604 -11 604 30 q 544 -119 604 -77 q 298 -193 443 -193 q 37 -27 37 -193 q 108 123 37 69 q 239 197 166 166 q 347 245 312 227 q 425 288 381 262 q 515 416 515 344 m 702 686 q 657 654 687 683 q 618 607 627 625 q 550 663 550 629 q 579 712 550 688 q 648 736 609 736 q 705 701 705 736 q 702 686 705 697 "},"ý":{"x_min":-69.453125,"x_max":668.109375,"ha":590,"o":"m 611 541 l 668 541 q 580 411 625 515 q 519 252 544 323 q 488 165 494 180 q 463 90 483 150 q 430 0 443 31 q 350 -154 395 -97 q 236 -245 304 -211 q 98 -279 168 -279 q -20 -252 29 -279 q -69 -166 -69 -225 q -50 -111 -69 -136 q -7 -87 -31 -87 q 33 -98 16 -87 q 56 -123 50 -109 q 31 -181 31 -131 q 50 -224 31 -208 q 98 -240 69 -240 q 287 -38 211 -240 l 366 172 q 253 49 301 90 q 178 0 205 8 q 114 -8 151 -8 q 55 21 77 -8 q 34 109 33 51 q 67 273 34 166 q 139 443 100 380 q 221 523 179 505 q 337 541 263 541 q 343 536 343 541 q 334 522 343 530 q 218 343 277 472 q 159 125 159 213 q 186 77 159 77 q 313 177 236 77 q 433 377 391 277 q 449 418 438 391 q 463 454 459 444 q 477 481 468 463 q 493 504 486 498 q 511 520 500 511 q 536 533 523 530 q 611 541 576 541 m 644 793 q 497 722 588 769 q 401 676 405 676 q 384 683 397 676 q 370 693 370 690 q 461 757 383 700 q 565 833 540 815 q 581 836 570 836 q 620 820 593 836 q 647 797 647 805 q 644 793 647 794 "},"x":{"x_min":-18.0625,"x_max":737.5625,"ha":622,"o":"m 176 423 q 88 262 101 275 q 81 290 81 262 q 87 329 81 318 q 131 432 109 369 q 169 525 152 495 q 211 554 186 554 l 283 554 q 338 338 300 461 q 435 445 373 373 q 519 541 497 516 q 561 555 531 555 q 604 554 590 555 q 622 554 619 554 q 350 287 511 455 q 436 97 397 134 q 476 79 455 79 q 622 191 531 79 q 661 250 636 208 q 730 358 727 358 q 737 331 737 358 q 722 279 737 305 q 620 127 663 179 q 520 31 577 76 q 408 -12 462 -12 q 316 34 354 -12 q 251 179 279 81 q 84 0 134 62 l -18 0 q 231 237 81 90 q 176 423 198 329 "},"è":{"x_min":47.21875,"x_max":613.9375,"ha":497,"o":"m 605 361 q 613 334 613 361 q 591 269 613 306 q 547 198 569 231 q 490 120 526 165 q 419 50 454 76 q 243 -13 331 -13 q 101 31 155 -13 q 47 169 47 76 q 151 431 47 311 q 394 552 255 552 q 494 520 456 552 q 531 441 531 487 q 458 316 531 363 q 284 269 384 269 q 198 284 226 269 q 172 159 172 213 q 270 43 172 43 q 391 88 329 43 q 496 189 452 133 q 595 351 540 245 q 605 361 601 361 m 458 470 q 419 511 458 511 q 298 444 365 511 q 231 336 231 377 q 284 308 231 308 q 395 359 337 308 q 458 470 452 411 m 358 750 q 275 790 298 780 q 252 802 252 800 q 280 826 252 811 q 319 841 308 841 q 336 838 330 841 q 408 786 361 820 l 488 726 q 530 698 520 702 q 516 688 530 694 q 499 682 502 682 q 456 701 495 682 l 358 750 "},"º":{"x_min":2.78125,"x_max":673.671875,"ha":606,"o":"m 659 691 q 518 495 569 547 q 423 443 466 443 q 355 472 380 443 q 161 400 276 400 q 47 441 91 400 q 2 570 2 483 q 42 750 2 658 q 161 909 81 843 q 334 976 241 976 q 466 928 427 976 q 505 805 505 880 q 408 531 505 677 q 444 509 419 509 q 559 602 488 509 q 622 700 583 633 q 665 766 662 766 q 673 741 673 766 q 659 691 673 715 m 398 644 l 408 665 q 441 818 441 743 q 373 912 441 912 q 186 726 277 912 q 136 540 136 623 q 208 452 136 456 q 329 527 268 452 l 326 545 q 323 586 323 562 q 340 634 323 609 q 373 659 356 659 q 398 644 390 659 "},"Ń":{"x_min":52.78125,"x_max":1191.765625,"ha":976,"o":"m 1191 968 q 1035 734 1136 932 q 856 322 934 537 q 777 25 777 108 q 780 0 777 6 l 693 0 q 664 140 688 80 q 627 231 640 201 q 584 330 615 261 q 530 455 554 400 q 448 741 458 623 q 268 309 356 537 q 179 12 179 81 q 180 0 179 2 l 52 0 q 279 534 131 202 q 458 929 426 866 q 211 879 331 929 q 70 762 91 829 q 65 758 69 758 q 54 776 54 758 q 65 813 54 779 q 107 886 76 848 q 180 941 138 923 q 348 969 248 969 l 583 969 q 563 891 563 937 q 643 602 563 788 q 728 381 715 429 q 745 318 741 333 q 750 281 748 302 q 752 255 751 261 q 1062 969 770 300 q 1088 976 1065 976 q 1148 972 1111 976 q 1191 968 1186 968 m 1011 1125 q 863 1054 955 1101 q 768 1008 772 1008 q 750 1015 763 1008 q 737 1025 737 1022 q 828 1089 750 1032 q 932 1165 907 1147 q 948 1168 937 1168 q 986 1152 959 1168 q 1013 1129 1013 1137 q 1011 1125 1013 1126 "},"Ø":{"x_min":4.171875,"x_max":1054.25,"ha":1060,"o":"m 997 420 q 735 84 905 212 q 348 -44 565 -44 q 231 -33 287 -44 l 198 -80 q 161 -84 195 -84 q 126 -75 126 -84 l 126 -73 l 168 -15 q 4 258 4 47 q 97 604 4 438 q 349 875 191 770 q 683 983 506 979 q 865 957 790 983 l 886 984 q 924 988 890 988 q 958 979 958 988 l 958 977 l 923 929 q 1054 666 1054 847 q 997 420 1054 552 m 768 240 q 891 460 844 338 q 938 697 938 581 q 880 869 938 813 l 279 30 q 369 12 319 12 q 584 77 477 12 q 768 240 691 141 m 227 68 l 827 904 q 744 919 788 919 q 529 857 636 919 q 345 697 423 794 q 219 481 268 601 q 170 245 170 361 q 227 68 170 129 "},"÷":{"x_min":213.90625,"x_max":802.84375,"ha":1024,"o":"m 633 668 q 576 602 584 602 q 539 619 561 602 q 518 654 518 636 q 550 693 518 673 q 619 712 581 712 q 643 690 643 712 q 633 668 643 676 m 279 516 l 801 516 q 802 509 802 516 q 777 464 802 502 q 737 426 751 426 l 215 426 q 213 433 213 426 q 240 478 213 440 q 279 516 266 516 m 483 268 q 475 247 483 254 q 455 223 468 240 q 415 180 420 180 q 378 197 400 180 q 356 232 356 213 q 389 271 356 251 q 452 291 422 291 q 483 268 483 291 "},"h":{"x_min":-27.78125,"x_max":722.28125,"ha":608,"o":"m 708 279 q 419 -8 537 -8 q 337 86 337 -8 q 425 398 337 195 q 444 469 444 450 q 419 497 444 497 q 363 477 402 497 q 287 420 323 458 q 227 334 251 383 q 188 248 202 284 q 158 160 173 212 q 131 75 143 108 q 106 0 119 43 l -27 0 q 79 306 9 95 q 200 636 150 516 q 297 839 250 757 q 407 977 345 922 q 538 1033 469 1033 q 607 968 607 1033 q 569 847 607 922 q 300 480 488 688 q 418 551 375 534 q 502 568 462 568 q 581 498 581 568 q 572 447 581 470 q 550 393 562 423 q 531 343 538 362 q 511 290 523 323 q 491 233 498 256 q 473 140 473 175 q 497 105 473 105 q 705 347 580 105 q 716 356 709 356 q 722 331 722 356 q 708 279 722 305 m 540 998 q 413 844 491 998 q 259 490 334 690 q 519 857 450 713 q 558 971 558 944 q 540 998 558 998 "},".":{"x_min":155.5625,"x_max":311.140625,"ha":376,"o":"m 308 68 q 263 36 293 65 q 223 -11 233 6 q 155 45 155 11 q 185 94 155 70 q 254 118 215 118 q 311 83 311 118 q 308 68 311 79 "},"ń":{"x_min":-29.171875,"x_max":719.5,"ha":606,"o":"m 705 279 q 611 135 654 193 q 515 34 569 77 q 416 -8 461 -8 q 334 81 334 -8 q 438 444 334 172 q 444 470 444 456 q 407 500 444 500 q 335 477 370 500 q 270 411 300 454 q 218 325 241 369 q 174 225 194 281 q 142 129 154 168 q 118 47 130 91 q 105 0 106 4 l -29 0 q 93 334 -29 29 q 143 534 143 477 q 138 555 143 548 l 197 555 q 259 545 245 555 q 273 519 273 536 q 258 451 273 502 q 493 562 375 562 q 572 490 572 562 q 565 443 572 466 q 530 348 558 419 q 469 140 469 193 q 494 106 469 106 q 545 131 512 106 q 599 184 577 156 q 646 252 620 211 q 690 323 672 293 q 711 354 708 354 q 719 328 719 354 q 705 279 719 302 m 622 802 q 475 732 566 779 q 379 686 383 686 q 361 693 375 686 q 348 702 348 700 q 439 767 361 709 q 543 843 518 825 q 559 845 548 845 q 597 830 570 845 q 625 807 625 815 q 622 802 625 804 "},";":{"x_min":116.671875,"x_max":493.09375,"ha":475,"o":"m 490 468 q 445 436 475 465 q 405 388 415 406 q 337 445 337 411 q 367 494 337 470 q 436 518 397 518 q 493 483 493 518 q 490 468 493 479 m 341 88 q 236 -93 302 -1 q 136 -186 170 -186 q 116 -180 126 -186 q 223 91 201 -54 q 283 109 225 109 q 341 91 341 109 l 341 88 "},"f":{"x_min":-240.296875,"x_max":879.234375,"ha":471,"o":"m 184 434 q 69 236 80 236 q 62 259 62 236 q 70 298 62 281 q 173 520 138 415 q 186 545 179 538 q 209 551 193 551 l 220 551 l 343 541 q 371 618 351 562 q 402 702 391 673 q 436 782 413 732 q 476 861 458 832 q 523 927 494 890 q 581 983 552 963 q 734 1030 652 1030 q 879 923 879 1030 q 856 851 879 883 q 795 819 833 819 q 764 829 777 819 q 751 852 751 838 q 772 895 751 865 q 793 946 793 925 q 775 982 793 968 q 734 995 758 995 q 651 951 693 995 q 575 834 609 907 q 465 565 513 708 q 462 555 463 558 q 455 536 458 544 q 705 555 675 536 q 627 497 687 511 q 436 480 568 483 l 395 363 q 262 24 309 116 q 172 -134 215 -68 q 88 -244 130 -201 q -106 -344 -5 -344 q -207 -312 -175 -344 q -240 -240 -240 -280 q -222 -175 -240 -201 q -181 -148 -204 -148 q -148 -159 -159 -148 q -137 -181 -137 -169 q -152 -218 -137 -193 q -166 -262 -166 -244 q -156 -293 -166 -280 q -122 -305 -147 -305 q -63 -281 -97 -305 q 2 -211 -29 -256 q 318 479 122 -34 l 279 479 q 184 434 208 479 "},"“":{"x_min":69.453125,"x_max":488.921875,"ha":518,"o":"m 100 661 q 69 720 69 677 q 90 802 69 762 q 133 874 112 843 q 190 939 154 905 q 255 973 226 973 q 270 970 259 973 q 210 887 251 948 q 168 809 169 826 l 176 809 q 223 762 223 809 q 195 684 223 715 q 130 652 166 652 q 100 661 113 652 m 318 661 q 287 720 287 677 q 309 802 287 762 q 351 874 330 843 q 408 939 372 905 q 473 973 444 973 q 488 970 477 973 q 428 887 469 948 q 386 809 387 826 l 394 809 q 441 762 441 809 q 413 684 441 715 q 348 652 384 652 q 318 661 333 652 "},"A":{"x_min":16.671875,"x_max":1132.03125,"ha":1042,"o":"m 650 969 l 961 969 q 840 916 926 934 q 645 888 754 898 q 504 870 537 877 q 355 693 355 836 q 312 788 312 737 q 650 969 312 969 m 1032 969 l 1132 969 q 1002 635 1068 908 q 936 213 936 362 q 975 68 936 108 q 1016 50 991 50 q 1069 68 1041 50 l 1077 55 q 1008 7 1058 27 q 909 -12 958 -12 q 811 38 837 -12 q 780 176 784 90 q 798 359 780 247 l 480 359 q 155 0 273 140 l 16 0 q 422 391 147 119 q 887 880 776 744 q 929 927 915 913 q 971 954 943 940 q 1032 969 1000 969 m 888 773 q 541 429 730 625 l 808 429 q 888 773 833 566 "},"6":{"x_min":43.0625,"x_max":818.125,"ha":810,"o":"m 818 816 q 788 740 818 758 q 737 722 759 722 q 677 768 697 722 q 713 840 713 791 q 683 912 713 888 q 601 936 652 936 q 393 827 493 936 q 231 544 293 718 q 500 633 340 633 q 689 566 620 633 q 758 388 758 498 q 629 96 758 201 q 334 -8 500 -8 q 106 64 169 -8 q 43 263 43 137 q 84 514 43 388 q 197 746 126 640 q 375 921 268 852 q 585 990 481 990 q 753 947 688 990 q 818 816 818 904 m 430 573 q 245 473 308 568 q 183 243 183 379 q 223 96 183 154 q 341 38 263 38 q 534 140 456 38 q 611 362 611 241 q 563 514 611 455 q 430 573 516 573 "},"‘":{"x_min":70.84375,"x_max":272.25,"ha":301,"o":"m 101 661 q 70 720 70 677 q 92 802 70 762 q 134 874 113 843 q 191 939 155 905 q 256 973 227 973 q 272 970 261 973 q 211 887 252 948 q 169 809 170 826 l 177 809 q 225 762 225 809 q 196 684 225 715 q 131 652 168 652 q 101 661 116 652 "},"O":{"x_min":87.5,"x_max":1137.59375,"ha":1060,"o":"m 1080 420 q 818 84 988 212 q 431 -44 648 -44 q 87 259 87 -44 q 145 529 87 397 q 297 761 202 662 q 520 922 391 861 q 784 983 650 983 q 1049 896 961 983 q 1137 679 1137 809 q 1080 420 1137 550 m 1022 693 q 819 919 1022 919 q 538 818 672 919 q 327 563 404 716 q 250 258 250 411 q 298 80 250 148 q 453 12 347 12 q 666 76 559 12 q 850 239 773 140 q 974 460 926 338 q 1022 693 1022 581 "},"n":{"x_min":-29.171875,"x_max":719.5,"ha":606,"o":"m 705 279 q 611 135 654 193 q 515 34 569 77 q 416 -8 461 -8 q 334 81 334 -8 q 438 444 334 172 q 444 470 444 456 q 407 500 444 500 q 335 477 370 500 q 270 411 300 454 q 218 325 241 369 q 174 225 194 281 q 142 129 154 168 q 118 47 130 91 q 105 0 106 4 l -29 0 q 93 334 -29 29 q 143 534 143 477 q 138 555 143 548 l 197 555 q 259 545 245 555 q 273 519 273 536 q 258 451 273 502 q 493 562 375 562 q 572 490 572 562 q 565 443 572 466 q 530 348 558 419 q 469 140 469 193 q 494 106 469 106 q 545 131 512 106 q 599 184 577 156 q 646 252 620 211 q 690 323 672 293 q 711 354 708 354 q 719 328 719 354 q 705 279 719 302 "},"3":{"x_min":27.78125,"x_max":823.671875,"ha":833,"o":"m 540 527 q 709 446 651 509 q 768 295 768 383 q 700 132 768 208 q 532 19 632 56 q 340 -18 433 -18 q 182 0 247 -18 q 72 66 118 19 q 27 177 27 113 q 63 289 27 241 q 155 337 100 337 q 209 323 181 337 q 156 176 156 247 q 209 65 156 105 q 345 26 262 26 q 528 101 452 26 q 604 273 604 176 q 545 432 604 370 q 397 494 486 494 q 288 469 344 494 q 268 465 280 465 q 247 477 256 465 q 238 508 238 488 q 258 543 238 527 q 324 559 277 559 q 422 536 370 559 q 595 639 526 562 q 663 812 663 716 q 625 917 663 876 q 504 958 586 958 q 361 893 422 958 q 301 745 301 829 q 309 691 301 719 q 270 684 291 684 q 228 709 248 684 q 208 777 208 734 q 263 900 208 848 q 541 995 366 995 q 823 802 823 995 q 747 641 823 718 q 540 527 672 563 "},"9":{"x_min":27.78125,"x_max":827.84375,"ha":853,"o":"m 648 175 q 250 -18 494 -18 q 27 148 27 -18 q 55 231 27 194 q 130 269 83 269 q 181 256 156 269 q 154 150 154 216 q 188 54 154 83 q 277 26 222 26 q 386 56 331 26 q 538 195 483 111 q 650 430 593 280 q 407 351 540 351 q 193 429 275 351 q 111 632 111 508 q 222 896 111 801 q 500 991 334 991 q 827 690 827 991 q 777 418 827 562 q 648 175 726 273 m 684 718 q 636 876 684 811 q 490 941 587 941 q 324 848 393 940 q 255 652 255 757 q 309 478 255 547 q 450 409 363 409 q 589 452 536 409 q 663 560 643 495 q 684 718 684 625 "},"l":{"x_min":43.0625,"x_max":608.375,"ha":342,"o":"m 576 847 q 423 617 526 745 q 238 411 320 488 l 216 347 q 184 229 200 298 q 170 130 169 159 q 201 88 170 88 q 274 123 231 88 q 336 184 316 158 q 381 251 355 209 q 425 323 406 293 q 447 354 444 354 q 455 328 455 354 q 441 279 455 302 q 318 97 365 150 q 120 -8 222 -8 q 43 97 43 -8 q 136 461 43 201 q 168 554 143 483 q 211 664 193 625 q 259 769 229 704 q 318 873 290 834 q 381 952 347 912 q 529 1033 450 1033 q 608 961 608 1033 q 576 847 608 905 m 547 998 l 537 998 q 266 490 452 998 q 526 857 456 713 q 565 971 565 944 q 547 998 565 998 "},"¤":{"x_min":162.515625,"x_max":993.140625,"ha":1157,"o":"m 784 679 l 987 823 l 988 823 q 993 797 993 823 q 986 736 993 772 q 968 691 979 700 l 843 602 q 862 509 862 559 q 800 344 862 420 l 894 254 q 898 234 898 250 q 892 191 898 219 q 878 143 886 163 q 868 122 870 122 l 866 122 l 712 269 q 543 223 633 223 q 383 275 452 223 l 168 122 l 166 122 q 162 147 162 122 q 169 210 162 173 q 186 254 176 247 l 320 348 q 295 447 295 393 q 354 612 295 536 l 272 691 q 268 715 268 695 q 281 779 268 734 q 301 823 294 823 l 302 823 l 441 690 q 617 738 520 738 q 784 679 713 738 m 395 466 q 441 340 395 387 q 560 293 487 293 q 698 353 633 293 q 763 494 763 413 q 717 622 763 575 q 595 670 670 670 q 457 607 519 670 q 395 466 395 544 "},"4":{"x_min":5.5625,"x_max":950.078125,"ha":954,"o":"m 900 373 q 693 301 830 301 q 641 305 669 301 q 551 0 577 106 l 386 0 q 511 323 419 75 q 401 352 469 333 q 191 398 248 398 q 109 379 134 398 q 83 336 84 359 q 43 273 81 273 q 16 288 27 273 q 5 331 5 304 q 65 425 5 394 l 716 983 l 888 983 q 675 402 787 743 q 865 518 865 416 q 852 558 865 541 q 890 569 868 569 q 931 541 912 569 q 950 483 950 512 q 900 373 950 426 m 732 915 l 173 444 q 359 424 276 438 q 541 405 441 409 l 732 915 "},"p":{"x_min":-169.453125,"x_max":670.890625,"ha":547,"o":"m 657 297 q 476 59 573 144 q 245 -25 379 -25 q 95 43 112 -25 l 18 -200 q -24 -306 -9 -281 q -56 -337 -38 -330 q -102 -344 -75 -344 l -169 -344 q -23 20 -133 -291 q 121 418 86 331 q 173 522 156 504 q 288 555 206 555 l 330 555 q 220 388 290 527 q 448 561 350 561 q 541 433 541 561 q 475 216 541 327 q 318 44 408 105 l 329 44 q 445 90 386 44 q 547 191 504 136 q 613 295 570 222 q 659 368 657 368 q 670 344 670 368 q 657 297 670 320 m 386 443 q 373 444 381 444 q 309 416 344 444 q 188 269 252 372 q 125 101 125 166 q 165 36 125 36 q 322 179 237 36 q 406 402 406 322 q 386 443 406 437 "},"‡":{"x_min":-5.5625,"x_max":548.65625,"ha":575,"o":"m 202 -86 l 187 -84 l 181 -84 q 140 -79 147 -84 q 134 -73 134 -75 l 201 398 l -4 398 q -5 405 -5 398 q 20 450 -5 412 q 59 488 47 488 l 213 488 l 233 625 l 40 625 q 38 631 38 625 q 65 677 38 638 q 104 715 91 715 l 247 715 l 283 970 q 331 975 286 975 q 376 963 376 975 l 340 715 l 547 715 q 548 708 548 715 q 522 663 548 701 q 483 625 497 625 l 327 625 l 308 488 l 502 488 q 504 481 504 488 q 478 436 504 475 q 438 398 452 398 l 295 398 l 229 -80 q 202 -86 226 -86 "},"à":{"x_min":38.890625,"x_max":770.890625,"ha":657,"o":"m 618 555 l 687 554 l 701 554 q 588 364 655 516 q 522 143 522 212 q 547 106 522 106 q 752 344 627 106 q 762 354 758 354 q 770 328 770 354 q 757 279 770 302 q 470 -8 586 -8 q 395 106 395 -8 q 425 276 395 193 q 131 -4 266 -4 q 38 123 38 -4 q 81 320 38 220 q 202 491 123 420 q 376 561 281 561 q 459 541 420 561 q 511 476 498 520 q 558 531 526 508 q 618 555 590 555 m 502 463 q 437 508 488 508 q 259 381 345 508 q 173 154 173 254 q 206 111 173 111 q 291 156 243 111 q 379 262 340 201 q 502 463 465 398 m 450 766 q 367 807 390 797 q 344 819 344 816 q 372 843 344 827 q 411 858 400 858 q 427 855 422 858 q 500 802 452 837 l 580 743 q 622 715 612 719 q 608 704 622 711 q 591 698 594 698 q 548 718 587 698 l 450 766 "},"Ü":{"x_min":13.890625,"x_max":1197.3125,"ha":1038,"o":"m 386 875 q 412 918 411 915 q 172 870 294 915 q 31 762 51 825 q 26 758 30 758 q 13 776 13 758 q 25 813 13 779 q 69 886 37 848 q 141 941 101 923 q 309 969 209 969 l 625 969 q 467 744 561 920 q 319 433 373 568 q 243 167 243 256 q 313 77 243 77 q 468 163 373 77 q 654 372 562 248 q 908 754 834 618 q 1022 930 982 891 q 1111 969 1062 969 l 1197 969 q 1007 669 1132 919 q 819 126 819 291 q 868 50 819 50 q 923 68 891 50 l 925 68 q 929 59 929 68 q 859 11 929 33 q 747 -11 790 -11 q 658 91 658 -11 q 694 256 658 143 q 786 490 730 369 q 477 91 579 181 q 269 -9 365 -9 q 109 144 109 -9 q 193 468 109 258 q 386 875 277 679 m 1029 1116 q 971 1078 1001 1109 q 926 1047 941 1047 q 897 1070 897 1047 q 931 1143 897 1094 q 994 1191 965 1191 q 1023 1170 1009 1191 q 1037 1134 1037 1150 q 1029 1116 1037 1118 m 769 1116 q 711 1078 741 1109 q 666 1047 682 1047 q 637 1070 637 1047 q 671 1143 637 1094 q 734 1191 705 1191 q 763 1170 750 1191 q 777 1134 777 1150 q 769 1116 777 1118 "},"ó":{"x_min":48.609375,"x_max":734.78125,"ha":624,"o":"m 718 341 q 726 350 722 350 q 734 329 734 350 q 681 218 734 262 q 581 175 627 175 q 501 201 534 175 q 382 45 451 102 q 205 -11 313 -11 q 92 31 136 -11 q 48 160 48 73 q 88 339 48 247 q 207 498 127 431 q 386 565 287 565 q 551 390 551 565 q 522 250 551 323 q 581 220 543 220 q 718 341 654 220 m 486 427 q 419 501 480 501 q 231 315 323 501 q 181 129 181 212 q 254 41 181 45 q 364 104 313 41 q 450 244 415 168 q 402 345 402 284 q 422 405 402 383 q 477 427 443 427 l 486 427 m 598 807 q 451 736 543 783 q 355 690 359 690 q 338 697 351 690 q 325 707 325 704 q 416 771 337 713 q 519 847 494 829 q 536 850 525 850 q 574 834 547 850 q 601 811 601 819 q 598 807 601 808 "},"ŗ":{"x_min":-56.953125,"x_max":581.984375,"ha":467,"o":"m 422 558 l 493 556 l 506 556 q 447 466 486 541 q 391 353 409 391 q 349 250 372 315 q 326 145 326 186 q 354 105 326 105 q 404 131 372 106 q 459 182 437 155 q 506 252 480 209 q 550 325 531 294 q 572 356 569 356 q 581 331 581 356 q 568 281 581 305 q 469 130 508 183 q 375 34 430 77 q 276 -9 320 -9 q 197 106 197 -9 q 227 286 197 186 q 318 479 258 386 q 220 440 269 440 q 188 447 205 440 q 82 252 90 252 q 75 275 75 252 q 92 339 75 298 q 129 418 109 380 q 151 459 150 455 q 101 540 101 484 q 118 590 101 568 q 166 612 136 612 q 216 593 197 612 q 213 568 213 584 q 240 509 213 530 q 306 487 268 487 q 323 488 318 487 q 422 558 372 558 m 168 -98 q 63 -281 129 -188 q -37 -373 -2 -373 q -56 -368 -47 -373 q 50 -95 27 -241 q 109 -77 51 -77 q 168 -95 168 -77 l 168 -98 "}}}
